BusraRef-Black.ufo
<glyph name="exclam" format="2">
  <advance width="1344"/>
  <unicode hex="0021"/>
  <outline>
    <contour>
      <point x="576" y="384" type="line"/>
      <point x="922" y="384" type="line"/>
      <point x="997" y="769"/>
      <point x="1037" y="1151"/>
      <point x="1037" y="1536" type="curve"/>
      <point x="1037" y="1612"/>
      <point x="909" y="1704"/>
      <point x="748" y="1704" type="curve"/>
      <point x="587" y="1704"/>
      <point x="461" y="1612"/>
      <point x="461" y="1536" type="curve"/>
      <point x="461" y="1151"/>
      <point x="499" y="772"/>
      <point x="576" y="388" type="curve"/>
    </contour>
    <contour>
      <point x="499" y="146" type="curve" smooth="yes"/>
      <point x="499" y="69"/>
      <point x="615" y="0"/>
      <point x="748" y="0" type="curve"/>
      <point x="883" y="0"/>
      <point x="997" y="69"/>
      <point x="997" y="146" type="curve"/>
      <point x="997" y="223"/>
      <point x="883" y="292"/>
      <point x="748" y="292" type="curve"/>
      <point x="615" y="292"/>
      <point x="499" y="223"/>
    </contour>
  </outline>
</glyph>
<glyph name="percent" format="2">
  <advance width="1777"/>
  <unicode hex="0025"/>
  <outline>
    <contour>
      <point x="191" y="1078" type="curve" smooth="yes"/>
      <point x="191" y="902"/>
      <point x="362" y="761"/>
      <point x="576" y="761" type="curve"/>
      <point x="622" y="761"/>
      <point x="664" y="769"/>
      <point x="703" y="780" type="curve"/>
      <point x="352" y="77" type="line"/>
      <point x="722" y="77" type="line"/>
      <point x="864" y="330" type="line"/>
      <point x="898" y="184"/>
      <point x="1052" y="77"/>
      <point x="1241" y="77" type="curve"/>
      <point x="1455" y="77"/>
      <point x="1624" y="219"/>
      <point x="1624" y="392" type="curve"/>
      <point x="1624" y="568"/>
      <point x="1455" y="707"/>
      <point x="1241" y="707" type="curve"/>
      <point x="1172" y="707"/>
      <point x="1110" y="692"/>
      <point x="1056" y="671" type="curve"/>
      <point x="1421" y="1397" type="line"/>
      <point x="1052" y="1397" type="line"/>
      <point x="934" y="1187" type="line"/>
      <point x="883" y="1305"/>
      <point x="741" y="1393"/>
      <point x="576" y="1393" type="curve"/>
      <point x="362" y="1393"/>
      <point x="191" y="1252"/>
    </contour>
    <contour>
      <point x="517" y="1078" type="curve" smooth="yes"/>
      <point x="517" y="1183"/>
      <point x="538" y="1294"/>
      <point x="576" y="1294" type="curve"/>
      <point x="615" y="1294"/>
      <point x="634" y="1183"/>
      <point x="634" y="1078" type="curve"/>
      <point x="634" y="975"/>
      <point x="615" y="861"/>
      <point x="576" y="861" type="curve"/>
      <point x="538" y="861"/>
      <point x="517" y="975"/>
    </contour>
    <contour>
      <point x="1183" y="392" type="curve" smooth="yes"/>
      <point x="1183" y="495"/>
      <point x="1202" y="611"/>
      <point x="1241" y="611" type="curve"/>
      <point x="1279" y="611"/>
      <point x="1297" y="495"/>
      <point x="1297" y="392" type="curve"/>
      <point x="1297" y="289"/>
      <point x="1279" y="176"/>
      <point x="1241" y="176" type="curve"/>
      <point x="1202" y="176"/>
      <point x="1183" y="289"/>
    </contour>
  </outline>
</glyph>
<glyph name="ampersand" format="2">
  <advance width="1331"/>
  <unicode hex="0026"/>
  <outline>
    <contour>
      <point x="1204" y="705" type="curve"/>
      <point x="1035" y="705" type="line"/>
      <point x="1035" y="607"/>
      <point x="1009" y="495"/>
      <point x="975" y="424" type="curve"/>
      <point x="682" y="776" type="line"/>
      <point x="892" y="922"/>
      <point x="952" y="1016"/>
      <point x="952" y="1155" type="curve" smooth="yes"/>
      <point x="952" y="1342"/>
      <point x="859" y="1485"/>
      <point x="607" y="1485" type="curve" smooth="yes"/>
      <point x="420" y="1485"/>
      <point x="270" y="1342"/>
      <point x="270" y="1155" type="curve"/>
      <point x="277" y="1069"/>
      <point x="311" y="998"/>
      <point x="367" y="919" type="curve"/>
      <point x="457" y="806" type="line"/>
      <point x="251" y="709"/>
      <point x="90" y="555"/>
      <point x="90" y="360" type="curve" smooth="yes"/>
      <point x="90" y="172"/>
      <point x="236" y="-41"/>
      <point x="547" y="-41" type="curve" smooth="yes"/>
      <point x="780" y="-41"/>
      <point x="885" y="52"/>
      <point x="975" y="150" type="curve"/>
      <point x="1087" y="0" type="line"/>
      <point x="1327" y="0" type="line"/>
      <point x="1076" y="281" type="line"/>
      <point x="1159" y="394"/>
      <point x="1185" y="491"/>
    </contour>
    <contour>
      <point x="607" y="885" type="curve"/>
      <point x="529" y="971" type="line" smooth="yes"/>
      <point x="456" y="1052"/>
      <point x="435" y="1117"/>
      <point x="435" y="1181" type="curve" smooth="yes"/>
      <point x="435" y="1279"/>
      <point x="517" y="1346"/>
      <point x="604" y="1346" type="curve" smooth="yes"/>
      <point x="761" y="1346"/>
      <point x="787" y="1275"/>
      <point x="787" y="1181" type="curve" smooth="yes"/>
      <point x="787" y="1121"/>
      <point x="787" y="1016"/>
    </contour>
    <contour>
      <point x="544" y="705" type="curve"/>
      <point x="874" y="289" type="line"/>
      <point x="772" y="172"/>
      <point x="716" y="120"/>
      <point x="540" y="120" type="curve" smooth="yes"/>
      <point x="412" y="120"/>
      <point x="281" y="229"/>
      <point x="281" y="379" type="curve" smooth="yes"/>
      <point x="281" y="510"/>
      <point x="424" y="622"/>
    </contour>
  </outline>
</glyph>
<glyph name="asterisk" format="2">
  <advance width="1526"/>
  <unicode hex="002A"/>
  <outline>
    <contour>
      <point x="923" y="1130" type="curve" smooth="yes"/>
      <point x="923" y="1210"/>
      <point x="873" y="1290"/>
      <point x="763" y="1290" type="curve" smooth="yes"/>
      <point x="653" y="1290"/>
      <point x="603" y="1210"/>
      <point x="603" y="1130" type="curve" smooth="yes"/>
      <point x="603" y="1048"/>
      <point x="635" y="961"/>
      <point x="665" y="883" type="curve"/>
      <point x="613" y="948"/>
      <point x="555" y="1020"/>
      <point x="484" y="1061" type="curve" smooth="yes"/>
      <point x="457" y="1076"/>
      <point x="427" y="1085"/>
      <point x="397" y="1085" type="curve" smooth="yes"/>
      <point x="348" y="1085"/>
      <point x="299" y="1062"/>
      <point x="265" y="1003" type="curve" smooth="yes"/>
      <point x="248" y="973"/>
      <point x="240" y="944"/>
      <point x="240" y="917" type="curve" smooth="yes"/>
      <point x="240" y="859"/>
      <point x="276" y="811"/>
      <point x="324" y="783" type="curve" smooth="yes"/>
      <point x="395" y="742"/>
      <point x="487" y="728"/>
      <point x="569" y="715" type="curve"/>
      <point x="487" y="702"/>
      <point x="395" y="687"/>
      <point x="324" y="646" type="curve" smooth="yes"/>
      <point x="276" y="619"/>
      <point x="240" y="571"/>
      <point x="240" y="513" type="curve" smooth="yes"/>
      <point x="240" y="486"/>
      <point x="248" y="457"/>
      <point x="265" y="427" type="curve" smooth="yes"/>
      <point x="299" y="368"/>
      <point x="348" y="345"/>
      <point x="397" y="345" type="curve" smooth="yes"/>
      <point x="427" y="345"/>
      <point x="457" y="354"/>
      <point x="484" y="369" type="curve" smooth="yes"/>
      <point x="555" y="410"/>
      <point x="613" y="482"/>
      <point x="665" y="547" type="curve"/>
      <point x="635" y="469"/>
      <point x="603" y="382"/>
      <point x="603" y="300" type="curve" smooth="yes"/>
      <point x="603" y="220"/>
      <point x="653" y="140"/>
      <point x="763" y="140" type="curve" smooth="yes"/>
      <point x="873" y="140"/>
      <point x="923" y="220"/>
      <point x="923" y="300" type="curve" smooth="yes"/>
      <point x="923" y="382"/>
      <point x="890" y="469"/>
      <point x="860" y="547" type="curve"/>
      <point x="913" y="482"/>
      <point x="971" y="410"/>
      <point x="1042" y="369" type="curve" smooth="yes"/>
      <point x="1069" y="354"/>
      <point x="1099" y="345"/>
      <point x="1129" y="345" type="curve" smooth="yes"/>
      <point x="1178" y="345"/>
      <point x="1227" y="368"/>
      <point x="1261" y="427" type="curve" smooth="yes"/>
      <point x="1278" y="457"/>
      <point x="1286" y="486"/>
      <point x="1286" y="513" type="curve" smooth="yes"/>
      <point x="1286" y="571"/>
      <point x="1250" y="619"/>
      <point x="1202" y="646" type="curve" smooth="yes"/>
      <point x="1130" y="687"/>
      <point x="1039" y="702"/>
      <point x="956" y="715" type="curve"/>
      <point x="1039" y="728"/>
      <point x="1130" y="742"/>
      <point x="1202" y="784" type="curve" smooth="yes"/>
      <point x="1250" y="811"/>
      <point x="1286" y="859"/>
      <point x="1286" y="917" type="curve" smooth="yes"/>
      <point x="1286" y="944"/>
      <point x="1278" y="973"/>
      <point x="1261" y="1003" type="curve" smooth="yes"/>
      <point x="1227" y="1062"/>
      <point x="1178" y="1085"/>
      <point x="1129" y="1085" type="curve" smooth="yes"/>
      <point x="1099" y="1085"/>
      <point x="1069" y="1076"/>
      <point x="1042" y="1061" type="curve" smooth="yes"/>
      <point x="971" y="1020"/>
      <point x="913" y="948"/>
      <point x="860" y="883" type="curve"/>
      <point x="890" y="961"/>
      <point x="923" y="1048"/>
    </contour>
  </outline>
</glyph>
<glyph name="slash" format="2">
  <advance width="1072"/>
  <unicode hex="002F"/>
  <outline>
    <contour>
      <point x="75" y="0" type="line"/>
      <point x="240" y="0" type="line"/>
      <point x="997" y="1440" type="line"/>
      <point x="832" y="1440" type="line"/>
    </contour>
  </outline>
</glyph>
<glyph name="zero" format="2">
  <advance width="1110"/>
  <unicode hex="0030"/>
  <outline>
    <contour>
      <point x="551" y="1406" type="curve" smooth="yes"/>
      <point x="236" y="1406"/>
      <point x="71" y="1136"/>
      <point x="71" y="705" type="curve" smooth="yes"/>
      <point x="71" y="232"/>
      <point x="236" y="-19"/>
      <point x="551" y="-19" type="curve" smooth="yes"/>
      <point x="870" y="-19"/>
      <point x="1035" y="232"/>
      <point x="1035" y="705" type="curve" smooth="yes"/>
      <point x="1035" y="1174"/>
      <point x="870" y="1406"/>
    </contour>
    <contour>
      <point x="551" y="1249" type="curve" smooth="yes"/>
      <point x="750" y="1249"/>
      <point x="836" y="1087"/>
      <point x="836" y="705" type="curve" smooth="yes"/>
      <point x="836" y="319"/>
      <point x="750" y="139"/>
      <point x="551" y="139" type="curve" smooth="yes"/>
      <point x="352" y="139"/>
      <point x="270" y="319"/>
      <point x="270" y="705" type="curve" smooth="yes"/>
      <point x="270" y="1087"/>
      <point x="352" y="1249"/>
    </contour>
  </outline>
</glyph>
<glyph name="one" format="2">
  <advance width="1110"/>
  <unicode hex="0031"/>
  <outline>
    <contour>
      <point x="544" y="0" type="line"/>
      <point x="724" y="0" type="line"/>
      <point x="724" y="1406" type="line"/>
      <point x="581" y="1406" type="line"/>
      <point x="581" y="1249"/>
      <point x="469" y="1144"/>
      <point x="322" y="1144" type="curve" smooth="yes"/>
      <point x="221" y="1144" type="line"/>
      <point x="221" y="1005" type="line"/>
      <point x="544" y="1005" type="line"/>
    </contour>
  </outline>
</glyph>
<glyph name="three" format="2">
  <advance width="1110"/>
  <unicode hex="0033"/>
  <outline>
    <contour>
      <point x="285" y="975" type="line"/>
      <point x="307" y="1121"/>
      <point x="371" y="1249"/>
      <point x="540" y="1249" type="curve" smooth="yes"/>
      <point x="679" y="1249"/>
      <point x="769" y="1162"/>
      <point x="769" y="1027" type="curve" smooth="yes"/>
      <point x="769" y="926"/>
      <point x="712" y="817"/>
      <point x="544" y="817" type="curve" smooth="yes"/>
      <point x="435" y="817" type="line"/>
      <point x="435" y="660" type="line"/>
      <point x="544" y="660" type="line" smooth="yes"/>
      <point x="720" y="660"/>
      <point x="832" y="540"/>
      <point x="832" y="390" type="curve" smooth="yes"/>
      <point x="832" y="240"/>
      <point x="694" y="139"/>
      <point x="544" y="139" type="curve" smooth="yes"/>
      <point x="379" y="139"/>
      <point x="285" y="221"/>
      <point x="247" y="442" type="curve"/>
      <point x="49" y="442" type="line"/>
      <point x="90" y="139"/>
      <point x="277" y="-19"/>
      <point x="544" y="-19" type="curve" smooth="yes"/>
      <point x="806" y="-19"/>
      <point x="1031" y="124"/>
      <point x="1031" y="390" type="curve" smooth="yes"/>
      <point x="1031" y="604"/>
      <point x="900" y="705"/>
      <point x="769" y="742" type="curve"/>
      <point x="904" y="795"/>
      <point x="967" y="885"/>
      <point x="967" y="1039" type="curve" smooth="yes"/>
      <point x="967" y="1256"/>
      <point x="802" y="1406"/>
      <point x="544" y="1406" type="curve" smooth="yes"/>
      <point x="247" y="1406"/>
      <point x="124" y="1245"/>
      <point x="90" y="975" type="curve"/>
    </contour>
  </outline>
</glyph>
<glyph name="four" format="2">
  <advance width="1110"/>
  <unicode hex="0034"/>
  <outline>
    <contour>
      <point x="847" y="0" type="line"/>
      <point x="847" y="337" type="line"/>
      <point x="1050" y="337" type="line"/>
      <point x="1050" y="495" type="line"/>
      <point x="847" y="495" type="line"/>
      <point x="847" y="1387" type="line"/>
      <point x="671" y="1387" type="line"/>
      <point x="67" y="540" type="line"/>
      <point x="67" y="337" type="line"/>
      <point x="671" y="337" type="line"/>
      <point x="671" y="0" type="line"/>
    </contour>
    <contour>
      <point x="671" y="1121" type="line"/>
      <point x="671" y="495" type="line"/>
      <point x="232" y="495" type="line"/>
    </contour>
  </outline>
</glyph>
<glyph name="A" format="2">
  <advance width="1331"/>
  <unicode hex="0041"/>
  <outline>
    <contour>
      <point x="547" y="1440" type="line"/>
      <point x="22" y="0" type="line"/>
      <point x="240" y="0" type="line"/>
      <point x="379" y="416" type="line"/>
      <point x="941" y="416" type="line"/>
      <point x="1091" y="0" type="line"/>
      <point x="1309" y="0" type="line"/>
      <point x="784" y="1440" type="line"/>
    </contour>
    <contour>
      <point x="664" y="1264" type="line"/>
      <point x="667" y="1264" type="line"/>
      <point x="892" y="592" type="line"/>
      <point x="439" y="592" type="line"/>
    </contour>
  </outline>
</glyph>
<glyph name="B" format="2">
  <advance width="1316"/>
  <unicode hex="0042"/>
  <outline>
    <contour>
      <point x="146" y="0" type="line"/>
      <point x="795" y="0" type="line" smooth="yes"/>
      <point x="1016" y="0"/>
      <point x="1207" y="202"/>
      <point x="1207" y="416" type="curve" smooth="yes"/>
      <point x="1207" y="589"/>
      <point x="1125" y="731"/>
      <point x="941" y="776" type="curve"/>
      <point x="1072" y="832"/>
      <point x="1132" y="945"/>
      <point x="1132" y="1099" type="curve" smooth="yes"/>
      <point x="1132" y="1290"/>
      <point x="949" y="1440"/>
      <point x="742" y="1440" type="curve" smooth="yes"/>
      <point x="146" y="1440" type="line"/>
    </contour>
    <contour>
      <point x="341" y="1264" type="line"/>
      <point x="705" y="1264" type="line" smooth="yes"/>
      <point x="862" y="1264"/>
      <point x="934" y="1170"/>
      <point x="934" y="1072" type="curve" smooth="yes"/>
      <point x="934" y="952"/>
      <point x="829" y="851"/>
      <point x="705" y="851" type="curve" smooth="yes"/>
      <point x="341" y="851" type="line"/>
    </contour>
    <contour>
      <point x="341" y="682" type="line"/>
      <point x="727" y="682" type="line" smooth="yes"/>
      <point x="904" y="682"/>
      <point x="997" y="562"/>
      <point x="997" y="420" type="curve" smooth="yes"/>
      <point x="997" y="274"/>
      <point x="866" y="176"/>
      <point x="724" y="176" type="curve" smooth="yes"/>
      <point x="341" y="176" type="line"/>
    </contour>
  </outline>
</glyph>
<glyph name="C" format="2">
  <advance width="1414"/>
  <unicode hex="0043"/>
  <outline>
    <contour>
      <point x="285" y="746" type="curve" smooth="yes"/>
      <point x="285" y="1050"/>
      <point x="457" y="1309"/>
      <point x="727" y="1309" type="curve" smooth="yes"/>
      <point x="945" y="1309"/>
      <point x="1095" y="1211"/>
      <point x="1144" y="1001" type="curve"/>
      <point x="1339" y="1001" type="line"/>
      <point x="1305" y="1279"/>
      <point x="1076" y="1485"/>
      <point x="727" y="1485" type="curve" smooth="yes"/>
      <point x="315" y="1485"/>
      <point x="75" y="1125"/>
      <point x="75" y="746" type="curve" smooth="yes"/>
      <point x="75" y="251"/>
      <point x="330" y="-41"/>
      <point x="727" y="-41" type="curve" smooth="yes"/>
      <point x="1087" y="-41"/>
      <point x="1297" y="206"/>
      <point x="1339" y="521" type="curve"/>
      <point x="1144" y="521" type="line"/>
      <point x="1121" y="322"/>
      <point x="971" y="139"/>
      <point x="727" y="139" type="curve" smooth="yes"/>
      <point x="502" y="139"/>
      <point x="285" y="330"/>
    </contour>
  </outline>
</glyph>
<glyph name="H" format="2">
  <advance width="1410"/>
  <unicode hex="0048"/>
  <outline>
    <contour>
      <point x="146" y="1440" type="line"/>
      <point x="146" y="0" type="line"/>
      <point x="345" y="0" type="line"/>
      <point x="345" y="675" type="line"/>
      <point x="1069" y="675" type="line"/>
      <point x="1069" y="0" type="line"/>
      <point x="1264" y="0" type="line"/>
      <point x="1264" y="1440" type="line"/>
      <point x="1069" y="1440" type="line"/>
      <point x="1069" y="851" type="line"/>
      <point x="345" y="851" type="line"/>
      <point x="345" y="1440" type="line"/>
    </contour>
  </outline>
</glyph>
<glyph name="J" format="2">
  <advance width="986"/>
  <unicode hex="004A"/>
  <outline>
    <contour>
      <point x="645" y="1440" type="line"/>
      <point x="645" y="341" type="line" smooth="yes"/>
      <point x="645" y="195"/>
      <point x="517" y="139"/>
      <point x="427" y="139" type="curve" smooth="yes"/>
      <point x="322" y="139"/>
      <point x="217" y="202"/>
      <point x="217" y="337" type="curve" smooth="yes"/>
      <point x="217" y="480" type="line"/>
      <point x="22" y="480" type="line"/>
      <point x="22" y="304" type="line" smooth="yes"/>
      <point x="22" y="82"/>
      <point x="217" y="-41"/>
      <point x="427" y="-41" type="curve" smooth="yes"/>
      <point x="641" y="-41"/>
      <point x="840" y="112"/>
      <point x="840" y="319" type="curve" smooth="yes"/>
      <point x="840" y="1440" type="line"/>
    </contour>
  </outline>
</glyph>
<glyph name="Y" format="2">
  <advance width="1279"/>
  <unicode hex="0059"/>
  <outline>
    <contour>
      <point x="19" y="1440" type="line"/>
      <point x="540" y="574" type="line"/>
      <point x="540" y="0" type="line"/>
      <point x="735" y="0" type="line"/>
      <point x="735" y="574" type="line"/>
      <point x="1260" y="1440" type="line"/>
      <point x="1020" y="1440" type="line"/>
      <point x="637" y="735" type="line"/>
      <point x="259" y="1440" type="line"/>
    </contour>
  </outline>
</glyph>
<glyph name="bracketright" format="2">
  <advance width="645"/>
  <unicode hex="005D"/>
  <outline>
    <contour>
      <point x="495" y="1840" type="line"/>
      <point x="25" y="1840" type="line"/>
      <point x="25" y="1720" type="line"/>
      <point x="295" y="1720" type="line"/>
      <point x="295" y="-280" type="line"/>
      <point x="25" y="-280" type="line"/>
      <point x="25" y="-400" type="line"/>
      <point x="495" y="-400" type="line"/>
    </contour>
  </outline>
</glyph>
<glyph name="underscore" format="2">
  <advance width="1200"/>
  <unicode hex="005F"/>
  <outline>
    <contour>
      <point x="0" y="-38" type="line"/>
      <point x="0" y="-113" type="line"/>
      <point x="1200" y="-113" type="line"/>
      <point x="1200" y="-38" type="line"/>
    </contour>
  </outline>
</glyph>
<glyph name="i" format="2">
  <advance width="431"/>
  <unicode hex="0069"/>
  <outline>
    <contour>
      <point x="127" y="1447" type="line"/>
      <point x="127" y="1249" type="line"/>
      <point x="304" y="1249" type="line"/>
      <point x="304" y="1447" type="line"/>
    </contour>
    <contour>
      <point x="127" y="1039" type="line"/>
      <point x="127" y="0" type="line"/>
      <point x="304" y="0" type="line"/>
      <point x="304" y="1039" type="line"/>
    </contour>
  </outline>
</glyph>
<glyph name="l" format="2">
  <advance width="431"/>
  <unicode hex="006C"/>
  <outline>
    <contour>
      <point x="127" y="1440" type="line"/>
      <point x="127" y="0" type="line"/>
      <point x="304" y="0" type="line"/>
      <point x="304" y="1440" type="line"/>
    </contour>
  </outline>
</glyph>
<glyph name="p" format="2">
  <advance width="1106"/>
  <unicode hex="0070"/>
  <outline>
    <contour>
      <point x="127" y="-420" type="line"/>
      <point x="304" y="-420" type="line"/>
      <point x="304" y="139" type="line"/>
      <point x="307" y="139" type="line"/>
      <point x="382" y="52"/>
      <point x="446" y="-19"/>
      <point x="592" y="-19" type="curve" smooth="yes"/>
      <point x="877" y="-19"/>
      <point x="1039" y="195"/>
      <point x="1039" y="529" type="curve" smooth="yes"/>
      <point x="1039" y="836"/>
      <point x="889" y="1061"/>
      <point x="626" y="1061" type="curve" smooth="yes"/>
      <point x="484" y="1061"/>
      <point x="371" y="1009"/>
      <point x="304" y="892" type="curve"/>
      <point x="304" y="1039" type="line"/>
      <point x="127" y="1039" type="line"/>
    </contour>
    <contour>
      <point x="592" y="904" type="curve" smooth="yes"/>
      <point x="802" y="904"/>
      <point x="855" y="720"/>
      <point x="855" y="529" type="curve" smooth="yes"/>
      <point x="855" y="334"/>
      <point x="806" y="131"/>
      <point x="592" y="131" type="curve" smooth="yes"/>
      <point x="360" y="131"/>
      <point x="304" y="322"/>
      <point x="304" y="529" type="curve" smooth="yes"/>
      <point x="304" y="712"/>
      <point x="390" y="904"/>
    </contour>
  </outline>
</glyph>
<glyph name="q" format="2">
  <advance width="1155"/>
  <unicode hex="0071"/>
  <outline>
    <contour>
      <point x="855" y="-420" type="line"/>
      <point x="1031" y="-420" type="line"/>
      <point x="1031" y="1039" type="line"/>
      <point x="855" y="1039" type="line"/>
      <point x="855" y="881" type="line"/>
      <point x="780" y="982"/>
      <point x="690" y="1057"/>
      <point x="551" y="1057" type="curve" smooth="yes"/>
      <point x="247" y="1057"/>
      <point x="67" y="859"/>
      <point x="67" y="529" type="curve" smooth="yes"/>
      <point x="67" y="214"/>
      <point x="247" y="-19"/>
      <point x="551" y="-19" type="curve" smooth="yes"/>
      <point x="697" y="-19"/>
      <point x="776" y="52"/>
      <point x="851" y="139" type="curve"/>
      <point x="855" y="139" type="line"/>
    </contour>
    <contour>
      <point x="551" y="131" type="curve" smooth="yes"/>
      <point x="337" y="131"/>
      <point x="251" y="334"/>
      <point x="251" y="529" type="curve" smooth="yes"/>
      <point x="251" y="720"/>
      <point x="326" y="904"/>
      <point x="551" y="904" type="curve" smooth="yes"/>
      <point x="754" y="904"/>
      <point x="855" y="712"/>
      <point x="855" y="529" type="curve" smooth="yes"/>
      <point x="855" y="322"/>
      <point x="784" y="131"/>
    </contour>
  </outline>
</glyph>
<glyph name="v" format="2">
  <advance width="1005"/>
  <unicode hex="0076"/>
  <outline>
    <contour>
      <point x="11" y="1039" type="line"/>
      <point x="412" y="0" type="line"/>
      <point x="592" y="0" type="line"/>
      <point x="994" y="1039" type="line"/>
      <point x="795" y="1039" type="line"/>
      <point x="502" y="217" type="line"/>
      <point x="210" y="1039" type="line"/>
    </contour>
  </outline>
</glyph>
<glyph name="bar" format="2">
  <advance width="499"/>
  <unicode hex="007C"/>
  <outline>
    <contour>
      <point x="180" y="1646" type="line"/>
      <point x="180" y="-281" type="line"/>
      <point x="319" y="-281" type="line"/>
      <point x="319" y="1646" type="line"/>
    </contour>
  </outline>
</glyph>
<glyph name="exclamdown" format="2">
  <advance width="551"/>
  <unicode hex="00A1"/>
  <outline>
    <contour>
      <point x="375" y="0" type="line"/>
      <point x="375" y="604" type="line"/>
      <point x="337" y="1084" type="line"/>
      <point x="217" y="1084" type="line"/>
      <point x="180" y="600" type="line"/>
      <point x="180" y="0" type="line"/>
    </contour>
    <contour>
      <point x="180" y="1447" type="line"/>
      <point x="180" y="1230" type="line"/>
      <point x="375" y="1230" type="line"/>
      <point x="375" y="1447" type="line"/>
    </contour>
  </outline>
</glyph>
<glyph name="cent" format="2">
  <advance width="1042"/>
  <unicode hex="00A2"/>
  <outline>
    <contour>
      <point x="214" y="-278" type="line"/>
      <point x="341" y="19" type="line"/>
      <point x="394" y="-8"/>
      <point x="450" y="-19"/>
      <point x="517" y="-19" type="curve" smooth="yes"/>
      <point x="780" y="-19"/>
      <point x="941" y="133"/>
      <point x="964" y="380" type="curve"/>
      <point x="780" y="380" type="line"/>
      <point x="757" y="230"/>
      <point x="679" y="131"/>
      <point x="517" y="131" type="curve" smooth="yes"/>
      <point x="476" y="131"/>
      <point x="439" y="142"/>
      <point x="405" y="161" type="curve"/>
      <point x="709" y="851" type="line"/>
      <point x="746" y="817"/>
      <point x="769" y="772"/>
      <point x="780" y="705" type="curve"/>
      <point x="964" y="705" type="line"/>
      <point x="941" y="825"/>
      <point x="877" y="930"/>
      <point x="772" y="994" type="curve"/>
      <point x="889" y="1252" type="line"/>
      <point x="802" y="1252" type="line"/>
      <point x="701" y="1027" type="line"/>
      <point x="649" y="1046"/>
      <point x="589" y="1057"/>
      <point x="517" y="1057" type="curve" smooth="yes"/>
      <point x="251" y="1057"/>
      <point x="71" y="829"/>
      <point x="71" y="536" type="curve" smooth="yes"/>
      <point x="71" y="352"/>
      <point x="135" y="165"/>
      <point x="274" y="60" type="curve"/>
      <point x="120" y="-278" type="line"/>
    </contour>
    <contour>
      <point x="255" y="536" type="curve" smooth="yes"/>
      <point x="255" y="731"/>
      <point x="334" y="904"/>
      <point x="521" y="904" type="curve" smooth="yes"/>
      <point x="566" y="904"/>
      <point x="607" y="900"/>
      <point x="641" y="889" type="curve"/>
      <point x="341" y="217" type="line"/>
      <point x="281" y="292"/>
      <point x="255" y="412"/>
    </contour>
  </outline>
</glyph>
<glyph name="dieresis" format="2">
  <advance width="1267"/>
  <unicode hex="00A8"/>
  <outline>
    <contour>
      <point x="341" y="1815" type="line"/>
      <point x="341" y="1597" type="line"/>
      <point x="536" y="1597" type="line"/>
      <point x="536" y="1815" type="line"/>
    </contour>
    <contour>
      <point x="765" y="1815" type="line"/>
      <point x="765" y="1597" type="line"/>
      <point x="956" y="1597" type="line"/>
      <point x="956" y="1815" type="line"/>
    </contour>
    <contour>
      <point x="146" y="1447" type="line"/>
      <point x="146" y="0" type="line"/>
      <point x="1166" y="0" type="line"/>
      <point x="1166" y="176" type="line"/>
      <point x="341" y="176" type="line"/>
      <point x="341" y="660" type="line"/>
      <point x="1084" y="660" type="line"/>
      <point x="1084" y="836" type="line"/>
      <point x="341" y="836" type="line"/>
      <point x="341" y="1271" type="line"/>
      <point x="1129" y="1271" type="line"/>
      <point x="1129" y="1447" type="line"/>
    </contour>
  </outline>
</glyph>
<glyph name="copyright" format="2">
  <advance width="1676"/>
  <unicode hex="00A9"/>
  <outline>
    <contour>
      <point x="821" y="-41" type="curve" smooth="yes"/>
      <point x="1245" y="-41"/>
      <point x="1586" y="304"/>
      <point x="1586" y="724" type="curve"/>
      <point x="1586" y="1147"/>
      <point x="1245" y="1485"/>
      <point x="821" y="1485" type="curve" smooth="yes"/>
      <point x="401" y="1485"/>
      <point x="60" y="1147"/>
      <point x="60" y="724" type="curve" smooth="yes"/>
      <point x="60" y="304"/>
      <point x="401" y="-41"/>
    </contour>
    <contour>
      <point x="821" y="52" type="curve" smooth="yes"/>
      <point x="454" y="52"/>
      <point x="150" y="356"/>
      <point x="150" y="724" type="curve"/>
      <point x="150" y="1095"/>
      <point x="454" y="1395"/>
      <point x="821" y="1395" type="curve" smooth="yes"/>
      <point x="1192" y="1395"/>
      <point x="1496" y="1095"/>
      <point x="1496" y="724" type="curve" smooth="yes"/>
      <point x="1496" y="356"/>
      <point x="1192" y="52"/>
    </contour>
    <contour>
      <point x="1249" y="911" type="line"/>
      <point x="1222" y="1102"/>
      <point x="1065" y="1252"/>
      <point x="817" y="1252" type="curve" smooth="yes"/>
      <point x="532" y="1252"/>
      <point x="364" y="997"/>
      <point x="364" y="731" type="curve" smooth="yes"/>
      <point x="364" y="386"/>
      <point x="540" y="180"/>
      <point x="817" y="180" type="curve" smooth="yes"/>
      <point x="1069" y="180"/>
      <point x="1219" y="349"/>
      <point x="1249" y="574" type="curve"/>
      <point x="1110" y="574" type="line"/>
      <point x="1095" y="435"/>
      <point x="986" y="304"/>
      <point x="817" y="304" type="curve" smooth="yes"/>
      <point x="660" y="304"/>
      <point x="506" y="439"/>
      <point x="506" y="731" type="curve" smooth="yes"/>
      <point x="506" y="941"/>
      <point x="630" y="1125"/>
      <point x="817" y="1125" type="curve" smooth="yes"/>
      <point x="971" y="1125"/>
      <point x="1076" y="1054"/>
      <point x="1110" y="911" type="curve"/>
    </contour>
  </outline>
</glyph>
<glyph name="logicalnot" format="2">
  <advance width="1106"/>
  <unicode hex="00AC"/>
  <outline>
    <contour>
      <point x="79" y="840" type="line"/>
      <point x="79" y="705" type="line"/>
      <point x="892" y="705" type="line"/>
      <point x="892" y="514" type="line"/>
      <point x="1035" y="514" type="line"/>
      <point x="1035" y="840" type="line"/>
    </contour>
  </outline>
</glyph>
<glyph name="plusminus" format="2">
  <advance width="1189"/>
  <unicode hex="00B1"/>
  <outline>
    <contour>
      <point x="79" y="131" type="line"/>
      <point x="79" y="0" type="line"/>
      <point x="1129" y="0" type="line"/>
      <point x="1129" y="131" type="line"/>
    </contour>
    <contour>
      <point x="79" y="705" type="line"/>
      <point x="536" y="705" type="line"/>
      <point x="536" y="262" type="line"/>
      <point x="671" y="262" type="line"/>
      <point x="671" y="705" type="line"/>
      <point x="1129" y="705" type="line"/>
      <point x="1129" y="840" type="line"/>
      <point x="671" y="840" type="line"/>
      <point x="671" y="1282" type="line"/>
      <point x="536" y="1282" type="line"/>
      <point x="536" y="840" type="line"/>
      <point x="79" y="840" type="line"/>
    </contour>
  </outline>
</glyph>
<glyph name="paragraph" format="2">
  <advance width="971"/>
  <unicode hex="00B6"/>
  <outline>
    <contour>
      <point x="705" y="0" type="line"/>
      <point x="844" y="0" type="line"/>
      <point x="844" y="1447" type="line"/>
      <point x="375" y="1447" type="line" smooth="yes"/>
      <point x="191" y="1447"/>
      <point x="41" y="1309"/>
      <point x="41" y="1144" type="curve" smooth="yes"/>
      <point x="41" y="971"/>
      <point x="191" y="829"/>
      <point x="375" y="829" type="curve"/>
      <point x="375" y="0" type="line"/>
      <point x="514" y="0" type="line"/>
      <point x="514" y="1327" type="line"/>
      <point x="705" y="1327" type="line"/>
    </contour>
  </outline>
</glyph>
<glyph name="Adieresis" format="2">
  <advance width="1331"/>
  <unicode hex="00C4"/>
  <outline>
    <contour>
      <point x="356" y="1714" type="curve" smooth="yes"/>
      <point x="356" y="1657"/>
      <point x="405" y="1609"/>
      <point x="461" y="1609" type="curve" smooth="yes"/>
      <point x="517" y="1609"/>
      <point x="566" y="1657"/>
      <point x="566" y="1714" type="curve" smooth="yes"/>
      <point x="566" y="1770"/>
      <point x="517" y="1819"/>
      <point x="461" y="1819" type="curve" smooth="yes"/>
      <point x="405" y="1819"/>
      <point x="356" y="1770"/>
    </contour>
    <contour>
      <point x="769" y="1714" type="curve" smooth="yes"/>
      <point x="769" y="1657"/>
      <point x="817" y="1609"/>
      <point x="874" y="1609" type="curve" smooth="yes"/>
      <point x="930" y="1609"/>
      <point x="979" y="1657"/>
      <point x="979" y="1714" type="curve" smooth="yes"/>
      <point x="979" y="1770"/>
      <point x="930" y="1819"/>
      <point x="874" y="1819" type="curve" smooth="yes"/>
      <point x="817" y="1819"/>
      <point x="769" y="1770"/>
    </contour>
    <contour>
      <point x="547" y="1440" type="line"/>
      <point x="22" y="0" type="line"/>
      <point x="240" y="0" type="line"/>
      <point x="379" y="416" type="line"/>
      <point x="941" y="416" type="line"/>
      <point x="1091" y="0" type="line"/>
      <point x="1309" y="0" type="line"/>
      <point x="784" y="1440" type="line"/>
    </contour>
    <contour>
      <point x="664" y="1264" type="line"/>
      <point x="667" y="1264" type="line"/>
      <point x="892" y="592" type="line"/>
      <point x="439" y="592" type="line"/>
    </contour>
  </outline>
</glyph>
<glyph name="Aring" format="2">
  <advance width="1331"/>
  <unicode hex="00C5"/>
  <outline>
    <contour>
      <point x="547" y="1440" type="line"/>
      <point x="22" y="0" type="line"/>
      <point x="240" y="0" type="line"/>
      <point x="379" y="416" type="line"/>
      <point x="941" y="416" type="line"/>
      <point x="1091" y="0" type="line"/>
      <point x="1309" y="0" type="line"/>
      <point x="784" y="1440" type="line"/>
    </contour>
    <contour>
      <point x="664" y="1264" type="line"/>
      <point x="667" y="1264" type="line"/>
      <point x="892" y="592" type="line"/>
      <point x="439" y="592" type="line"/>
    </contour>
    <contour>
      <point x="502" y="1710" type="curve" smooth="yes"/>
      <point x="502" y="1620"/>
      <point x="577" y="1545"/>
      <point x="667" y="1545" type="curve" smooth="yes"/>
      <point x="757" y="1545"/>
      <point x="832" y="1620"/>
      <point x="832" y="1710" type="curve" smooth="yes"/>
      <point x="832" y="1800"/>
      <point x="757" y="1875"/>
      <point x="667" y="1875" type="curve" smooth="yes"/>
      <point x="577" y="1875"/>
      <point x="502" y="1800"/>
    </contour>
    <contour>
      <point x="566" y="1710" type="curve" smooth="yes"/>
      <point x="566" y="1766"/>
      <point x="611" y="1811"/>
      <point x="667" y="1811" type="curve" smooth="yes"/>
      <point x="724" y="1811"/>
      <point x="769" y="1766"/>
      <point x="769" y="1710" type="curve" smooth="yes"/>
      <point x="769" y="1654"/>
      <point x="724" y="1609"/>
      <point x="667" y="1609" type="curve" smooth="yes"/>
      <point x="611" y="1609"/>
      <point x="566" y="1654"/>
    </contour>
  </outline>
</glyph>
<glyph name="AE" format="2">
  <advance width="1935"/>
  <unicode hex="00C6"/>
  <outline>
    <contour>
      <point x="697" y="1440" type="line"/>
      <point x="22" y="0" type="line"/>
      <point x="240" y="0" type="line"/>
      <point x="435" y="416" type="line"/>
      <point x="814" y="416" type="line"/>
      <point x="814" y="0" type="line"/>
      <point x="1834" y="0" type="line"/>
      <point x="1834" y="176" type="line"/>
      <point x="1009" y="176" type="line"/>
      <point x="1009" y="656" type="line"/>
      <point x="1751" y="656" type="line"/>
      <point x="1751" y="832" type="line"/>
      <point x="1009" y="832" type="line"/>
      <point x="1009" y="1264" type="line"/>
      <point x="1796" y="1264" type="line"/>
      <point x="1796" y="1440" type="line"/>
    </contour>
    <contour>
      <point x="814" y="1264" type="line"/>
      <point x="814" y="592" type="line"/>
      <point x="517" y="592" type="line"/>
    </contour>
  </outline>
</glyph>
<glyph name="Ntilde" format="2">
  <advance width="1417"/>
  <unicode hex="00D1"/>
  <outline>
    <contour>
      <point x="150" y="1440" type="line"/>
      <point x="150" y="0" type="line"/>
      <point x="345" y="0" type="line"/>
      <point x="345" y="1144" type="line"/>
      <point x="352" y="1144" type="line"/>
      <point x="1031" y="0" type="line"/>
      <point x="1267" y="0" type="line"/>
      <point x="1267" y="1440" type="line"/>
      <point x="1072" y="1440" type="line"/>
      <point x="1072" y="300" type="line"/>
      <point x="1061" y="300" type="line"/>
      <point x="390" y="1440" type="line"/>
    </contour>
    <contour>
      <point x="412" y="1511" type="line"/>
      <point x="424" y="1571"/>
      <point x="446" y="1624"/>
      <point x="521" y="1624" type="curve" smooth="yes"/>
      <point x="566" y="1624"/>
      <point x="622" y="1605"/>
      <point x="682" y="1567" type="curve" smooth="yes"/>
      <point x="742" y="1530"/>
      <point x="806" y="1511"/>
      <point x="877" y="1511" type="curve" smooth="yes"/>
      <point x="1035" y="1511"/>
      <point x="1087" y="1624"/>
      <point x="1087" y="1755" type="curve"/>
      <point x="1057" y="1755" type="line"/>
      <point x="1046" y="1695"/>
      <point x="1024" y="1646"/>
      <point x="949" y="1646" type="curve" smooth="yes"/>
      <point x="904" y="1646"/>
      <point x="847" y="1661"/>
      <point x="787" y="1699" type="curve" smooth="yes"/>
      <point x="727" y="1736"/>
      <point x="664" y="1755"/>
      <point x="592" y="1755" type="curve" smooth="yes"/>
      <point x="435" y="1755"/>
      <point x="379" y="1646"/>
      <point x="379" y="1511" type="curve"/>
    </contour>
  </outline>
</glyph>
<glyph name="Ucircumflex" format="2">
  <advance width="1369"/>
  <unicode hex="00DB"/>
  <outline>
    <contour>
      <point x="574" y="1781" type="line"/>
      <point x="364" y="1504" type="line"/>
      <point x="397" y="1504" type="line"/>
      <point x="675" y="1654" type="line"/>
      <point x="952" y="1504" type="line"/>
      <point x="990" y="1504" type="line"/>
      <point x="776" y="1781" type="line"/>
    </contour>
    <contour>
      <point x="139" y="1440" type="line"/>
      <point x="139" y="480" type="line" smooth="yes"/>
      <point x="139" y="139"/>
      <point x="420" y="-41"/>
      <point x="675" y="-41" type="curve" smooth="yes"/>
      <point x="941" y="-41"/>
      <point x="1230" y="139"/>
      <point x="1230" y="480" type="curve" smooth="yes"/>
      <point x="1230" y="1440" type="line"/>
      <point x="1035" y="1440" type="line"/>
      <point x="1035" y="450" type="line" smooth="yes"/>
      <point x="1035" y="244"/>
      <point x="847" y="139"/>
      <point x="675" y="139" type="curve" smooth="yes"/>
      <point x="514" y="139"/>
      <point x="334" y="240"/>
      <point x="334" y="450" type="curve" smooth="yes"/>
      <point x="334" y="1440" type="line"/>
    </contour>
  </outline>
</glyph>
<glyph name="iacute" format="2">
  <advance width="431"/>
  <unicode hex="00ED"/>
  <outline>
    <contour>
      <point x="431" y="1474" type="line"/>
      <point x="165" y="1474" type="line"/>
      <point x="52" y="1099" type="line"/>
      <point x="109" y="1099" type="line"/>
    </contour>
    <contour>
      <point x="127" y="1039" type="line"/>
      <point x="127" y="0" type="line"/>
      <point x="304" y="0" type="line"/>
      <point x="304" y="1039" type="line"/>
    </contour>
  </outline>
</glyph>
<glyph name="icircumflex" format="2">
  <advance width="431"/>
  <unicode hex="00EE"/>
  <outline>
    <contour>
      <point x="116" y="1474" type="line"/>
      <point x="0" y="1121" type="line"/>
      <point x="34" y="1121" type="line"/>
      <point x="217" y="1346" type="line"/>
      <point x="394" y="1121" type="line"/>
      <point x="431" y="1121" type="line"/>
      <point x="319" y="1474" type="line"/>
    </contour>
    <contour>
      <point x="127" y="1039" type="line"/>
      <point x="127" y="0" type="line"/>
      <point x="304" y="0" type="line"/>
      <point x="304" y="1039" type="line"/>
    </contour>
  </outline>
</glyph>
<glyph name="divide" format="2">
  <advance width="1050"/>
  <unicode hex="00F7"/>
  <outline>
    <contour>
      <point x="150" y="720" type="line"/>
      <point x="150" y="570" type="line"/>
      <point x="900" y="570" type="line"/>
      <point x="900" y="720" type="line"/>
    </contour>
    <contour>
      <point x="517" y="1106" type="curve" smooth="yes"/>
      <point x="454" y="1106"/>
      <point x="401" y="1054"/>
      <point x="401" y="990" type="curve" smooth="yes"/>
      <point x="401" y="926"/>
      <point x="454" y="877"/>
      <point x="517" y="877" type="curve" smooth="yes"/>
      <point x="585" y="877"/>
      <point x="637" y="926"/>
      <point x="637" y="990" type="curve" smooth="yes"/>
      <point x="637" y="1054"/>
      <point x="585" y="1106"/>
    </contour>
    <contour>
      <point x="517" y="412" type="curve" smooth="yes"/>
      <point x="454" y="412"/>
      <point x="401" y="360"/>
      <point x="401" y="296" type="curve" smooth="yes"/>
      <point x="401" y="236"/>
      <point x="454" y="184"/>
      <point x="517" y="184" type="curve" smooth="yes"/>
      <point x="585" y="184"/>
      <point x="637" y="236"/>
      <point x="637" y="296" type="curve" smooth="yes"/>
      <point x="637" y="360"/>
      <point x="585" y="412"/>
    </contour>
  </outline>
</glyph>
<glyph name="uni0102" format="2">
  <advance width="1331"/>
  <unicode hex="0102"/>
  <outline>
    <component base="A"/>
    <contour>
      <point x="834" y="1850" type="line"/>
      <point x="834" y="1756"/>
      <point x="754" y="1700"/>
      <point x="664" y="1700" type="curve" smooth="yes"/>
      <point x="574" y="1700"/>
      <point x="494" y="1756"/>
      <point x="494" y="1850" type="curve"/>
      <point x="344" y="1850" type="line"/>
      <point x="344" y="1632"/>
      <point x="539" y="1550"/>
      <point x="664" y="1550" type="curve" smooth="yes"/>
      <point x="789" y="1550"/>
      <point x="984" y="1632"/>
      <point x="984" y="1850" type="curve"/>
    </contour>
  </outline>
</glyph>
<glyph name="uni010C" format="2">
  <advance width="1414"/>
  <unicode hex="010C"/>
  <outline>
    <component base="C"/>
    <contour>
      <point x="828" y="1584" type="line"/>
      <point x="1038" y="1861" type="line"/>
      <point x="1004" y="1861" type="line"/>
      <point x="727" y="1711" type="line"/>
      <point x="449" y="1861" type="line"/>
      <point x="412" y="1861" type="line"/>
      <point x="625" y="1584" type="line"/>
    </contour>
  </outline>
</glyph>
<glyph name="uni012C" format="2">
  <advance width="510"/>
  <unicode hex="012C"/>
  <outline>
    <contour>
      <point x="157" y="1440" type="line"/>
      <point x="157" y="0" type="line"/>
      <point x="352" y="0" type="line"/>
      <point x="352" y="1440" type="line"/>
    </contour>
    <contour>
      <point x="426" y="1850" type="line"/>
      <point x="426" y="1756"/>
      <point x="346" y="1700"/>
      <point x="256" y="1700" type="curve" smooth="yes"/>
      <point x="166" y="1700"/>
      <point x="86" y="1756"/>
      <point x="86" y="1850" type="curve"/>
      <point x="-64" y="1850" type="line"/>
      <point x="-64" y="1632"/>
      <point x="131" y="1550"/>
      <point x="256" y="1550" type="curve" smooth="yes"/>
      <point x="381" y="1550"/>
      <point x="576" y="1632"/>
      <point x="576" y="1850" type="curve"/>
    </contour>
  </outline>
</glyph>
<glyph name="eng" format="2">
  <advance width="1095"/>
  <unicode hex="014B"/>
  <outline>
    <contour>
      <point x="136" y="-150" type="line"/>
      <point x="208" y="-363"/>
      <point x="361" y="-443"/>
      <point x="543" y="-443" type="curve" smooth="yes"/>
      <point x="753" y="-443"/>
      <point x="967" y="-289"/>
      <point x="967" y="0" type="curve" smooth="yes"/>
      <point x="967" y="776" type="line" smooth="yes"/>
      <point x="967" y="945"/>
      <point x="825" y="1057"/>
      <point x="626" y="1057" type="curve" smooth="yes"/>
      <point x="506" y="1057"/>
      <point x="375" y="1009"/>
      <point x="304" y="900" type="curve"/>
      <point x="304" y="1039" type="line"/>
      <point x="127" y="1039" type="line"/>
      <point x="127" y="0" type="line"/>
      <point x="304" y="0" type="line"/>
      <point x="304" y="671" type="line"/>
      <point x="334" y="799"/>
      <point x="480" y="904"/>
      <point x="611" y="904" type="curve" smooth="yes"/>
      <point x="690" y="904"/>
      <point x="791" y="825"/>
      <point x="791" y="716" type="curve" smooth="yes"/>
      <point x="791" y="-23" type="line" smooth="yes"/>
      <point x="791" y="-169"/>
      <point x="679" y="-296"/>
      <point x="539" y="-296" type="curve" smooth="yes"/>
      <point x="428" y="-296"/>
      <point x="368" y="-270"/>
      <point x="312" y="-150" type="curve"/>
    </contour>
  </outline>
</glyph>
<glyph name="oe" format="2">
  <advance width="1710"/>
  <unicode hex="0153"/>
  <outline>
    <contour>
      <point x="1642" y="480" type="line"/>
      <point x="1642" y="551" type="line" smooth="yes"/>
      <point x="1642" y="844"/>
      <point x="1462" y="1057"/>
      <point x="1215" y="1057" type="curve" smooth="yes"/>
      <point x="1061" y="1057"/>
      <point x="949" y="975"/>
      <point x="866" y="851" type="curve"/>
      <point x="787" y="975"/>
      <point x="690" y="1057"/>
      <point x="517" y="1057" type="curve" smooth="yes"/>
      <point x="244" y="1057"/>
      <point x="67" y="810"/>
      <point x="67" y="517" type="curve" smooth="yes"/>
      <point x="67" y="217"/>
      <point x="244" y="-19"/>
      <point x="514" y="-19" type="curve" smooth="yes"/>
      <point x="690" y="-19"/>
      <point x="787" y="60"/>
      <point x="870" y="191" type="curve"/>
      <point x="952" y="64"/>
      <point x="1065" y="-19"/>
      <point x="1215" y="-19" type="curve" smooth="yes"/>
      <point x="1395" y="-19"/>
      <point x="1586" y="109"/>
      <point x="1620" y="337" type="curve"/>
      <point x="1462" y="337" type="line"/>
      <point x="1417" y="202"/>
      <point x="1324" y="131"/>
      <point x="1215" y="131" type="curve" smooth="yes"/>
      <point x="1084" y="131"/>
      <point x="960" y="304"/>
      <point x="960" y="480" type="curve"/>
    </contour>
    <contour>
      <point x="517" y="904" type="curve" smooth="yes"/>
      <point x="656" y="904"/>
      <point x="776" y="746"/>
      <point x="776" y="536" type="curve" smooth="yes"/>
      <point x="776" y="517" type="line" smooth="yes"/>
      <point x="776" y="281"/>
      <point x="675" y="135"/>
      <point x="514" y="135" type="curve" smooth="yes"/>
      <point x="356" y="135"/>
      <point x="251" y="281"/>
      <point x="251" y="517" type="curve" smooth="yes"/>
      <point x="251" y="746"/>
      <point x="360" y="904"/>
    </contour>
    <contour>
      <point x="960" y="619" type="line"/>
      <point x="960" y="765"/>
      <point x="1076" y="904"/>
      <point x="1207" y="904" type="curve" smooth="yes"/>
      <point x="1350" y="904"/>
      <point x="1462" y="780"/>
      <point x="1462" y="619" type="curve"/>
    </contour>
  </outline>
</glyph>
<glyph name="Zcaron" format="2">
  <advance width="1219"/>
  <unicode hex="017D"/>
  <outline>
    <contour>
      <point x="705" y="1504" type="line"/>
      <point x="915" y="1781" type="line"/>
      <point x="881" y="1781" type="line"/>
      <point x="604" y="1631" type="line"/>
      <point x="326" y="1781" type="line"/>
      <point x="289" y="1781" type="line"/>
      <point x="502" y="1504" type="line"/>
    </contour>
    <contour>
      <point x="109" y="1440" type="line"/>
      <point x="109" y="1264" type="line"/>
      <point x="915" y="1264" type="line"/>
      <point x="915" y="1260" type="line"/>
      <point x="49" y="180" type="line"/>
      <point x="49" y="0" type="line"/>
      <point x="1147" y="0" type="line"/>
      <point x="1147" y="176" type="line"/>
      <point x="296" y="176" type="line"/>
      <point x="296" y="180" type="line"/>
      <point x="1147" y="1237" type="line"/>
      <point x="1147" y="1440" type="line"/>
    </contour>
  </outline>
</glyph>
<glyph name="florin" format="2">
  <advance width="840"/>
  <unicode hex="0192"/>
  <outline>
    <contour>
      <point x="154" y="-150" type="line"/>
      <point x="142" y="-225"/>
      <point x="105" y="-289"/>
      <point x="37" y="-289" type="curve" smooth="yes"/>
      <point x="11" y="-289"/>
      <point x="-11" y="-278"/>
      <point x="-30" y="-274" type="curve"/>
      <point x="-56" y="-420" type="line"/>
      <point x="-38" y="-439"/>
      <point x="4" y="-443"/>
      <point x="30" y="-443" type="curve" smooth="yes"/>
      <point x="172" y="-443"/>
      <point x="298" y="-357"/>
      <point x="330" y="-176" type="curve" smooth="yes"/>
      <point x="517" y="889" type="line"/>
      <point x="690" y="889" type="line"/>
      <point x="720" y="1039" type="line"/>
      <point x="544" y="1039" type="line"/>
      <point x="577" y="1230" type="line" smooth="yes"/>
      <point x="586" y="1282"/>
      <point x="634" y="1331"/>
      <point x="694" y="1331" type="curve" smooth="yes"/>
      <point x="716" y="1331"/>
      <point x="761" y="1316"/>
      <point x="776" y="1301" type="curve"/>
      <point x="802" y="1444" type="line"/>
      <point x="772" y="1462"/>
      <point x="716" y="1485"/>
      <point x="671" y="1485" type="curve" smooth="yes"/>
      <point x="532" y="1485"/>
      <point x="430" y="1399"/>
      <point x="409" y="1279" type="curve" smooth="yes"/>
      <point x="367" y="1039" type="line"/>
      <point x="191" y="1039" type="line"/>
      <point x="161" y="889" type="line"/>
      <point x="337" y="889" type="line"/>
    </contour>
  </outline>
</glyph>
<glyph name="uni01C1" format="2">
  <advance width="1064"/>
  <unicode hex="01C1"/>
  <outline>
    <contour>
      <point x="228" y="0" type="line"/>
      <point x="418" y="0" type="line"/>
      <point x="418" y="1607" type="line"/>
      <point x="228" y="1607" type="line"/>
    </contour>
    <contour>
      <point x="646" y="0" type="line"/>
      <point x="836" y="0" type="line"/>
      <point x="836" y="1607" type="line"/>
      <point x="646" y="1607" type="line"/>
    </contour>
  </outline>
</glyph>
<glyph name="uni01C3" format="2">
  <advance width="739"/>
  <unicode hex="01C3"/>
  <outline>
    <contour>
      <point x="306" y="313" type="curve"/>
      <point x="431" y="313" type="line"/>
      <point x="492" y="627"/>
      <point x="511" y="1017"/>
      <point x="511" y="1332" type="curve" smooth="yes"/>
      <point x="511" y="1395"/>
      <point x="448" y="1457"/>
      <point x="369" y="1457" type="curve" smooth="yes"/>
      <point x="291" y="1457"/>
      <point x="228" y="1395"/>
      <point x="228" y="1332" type="curve" smooth="yes"/>
      <point x="228" y="1017"/>
      <point x="247" y="627"/>
    </contour>
    <contour>
      <point x="256" y="112" type="curve" smooth="yes"/>
      <point x="256" y="53"/>
      <point x="310" y="0"/>
      <point x="369" y="0" type="curve" smooth="yes"/>
      <point x="429" y="0"/>
      <point x="483" y="53"/>
      <point x="483" y="112" type="curve" smooth="yes"/>
      <point x="483" y="173"/>
      <point x="429" y="226"/>
      <point x="369" y="226" type="curve" smooth="yes"/>
      <point x="310" y="226"/>
      <point x="256" y="173"/>
    </contour>
  </outline>
</glyph>
<glyph name="uni0212" format="2">
  <advance width="1339"/>
  <unicode hex="0212"/>
  <outline>
    <component base="R"/>
    <contour>
      <point x="180" y="1530" type="line"/>
      <point x="222" y="1586"/>
      <point x="397" y="1671"/>
      <point x="607" y="1671" type="curve" smooth="yes"/>
      <point x="816" y="1671"/>
      <point x="992" y="1586"/>
      <point x="1034" y="1530" type="curve"/>
      <point x="1072" y="1530" type="line"/>
      <point x="1033" y="1624"/>
      <point x="862" y="1798"/>
      <point x="607" y="1798" type="curve" smooth="yes"/>
      <point x="351" y="1798"/>
      <point x="185" y="1624"/>
      <point x="146" y="1530" type="curve"/>
    </contour>
  </outline>
</glyph>
<glyph name="uni0213" format="2">
  <advance width="634"/>
  <unicode hex="0213"/>
  <outline>
    <component base="r"/>
    <contour>
      <point x="100" y="1200" type="line"/>
      <point x="122" y="1256"/>
      <point x="227" y="1341"/>
      <point x="377" y="1341" type="curve" smooth="yes"/>
      <point x="526" y="1341"/>
      <point x="632" y="1256"/>
      <point x="654" y="1200" type="curve"/>
      <point x="692" y="1200" type="line"/>
      <point x="673" y="1294"/>
      <point x="582" y="1468"/>
      <point x="377" y="1468" type="curve" smooth="yes"/>
      <point x="171" y="1468"/>
      <point x="85" y="1294"/>
      <point x="66" y="1200" type="curve"/>
    </contour>
  </outline>
</glyph>
<glyph name="uni0248" format="2">
  <advance width="986"/>
  <unicode hex="0248"/>
  <outline>
    <contour>
      <point x="425" y="728" type="line"/>
      <point x="425" y="550" type="line"/>
      <point x="966" y="550" type="line"/>
      <point x="966" y="728" type="line"/>
    </contour>
    <contour>
      <point x="645" y="1440" type="line"/>
      <point x="645" y="341" type="line" smooth="yes"/>
      <point x="645" y="195"/>
      <point x="517" y="139"/>
      <point x="427" y="139" type="curve" smooth="yes"/>
      <point x="322" y="139"/>
      <point x="217" y="202"/>
      <point x="217" y="337" type="curve" smooth="yes"/>
      <point x="217" y="480" type="line"/>
      <point x="22" y="480" type="line"/>
      <point x="22" y="304" type="line" smooth="yes"/>
      <point x="22" y="82"/>
      <point x="217" y="-41"/>
      <point x="427" y="-41" type="curve" smooth="yes"/>
      <point x="641" y="-41"/>
      <point x="840" y="112"/>
      <point x="840" y="319" type="curve" smooth="yes"/>
      <point x="840" y="1440" type="line"/>
    </contour>
  </outline>
</glyph>
<glyph name="uni0249" format="2">
  <advance width="431"/>
  <unicode hex="0249"/>
  <outline>
    <contour>
      <point x="127" y="1447" type="line"/>
      <point x="127" y="1249" type="line"/>
      <point x="304" y="1249" type="line"/>
      <point x="304" y="1447" type="line"/>
    </contour>
    <contour>
      <point x="127" y="1039" type="line"/>
      <point x="127" y="-150" type="line" smooth="yes"/>
      <point x="127" y="-225"/>
      <point x="97" y="-289"/>
      <point x="30" y="-289" type="curve" smooth="yes"/>
      <point x="7" y="-289"/>
      <point x="-19" y="-278"/>
      <point x="-38" y="-274" type="curve"/>
      <point x="-38" y="-420" type="line"/>
      <point x="-15" y="-439"/>
      <point x="26" y="-443"/>
      <point x="56" y="-443" type="curve" smooth="yes"/>
      <point x="195" y="-443"/>
      <point x="304" y="-356"/>
      <point x="304" y="-176" type="curve" smooth="yes"/>
      <point x="304" y="1039" type="line"/>
    </contour>
    <contour>
      <point x="20" y="680" type="line"/>
      <point x="20" y="530" type="line"/>
      <point x="411" y="530" type="line"/>
      <point x="411" y="680" type="line"/>
    </contour>
  </outline>
</glyph>
<glyph name="uni024F" format="2">
  <advance width="979"/>
  <unicode hex="024F"/>
  <outline>
    <contour>
      <point x="60" y="573" type="line"/>
      <point x="60" y="451" type="line"/>
      <point x="919" y="451" type="line"/>
      <point x="919" y="573" type="line"/>
    </contour>
    <contour>
      <point x="19" y="1042" type="line"/>
      <point x="401" y="0" type="line"/>
      <point x="360" y="-139" type="line" smooth="yes"/>
      <point x="345" y="-188"/>
      <point x="311" y="-289"/>
      <point x="240" y="-289" type="curve" smooth="yes"/>
      <point x="199" y="-289"/>
      <point x="172" y="-289"/>
      <point x="139" y="-270" type="curve"/>
      <point x="139" y="-420" type="line"/>
      <point x="176" y="-435"/>
      <point x="221" y="-443"/>
      <point x="259" y="-443" type="curve" smooth="yes"/>
      <point x="341" y="-443"/>
      <point x="440" y="-384"/>
      <point x="502" y="-214" type="curve" smooth="yes"/>
      <point x="960" y="1042" type="line"/>
      <point x="765" y="1042" type="line"/>
      <point x="491" y="221" type="line"/>
      <point x="487" y="221" type="line"/>
      <point x="217" y="1042" type="line"/>
    </contour>
  </outline>
</glyph>
<glyph name="uni0259" format="2">
  <advance width="1090"/>
  <unicode hex="0259"/>
  <outline>
    <contour>
      <point x="74" y="558" type="line"/>
      <point x="74" y="487" type="line" smooth="yes"/>
      <point x="74" y="194"/>
      <point x="254" y="-19"/>
      <point x="539" y="-19" type="curve" smooth="yes"/>
      <point x="831" y="-19"/>
      <point x="1015" y="228"/>
      <point x="1015" y="502" type="curve" smooth="yes"/>
      <point x="1015" y="802"/>
      <point x="831" y="1057"/>
      <point x="539" y="1057" type="curve" smooth="yes"/>
      <point x="321" y="1057"/>
      <point x="130" y="929"/>
      <point x="96" y="701" type="curve"/>
      <point x="254" y="701" type="line"/>
      <point x="299" y="836"/>
      <point x="393" y="907"/>
      <point x="539" y="907" type="curve" smooth="yes"/>
      <point x="708" y="907"/>
      <point x="831" y="734"/>
      <point x="831" y="558" type="curve"/>
    </contour>
    <contour>
      <point x="831" y="419" type="line"/>
      <point x="831" y="273"/>
      <point x="715" y="134"/>
      <point x="546" y="134" type="curve" smooth="yes"/>
      <point x="366" y="134"/>
      <point x="254" y="258"/>
      <point x="254" y="419" type="curve"/>
    </contour>
  </outline>
</glyph>
<glyph name="uni025E" format="2">
  <advance width="1002"/>
  <unicode hex="025E"/>
  <guideline x="0" y="992" angle="0"/>
  <guideline x="0" y="496" angle="0"/>
  <guideline x="0" y="-23" angle="0"/>
  <outline>
    <contour>
      <point x="75" y="538" type="curve" smooth="yes"/>
      <point x="75" y="208"/>
      <point x="261" y="-19"/>
      <point x="531" y="-19" type="curve" smooth="yes"/>
      <point x="751" y="-19"/>
      <point x="927" y="111"/>
      <point x="927" y="298" type="curve" smooth="yes"/>
      <point x="927" y="408"/>
      <point x="866" y="498"/>
      <point x="806" y="538" type="curve"/>
      <point x="866" y="578"/>
      <point x="917" y="648"/>
      <point x="917" y="758" type="curve" smooth="yes"/>
      <point x="917" y="938"/>
      <point x="751" y="1057"/>
      <point x="541" y="1057" type="curve" smooth="yes"/>
      <point x="261" y="1057"/>
      <point x="75" y="813"/>
    </contour>
    <contour>
      <point x="537" y="907" type="curve" smooth="yes"/>
      <point x="675" y="907"/>
      <point x="733" y="838"/>
      <point x="733" y="758" type="curve" smooth="yes"/>
      <point x="733" y="673"/>
      <point x="642" y="623"/>
      <point x="532" y="623" type="curve" smooth="yes"/>
      <point x="467" y="623" type="line"/>
      <point x="467" y="453" type="line"/>
      <point x="532" y="453" type="line" smooth="yes"/>
      <point x="642" y="453"/>
      <point x="743" y="398"/>
      <point x="743" y="298" type="curve" smooth="yes"/>
      <point x="743" y="192"/>
      <point x="641" y="131"/>
      <point x="531" y="131" type="curve" smooth="yes"/>
      <point x="321" y="131"/>
      <point x="235" y="360"/>
      <point x="235" y="538" type="curve" smooth="yes"/>
      <point x="235" y="711"/>
      <point x="347" y="907"/>
    </contour>
  </outline>
</glyph>
<glyph name="uni0261" format="2">
  <advance width="1078"/>
  <unicode hex="0261"/>
  <guideline x="0" y="1057" angle="0"/>
  <outline>
    <contour>
      <point x="802" y="1039" type="line"/>
      <point x="802" y="904" type="line"/>
      <point x="727" y="997"/>
      <point x="626" y="1057"/>
      <point x="502" y="1057" type="curve" smooth="yes"/>
      <point x="202" y="1057"/>
      <point x="67" y="814"/>
      <point x="67" y="532" type="curve" smooth="yes"/>
      <point x="67" y="259"/>
      <point x="206" y="-19"/>
      <point x="506" y="-19" type="curve" smooth="yes"/>
      <point x="630" y="-19"/>
      <point x="720" y="30"/>
      <point x="799" y="139" type="curve"/>
      <point x="802" y="139" type="line"/>
      <point x="802" y="-23" type="line" smooth="yes"/>
      <point x="802" y="-169"/>
      <point x="679" y="-296"/>
      <point x="532" y="-296" type="curve" smooth="yes"/>
      <point x="405" y="-296"/>
      <point x="337" y="-266"/>
      <point x="277" y="-120" type="curve"/>
      <point x="105" y="-120" type="line"/>
      <point x="172" y="-356"/>
      <point x="337" y="-443"/>
      <point x="536" y="-443" type="curve" smooth="yes"/>
      <point x="754" y="-443"/>
      <point x="975" y="-289"/>
      <point x="975" y="0" type="curve" smooth="yes"/>
      <point x="975" y="1039" type="line"/>
    </contour>
    <contour>
      <point x="536" y="904" type="curve" smooth="yes"/>
      <point x="750" y="904"/>
      <point x="802" y="731"/>
      <point x="802" y="536" type="curve" smooth="yes"/>
      <point x="802" y="345"/>
      <point x="761" y="131"/>
      <point x="532" y="131" type="curve" smooth="yes"/>
      <point x="319" y="131"/>
      <point x="251" y="341"/>
      <point x="251" y="532" type="curve" smooth="yes"/>
      <point x="251" y="705"/>
      <point x="326" y="904"/>
    </contour>
  </outline>
</glyph>
<glyph name="uni0267" format="2">
  <advance width="1090"/>
  <unicode hex="0267"/>
  <outline>
    <contour>
      <point x="126" y="1447" type="line"/>
      <point x="126" y="0" type="line"/>
      <point x="303" y="0" type="line"/>
      <point x="303" y="660" type="line" smooth="yes"/>
      <point x="303" y="799"/>
      <point x="456" y="904"/>
      <point x="588" y="904" type="curve" smooth="yes"/>
      <point x="696" y="904"/>
      <point x="794" y="866"/>
      <point x="794" y="731" type="curve" smooth="yes"/>
      <point x="794" y="-23" type="line" smooth="yes"/>
      <point x="794" y="-169"/>
      <point x="682" y="-296"/>
      <point x="542" y="-296" type="curve" smooth="yes"/>
      <point x="431" y="-296"/>
      <point x="371" y="-270"/>
      <point x="315" y="-150" type="curve"/>
      <point x="139" y="-150" type="line"/>
      <point x="211" y="-363"/>
      <point x="364" y="-443"/>
      <point x="546" y="-443" type="curve" smooth="yes"/>
      <point x="756" y="-443"/>
      <point x="970" y="-289"/>
      <point x="970" y="0" type="curve" smooth="yes"/>
      <point x="970" y="784" type="line" smooth="yes"/>
      <point x="970" y="956"/>
      <point x="839" y="1057"/>
      <point x="636" y="1057" type="curve" smooth="yes"/>
      <point x="501" y="1057"/>
      <point x="396" y="1020"/>
      <point x="303" y="904" type="curve"/>
      <point x="303" y="1447" type="line"/>
    </contour>
  </outline>
</glyph>
<glyph name="uni0269" format="2">
  <advance width="529"/>
  <unicode hex="0269"/>
  <outline>
    <contour>
      <point x="127" y="1039" type="line"/>
      <point x="127" y="225" type="line" smooth="yes"/>
      <point x="127" y="90"/>
      <point x="185" y="0"/>
      <point x="305" y="0" type="curve" smooth="yes"/>
      <point x="426" y="0"/>
      <point x="463" y="56"/>
      <point x="509" y="152" type="curve"/>
      <point x="475" y="170" type="line"/>
      <point x="460" y="137"/>
      <point x="424" y="116"/>
      <point x="391" y="116" type="curve" smooth="yes"/>
      <point x="346" y="116"/>
      <point x="304" y="148"/>
      <point x="304" y="225" type="curve" smooth="yes"/>
      <point x="304" y="1039" type="line"/>
    </contour>
  </outline>
</glyph>
<glyph name="uni026B" format="2">
  <advance width="745"/>
  <unicode hex="026B"/>
  <outline>
    <contour>
      <point x="52" y="610" type="line"/>
      <point x="64" y="670"/>
      <point x="86" y="759"/>
      <point x="161" y="759" type="curve" smooth="yes"/>
      <point x="195" y="759"/>
      <point x="236" y="737"/>
      <point x="281" y="710" type="curve"/>
      <point x="281" y="0" type="line"/>
      <point x="457" y="0" type="line"/>
      <point x="457" y="618" type="line"/>
      <point x="476" y="613"/>
      <point x="496" y="610"/>
      <point x="516" y="610" type="curve" smooth="yes"/>
      <point x="674" y="610"/>
      <point x="726" y="759"/>
      <point x="726" y="890" type="curve"/>
      <point x="696" y="890" type="line"/>
      <point x="685" y="831"/>
      <point x="663" y="745"/>
      <point x="588" y="745" type="curve" smooth="yes"/>
      <point x="550" y="745"/>
      <point x="506" y="767"/>
      <point x="457" y="797" type="curve"/>
      <point x="457" y="1440" type="line"/>
      <point x="281" y="1440" type="line"/>
      <point x="281" y="884" type="line"/>
      <point x="265" y="888"/>
      <point x="248" y="890"/>
      <point x="232" y="890" type="curve" smooth="yes"/>
      <point x="75" y="890"/>
      <point x="19" y="745"/>
      <point x="19" y="610" type="curve"/>
    </contour>
  </outline>
</glyph>
<glyph name="uni026C" format="2">
  <advance width="763"/>
  <unicode hex="026C"/>
  <outline>
    <contour>
      <point x="491" y="1440" type="line"/>
      <point x="314" y="1440" type="line"/>
      <point x="314" y="977" type="line"/>
      <point x="290" y="986"/>
      <point x="265" y="992"/>
      <point x="239" y="992" type="curve" smooth="yes"/>
      <point x="193" y="992"/>
      <point x="148" y="979"/>
      <point x="115" y="953" type="curve"/>
      <point x="79" y="923"/>
      <point x="56" y="876"/>
      <point x="56" y="821" type="curve" smooth="yes"/>
      <point x="56" y="771"/>
      <point x="75" y="722"/>
      <point x="113" y="684" type="curve"/>
      <point x="154" y="645"/>
      <point x="212" y="618"/>
      <point x="314" y="618" type="curve"/>
      <point x="314" y="0" type="line"/>
      <point x="491" y="0" type="line"/>
      <point x="491" y="644" type="line"/>
      <point x="586" y="668"/>
      <point x="680" y="747"/>
      <point x="698" y="776" type="curve" smooth="yes"/>
      <point x="705" y="787"/>
      <point x="707" y="797"/>
      <point x="707" y="805" type="curve" smooth="yes"/>
      <point x="707" y="825"/>
      <point x="688" y="834"/>
      <point x="672" y="834" type="curve" smooth="yes"/>
      <point x="661" y="834"/>
      <point x="649" y="831"/>
      <point x="644" y="823" type="curve"/>
      <point x="609" y="779"/>
      <point x="553" y="743"/>
      <point x="491" y="720" type="curve"/>
    </contour>
    <contour>
      <point x="161" y="739" type="curve" smooth="yes"/>
      <point x="137" y="763"/>
      <point x="127" y="795"/>
      <point x="127" y="823" type="curve" smooth="yes"/>
      <point x="127" y="855"/>
      <point x="139" y="878"/>
      <point x="158" y="894" type="curve" smooth="yes"/>
      <point x="177" y="911"/>
      <point x="206" y="921"/>
      <point x="239" y="921" type="curve" smooth="yes"/>
      <point x="266" y="921"/>
      <point x="291" y="912"/>
      <point x="314" y="898" type="curve"/>
      <point x="314" y="688" type="line"/>
      <point x="237" y="688"/>
      <point x="189" y="709"/>
    </contour>
  </outline>
</glyph>
<glyph name="uni026D" format="2">
  <advance width="785"/>
  <unicode hex="026D"/>
  <outline>
    <contour>
      <point x="303" y="1440" type="line"/>
      <point x="127" y="1440" type="line"/>
      <point x="127" y="0" type="line" smooth="yes"/>
      <point x="127" y="-289"/>
      <point x="208" y="-443"/>
      <point x="448" y="-443" type="curve" smooth="yes"/>
      <point x="640" y="-443"/>
      <point x="759" y="-321"/>
      <point x="785" y="-150" type="curve"/>
      <point x="609" y="-150" type="line"/>
      <point x="589" y="-261"/>
      <point x="522" y="-296"/>
      <point x="441" y="-296" type="curve" smooth="yes"/>
      <point x="341" y="-296"/>
      <point x="303" y="-199"/>
      <point x="303" y="-23" type="curve" smooth="yes"/>
    </contour>
  </outline>
</glyph>
<glyph name="uni0271" format="2">
  <advance width="1661"/>
  <unicode hex="0271"/>
  <outline>
    <contour>
      <point x="1369" y="724" type="curve"/>
      <point x="1369" y="-23" type="line" smooth="yes"/>
      <point x="1369" y="-169"/>
      <point x="1273" y="-296"/>
      <point x="1133" y="-296" type="curve" smooth="yes"/>
      <point x="1022" y="-296"/>
      <point x="968" y="-248"/>
      <point x="922" y="-150" type="curve"/>
      <point x="746" y="-150" type="line"/>
      <point x="818" y="-363"/>
      <point x="955" y="-443"/>
      <point x="1137" y="-443" type="curve" smooth="yes"/>
      <point x="1347" y="-443"/>
      <point x="1541" y="-289"/>
      <point x="1541" y="0" type="curve" smooth="yes"/>
      <point x="1541" y="784" type="line" smooth="yes"/>
      <point x="1541" y="949"/>
      <point x="1402" y="1061"/>
      <point x="1207" y="1061" type="curve" smooth="yes"/>
      <point x="1087" y="1061"/>
      <point x="960" y="1005"/>
      <point x="889" y="900" type="curve"/>
      <point x="825" y="1005"/>
      <point x="720" y="1057"/>
      <point x="607" y="1057" type="curve" smooth="yes"/>
      <point x="491" y="1057"/>
      <point x="375" y="1005"/>
      <point x="304" y="900" type="curve"/>
      <point x="304" y="1039" type="line"/>
      <point x="127" y="1039" type="line"/>
      <point x="127" y="0" type="line"/>
      <point x="304" y="0" type="line"/>
      <point x="304" y="675" type="line" smooth="yes"/>
      <point x="304" y="787"/>
      <point x="446" y="904"/>
      <point x="566" y="904" type="curve" smooth="yes"/>
      <point x="641" y="904"/>
      <point x="746" y="855"/>
      <point x="746" y="724" type="curve" smooth="yes"/>
      <point x="746" y="0" type="line"/>
      <point x="922" y="0" type="line"/>
      <point x="922" y="675" type="line" smooth="yes"/>
      <point x="922" y="787"/>
      <point x="1065" y="904"/>
      <point x="1185" y="904" type="curve" smooth="yes"/>
      <point x="1264" y="904"/>
      <point x="1369" y="855"/>
    </contour>
  </outline>
</glyph>
<glyph name="uni0274" format="2">
  <advance width="1097"/>
  <unicode hex="0274"/>
  <guideline x="916" y="0" angle="120.541"/>
  <outline>
    <contour>
      <point x="127" y="1039" type="line"/>
      <point x="127" y="0" type="line"/>
      <point x="304" y="0" type="line"/>
      <point x="304" y="746" type="line"/>
      <point x="309" y="746" type="line"/>
      <point x="763" y="0" type="line"/>
      <point x="970" y="0" type="line"/>
      <point x="970" y="1039" type="line"/>
      <point x="793" y="1039" type="line"/>
      <point x="793" y="241" type="line"/>
      <point x="785" y="241" type="line"/>
      <point x="300" y="1039" type="line"/>
    </contour>
  </outline>
</glyph>
<glyph name="uni027B" format="2">
  <advance width="644"/>
  <unicode hex="027B"/>
  <outline>
    <contour>
      <point x="507" y="1039" type="line"/>
      <point x="330" y="1039" type="line"/>
      <point x="330" y="390" type="line" smooth="yes"/>
      <point x="330" y="255"/>
      <point x="240" y="158"/>
      <point x="87" y="158" type="curve" smooth="yes"/>
      <point x="60" y="158"/>
      <point x="45" y="162"/>
      <point x="8" y="169" type="curve"/>
      <point x="8" y="0" type="line"/>
      <point x="30" y="-15"/>
      <point x="57" y="-18"/>
      <point x="87" y="-18" type="curve" smooth="yes"/>
      <point x="210" y="-18"/>
      <point x="274" y="38"/>
      <point x="330" y="135" type="curve"/>
      <point x="330" y="0" type="line" smooth="yes"/>
      <point x="330" y="-289"/>
      <point x="411" y="-443"/>
      <point x="651" y="-443" type="curve" smooth="yes"/>
      <point x="843" y="-443"/>
      <point x="962" y="-321"/>
      <point x="988" y="-150" type="curve"/>
      <point x="812" y="-150" type="line"/>
      <point x="792" y="-261"/>
      <point x="725" y="-296"/>
      <point x="644" y="-296" type="curve" smooth="yes"/>
      <point x="544" y="-296"/>
      <point x="507" y="-199"/>
      <point x="507" y="-23" type="curve" smooth="yes"/>
    </contour>
  </outline>
</glyph>
<glyph name="uni027D" format="2">
  <advance width="634"/>
  <unicode hex="027D"/>
  <outline>
    <contour>
      <point x="127" y="0" type="line" smooth="yes"/>
      <point x="127" y="-289"/>
      <point x="208" y="-443"/>
      <point x="448" y="-443" type="curve" smooth="yes"/>
      <point x="640" y="-443"/>
      <point x="759" y="-321"/>
      <point x="785" y="-150" type="curve"/>
      <point x="609" y="-150" type="line"/>
      <point x="589" y="-261"/>
      <point x="522" y="-296"/>
      <point x="441" y="-296" type="curve" smooth="yes"/>
      <point x="341" y="-296"/>
      <point x="304" y="-199"/>
      <point x="304" y="-23" type="curve" smooth="yes"/>
      <point x="304" y="649" type="line" smooth="yes"/>
      <point x="304" y="784"/>
      <point x="394" y="881"/>
      <point x="547" y="881" type="curve" smooth="yes"/>
      <point x="574" y="881"/>
      <point x="589" y="877"/>
      <point x="626" y="870" type="curve"/>
      <point x="626" y="1039" type="line"/>
      <point x="604" y="1054"/>
      <point x="577" y="1057"/>
      <point x="547" y="1057" type="curve" smooth="yes"/>
      <point x="424" y="1057"/>
      <point x="360" y="1001"/>
      <point x="304" y="904" type="curve"/>
      <point x="304" y="1039" type="line"/>
      <point x="127" y="1039" type="line"/>
    </contour>
  </outline>
</glyph>
<glyph name="uni027E" format="2">
  <advance width="634"/>
  <unicode hex="027E"/>
  <outline>
    <contour>
      <point x="127" y="0" type="line"/>
      <point x="304" y="0" type="line"/>
      <point x="304" y="649" type="line" smooth="yes"/>
      <point x="304" y="784"/>
      <point x="384" y="881"/>
      <point x="537" y="881" type="curve" smooth="yes"/>
      <point x="564" y="881"/>
      <point x="599" y="878"/>
      <point x="626" y="865" type="curve"/>
      <point x="626" y="1029" type="line"/>
      <point x="601" y="1048"/>
      <point x="557" y="1057"/>
      <point x="497" y="1057" type="curve" smooth="yes"/>
      <point x="294" y="1057"/>
      <point x="127" y="902"/>
      <point x="127" y="669" type="curve"/>
    </contour>
  </outline>
</glyph>
<glyph name="uni027F" format="2">
  <advance width="634"/>
  <unicode hex="027F"/>
  <outline>
    <contour>
      <point x="507" y="669" type="line"/>
      <point x="507" y="902"/>
      <point x="340" y="1057"/>
      <point x="137" y="1057" type="curve"/>
      <point x="77" y="1057"/>
      <point x="33" y="1048"/>
      <point x="8" y="1029" type="curve"/>
      <point x="8" y="865" type="line"/>
      <point x="35" y="878"/>
      <point x="70" y="881"/>
      <point x="97" y="881" type="curve"/>
      <point x="250" y="881"/>
      <point x="330" y="784"/>
      <point x="330" y="649" type="curve" smooth="yes"/>
      <point x="330" y="-443" type="line"/>
      <point x="507" y="-443" type="line"/>
    </contour>
  </outline>
</glyph>
<glyph name="uni0280" format="2">
  <advance width="1039"/>
  <unicode hex="0280"/>
  <outline>
    <contour>
      <point x="127" y="0" type="line"/>
      <point x="307" y="0" type="line"/>
      <point x="307" y="418" type="line"/>
      <point x="580" y="418" type="line" smooth="yes"/>
      <point x="686" y="418"/>
      <point x="731" y="343"/>
      <point x="731" y="273" type="curve" smooth="yes"/>
      <point x="731" y="130" type="line" smooth="yes"/>
      <point x="731" y="95"/>
      <point x="737" y="26"/>
      <point x="763" y="0" type="curve"/>
      <point x="961" y="0" type="line"/>
      <point x="934" y="26"/>
      <point x="912" y="70"/>
      <point x="912" y="135" type="curve" smooth="yes"/>
      <point x="912" y="290" type="line" smooth="yes"/>
      <point x="912" y="387"/>
      <point x="885" y="477"/>
      <point x="771" y="503" type="curve"/>
      <point x="866" y="523"/>
      <point x="934" y="636"/>
      <point x="934" y="764" type="curve" smooth="yes"/>
      <point x="934" y="897"/>
      <point x="826" y="1040"/>
      <point x="665" y="1040" type="curve" smooth="yes"/>
      <point x="127" y="1040" type="line"/>
    </contour>
    <contour>
      <point x="307" y="873" type="line"/>
      <point x="578" y="873" type="line" smooth="yes"/>
      <point x="658" y="873"/>
      <point x="742" y="842"/>
      <point x="742" y="745" type="curve" smooth="yes"/>
      <point x="742" y="644"/>
      <point x="671" y="587"/>
      <point x="578" y="587" type="curve" smooth="yes"/>
      <point x="307" y="587" type="line"/>
    </contour>
  </outline>
</glyph>
<glyph name="uni0282" format="2">
  <advance width="979"/>
  <unicode hex="0282"/>
  <outline>
    <contour>
      <point x="79" y="337" type="line"/>
      <point x="79" y="0" type="line" smooth="yes"/>
      <point x="79" y="-289"/>
      <point x="160" y="-443"/>
      <point x="400" y="-443" type="curve" smooth="yes"/>
      <point x="592" y="-443"/>
      <point x="711" y="-321"/>
      <point x="737" y="-150" type="curve"/>
      <point x="561" y="-150" type="line"/>
      <point x="541" y="-261"/>
      <point x="474" y="-296"/>
      <point x="393" y="-296" type="curve" smooth="yes"/>
      <point x="293" y="-296"/>
      <point x="255" y="-199"/>
      <point x="255" y="-23" type="curve" smooth="yes"/>
      <point x="255" y="31" type="line"/>
      <point x="319" y="-2"/>
      <point x="396" y="-19"/>
      <point x="480" y="-19" type="curve" smooth="yes"/>
      <point x="705" y="-19"/>
      <point x="900" y="71"/>
      <point x="900" y="307" type="curve" smooth="yes"/>
      <point x="900" y="506"/>
      <point x="728" y="559"/>
      <point x="555" y="611" type="curve" smooth="yes"/>
      <point x="419" y="652"/>
      <point x="289" y="675"/>
      <point x="289" y="784" type="curve" smooth="yes"/>
      <point x="289" y="855"/>
      <point x="356" y="904"/>
      <point x="480" y="904" type="curve" smooth="yes"/>
      <point x="600" y="904"/>
      <point x="690" y="877"/>
      <point x="690" y="757" type="curve"/>
      <point x="866" y="757" type="line"/>
      <point x="866" y="964"/>
      <point x="705" y="1057"/>
      <point x="480" y="1057" type="curve" smooth="yes"/>
      <point x="292" y="1057"/>
      <point x="112" y="990"/>
      <point x="112" y="780" type="curve" smooth="yes"/>
      <point x="112" y="592"/>
      <point x="266" y="521"/>
      <point x="457" y="476" type="curve" smooth="yes"/>
      <point x="604" y="442"/>
      <point x="724" y="386"/>
      <point x="724" y="289" type="curve" smooth="yes"/>
      <point x="724" y="161"/>
      <point x="585" y="131"/>
      <point x="480" y="131" type="curve" smooth="yes"/>
      <point x="352" y="131"/>
      <point x="259" y="192"/>
      <point x="255" y="326" type="curve"/>
      <point x="255" y="337" type="line"/>
    </contour>
  </outline>
</glyph>
<glyph name="uni028A" format="2">
  <advance width="1100"/>
  <unicode hex="028A"/>
  <outline>
    <contour>
      <point x="727" y="1039" type="line"/>
      <point x="792" y="934"/>
      <point x="840" y="680"/>
      <point x="840" y="517" type="curve" smooth="yes"/>
      <point x="840" y="281"/>
      <point x="739" y="135"/>
      <point x="540" y="135" type="curve" smooth="yes"/>
      <point x="345" y="135"/>
      <point x="240" y="281"/>
      <point x="240" y="517" type="curve" smooth="yes"/>
      <point x="240" y="680"/>
      <point x="314" y="934"/>
      <point x="379" y="1039" type="curve"/>
      <point x="26" y="1039" type="line"/>
      <point x="26" y="989" type="line"/>
      <point x="106" y="989"/>
      <point x="149" y="959"/>
      <point x="149" y="909" type="curve" smooth="yes"/>
      <point x="149" y="802"/>
      <point x="56" y="738"/>
      <point x="56" y="517" type="curve" smooth="yes"/>
      <point x="56" y="217"/>
      <point x="233" y="-19"/>
      <point x="540" y="-19" type="curve" smooth="yes"/>
      <point x="844" y="-19"/>
      <point x="1024" y="217"/>
      <point x="1024" y="517" type="curve" smooth="yes"/>
      <point x="1024" y="738"/>
      <point x="933" y="802"/>
      <point x="933" y="909" type="curve" smooth="yes"/>
      <point x="933" y="959"/>
      <point x="993" y="989"/>
      <point x="1074" y="989" type="curve"/>
      <point x="1074" y="1039" type="line"/>
    </contour>
  </outline>
</glyph>
<glyph name="uni028F" format="2">
  <advance width="949"/>
  <unicode hex="028F"/>
  <guideline x="146" y="0" angle="60.3169"/>
  <outline>
    <contour>
      <point x="29" y="1039" type="line"/>
      <point x="386" y="415" type="line"/>
      <point x="386" y="0" type="line"/>
      <point x="559" y="0" type="line"/>
      <point x="559" y="415" type="line"/>
      <point x="926" y="1039" type="line"/>
      <point x="740" y="1039" type="line"/>
      <point x="480" y="586" type="line"/>
      <point x="221" y="1039" type="line"/>
    </contour>
  </outline>
</glyph>
<glyph name="uni0295" format="2">
  <advance width="1134"/>
  <unicode hex="0295"/>
  <outline>
    <contour>
      <point x="472" y="0" type="line"/>
      <point x="472" y="57" type="line" smooth="yes"/>
      <point x="472" y="536"/>
      <point x="92" y="612"/>
      <point x="92" y="1018" type="curve" smooth="yes"/>
      <point x="92" y="1253"/>
      <point x="222" y="1485"/>
      <point x="565" y="1485" type="curve" smooth="yes"/>
      <point x="872" y="1485"/>
      <point x="1052" y="1277"/>
      <point x="1052" y="966" type="curve"/>
      <point x="842" y="966" type="line"/>
      <point x="842" y="1182"/>
      <point x="748" y="1319"/>
      <point x="565" y="1319" type="curve" smooth="yes"/>
      <point x="381" y="1319"/>
      <point x="301" y="1197"/>
      <point x="302" y="1026" type="curve" smooth="yes"/>
      <point x="304" y="677"/>
      <point x="682" y="539"/>
      <point x="682" y="141" type="curve" smooth="yes"/>
      <point x="682" y="0" type="line"/>
    </contour>
  </outline>
</glyph>
<glyph name="uni0298" format="2">
  <advance width="1535"/>
  <unicode hex="0298"/>
  <outline>
    <contour>
      <point x="38" y="730" type="curve" smooth="yes"/>
      <point x="38" y="327"/>
      <point x="365" y="0"/>
      <point x="768" y="0" type="curve" smooth="yes"/>
      <point x="1170" y="0"/>
      <point x="1497" y="327"/>
      <point x="1497" y="730" type="curve" smooth="yes"/>
      <point x="1497" y="1132"/>
      <point x="1170" y="1459"/>
      <point x="768" y="1459" type="curve" smooth="yes"/>
      <point x="365" y="1459"/>
      <point x="38" y="1132"/>
    </contour>
    <contour>
      <point x="228" y="730" type="curve" smooth="yes"/>
      <point x="228" y="1029"/>
      <point x="468" y="1269"/>
      <point x="768" y="1269" type="curve" smooth="yes"/>
      <point x="1067" y="1269"/>
      <point x="1307" y="1029"/>
      <point x="1307" y="730" type="curve" smooth="yes"/>
      <point x="1307" y="430"/>
      <point x="1067" y="190"/>
      <point x="768" y="190" type="curve" smooth="yes"/>
      <point x="468" y="190"/>
      <point x="228" y="430"/>
    </contour>
    <contour>
      <point x="615" y="730" type="curve" smooth="yes"/>
      <point x="615" y="646"/>
      <point x="684" y="577"/>
      <point x="768" y="577" type="curve" smooth="yes"/>
      <point x="852" y="577"/>
      <point x="921" y="646"/>
      <point x="921" y="730" type="curve" smooth="yes"/>
      <point x="921" y="814"/>
      <point x="852" y="883"/>
      <point x="768" y="883" type="curve" smooth="yes"/>
      <point x="684" y="883"/>
      <point x="615" y="814"/>
    </contour>
  </outline>
</glyph>
<glyph name="uni0299" format="2">
  <advance width="1184"/>
  <unicode hex="0299"/>
  <outline>
    <contour>
      <point x="146" y="0" type="line"/>
      <point x="694" y="0" type="line" smooth="yes"/>
      <point x="853" y="0"/>
      <point x="991" y="146"/>
      <point x="991" y="300" type="curve" smooth="yes"/>
      <point x="991" y="424"/>
      <point x="932" y="527"/>
      <point x="799" y="559" type="curve"/>
      <point x="894" y="600"/>
      <point x="937" y="681"/>
      <point x="937" y="783" type="curve" smooth="yes"/>
      <point x="937" y="931"/>
      <point x="805" y="1039"/>
      <point x="655" y="1039" type="curve" smooth="yes"/>
      <point x="146" y="1039" type="line"/>
    </contour>
    <contour>
      <point x="317" y="882" type="line"/>
      <point x="609" y="882" type="line" smooth="yes"/>
      <point x="722" y="882"/>
      <point x="764" y="824"/>
      <point x="764" y="763" type="curve" smooth="yes"/>
      <point x="764" y="687"/>
      <point x="698" y="629"/>
      <point x="609" y="629" type="curve" smooth="yes"/>
      <point x="317" y="629" type="line"/>
    </contour>
    <contour>
      <point x="317" y="477" type="line"/>
      <point x="625" y="477" type="line" smooth="yes"/>
      <point x="752" y="477"/>
      <point x="810" y="395"/>
      <point x="810" y="313" type="curve" smooth="yes"/>
      <point x="810" y="228"/>
      <point x="725" y="157"/>
      <point x="622" y="157" type="curve" smooth="yes"/>
      <point x="317" y="157" type="line"/>
    </contour>
  </outline>
</glyph>
<glyph name="uni029B" format="2">
  <advance width="1305"/>
  <unicode hex="029B"/>
  <guideline x="0" y="1007" angle="0"/>
  <outline>
    <contour>
      <point x="1191" y="549" type="line"/>
      <point x="651" y="549" type="line"/>
      <point x="651" y="423" type="line"/>
      <point x="1032" y="423" type="line"/>
      <point x="1032" y="250"/>
      <point x="836" y="87"/>
      <point x="648" y="87" type="curve" smooth="yes"/>
      <point x="417" y="87"/>
      <point x="260" y="223"/>
      <point x="260" y="500" type="curve" smooth="yes"/>
      <point x="260" y="741"/>
      <point x="381" y="929"/>
      <point x="651" y="929" type="curve" smooth="yes"/>
      <point x="869" y="929"/>
      <point x="978" y="844"/>
      <point x="1032" y="707" type="curve"/>
      <point x="1191" y="707" type="line"/>
      <point x="1135" y="896"/>
      <point x="966" y="1055"/>
      <point x="651" y="1055" type="curve" smooth="yes"/>
      <point x="345" y="1055"/>
      <point x="79" y="877"/>
      <point x="79" y="500" type="curve" smooth="yes"/>
      <point x="79" y="190"/>
      <point x="300" y="-41"/>
      <point x="651" y="-41" type="curve" smooth="yes"/>
      <point x="823" y="-41"/>
      <point x="976" y="40"/>
      <point x="1032" y="126" type="curve"/>
      <point x="1081" y="-11" type="line"/>
      <point x="1191" y="-11" type="line"/>
    </contour>
    <contour>
      <point x="1191" y="707" type="line"/>
      <point x="1191" y="1065" type="line" smooth="yes"/>
      <point x="1191" y="1241"/>
      <point x="1228" y="1338"/>
      <point x="1328" y="1338" type="curve" smooth="yes"/>
      <point x="1409" y="1338"/>
      <point x="1476" y="1303"/>
      <point x="1496" y="1192" type="curve"/>
      <point x="1672" y="1192" type="line"/>
      <point x="1646" y="1363"/>
      <point x="1527" y="1485"/>
      <point x="1335" y="1485" type="curve" smooth="yes"/>
      <point x="1095" y="1485"/>
      <point x="1014" y="1331"/>
      <point x="1014" y="1042" type="curve" smooth="yes"/>
      <point x="1014" y="755" type="line"/>
    </contour>
  </outline>
</glyph>
<glyph name="uni029C" format="2">
  <advance width="1362"/>
  <unicode hex="029C"/>
  <outline>
    <contour>
      <point x="150" y="1039" type="line"/>
      <point x="150" y="0" type="line"/>
      <point x="339" y="0" type="line"/>
      <point x="339" y="487" type="line"/>
      <point x="1027" y="487" type="line"/>
      <point x="1027" y="0" type="line"/>
      <point x="1212" y="0" type="line"/>
      <point x="1212" y="1039" type="line"/>
      <point x="1027" y="1039" type="line"/>
      <point x="1027" y="614" type="line"/>
      <point x="339" y="614" type="line"/>
      <point x="339" y="1039" type="line"/>
    </contour>
  </outline>
</glyph>
<glyph name="uni029D" format="2">
  <advance width="597"/>
  <unicode hex="029D"/>
  <outline>
    <contour>
      <point x="127" y="1447" type="line"/>
      <point x="127" y="1249" type="line"/>
      <point x="304" y="1249" type="line"/>
      <point x="304" y="1447" type="line"/>
    </contour>
    <contour>
      <point x="304" y="1039" type="line"/>
      <point x="127" y="1039" type="line"/>
      <point x="127" y="112" type="line"/>
      <point x="127" y="-213"/>
      <point x="117" y="-320"/>
      <point x="-5" y="-320" type="curve" smooth="yes"/>
      <point x="-65" y="-320"/>
      <point x="-115" y="-270"/>
      <point x="-115" y="-210" type="curve" smooth="yes"/>
      <point x="-115" y="-150"/>
      <point x="-72" y="-100"/>
      <point x="8" y="-100" type="curve" smooth="yes"/>
      <point x="181" y="-100"/>
      <point x="312" y="-205"/>
      <point x="350" y="-395" type="curve" smooth="yes"/>
      <point x="357" y="-428"/>
      <point x="382" y="-440"/>
      <point x="409" y="-440" type="curve" smooth="yes"/>
      <point x="442" y="-440"/>
      <point x="469" y="-417"/>
      <point x="469" y="-385" type="curve" smooth="yes"/>
      <point x="469" y="-380"/>
      <point x="468" y="-374"/>
      <point x="467" y="-369" type="curve" smooth="yes"/>
      <point x="393" y="-78"/>
      <point x="209" y="20"/>
      <point x="8" y="20" type="curve" smooth="yes"/>
      <point x="-137" y="20"/>
      <point x="-235" y="-85"/>
      <point x="-235" y="-210" type="curve" smooth="yes"/>
      <point x="-235" y="-335"/>
      <point x="-130" y="-440"/>
      <point x="-5" y="-440" type="curve" smooth="yes"/>
      <point x="264" y="-440"/>
      <point x="304" y="-185"/>
      <point x="304" y="112" type="curve"/>
    </contour>
  </outline>
</glyph>
<glyph name="uni02A0" format="2">
  <advance width="1155"/>
  <unicode hex="02A0"/>
  <outline>
    <contour>
      <point x="855" y="-420" type="line"/>
      <point x="1031" y="-420" type="line"/>
      <point x="1031" y="1039" type="line"/>
      <point x="855" y="1009" type="line"/>
      <point x="855" y="881" type="line"/>
      <point x="780" y="982"/>
      <point x="690" y="1057"/>
      <point x="551" y="1057" type="curve" smooth="yes"/>
      <point x="247" y="1057"/>
      <point x="67" y="859"/>
      <point x="67" y="529" type="curve" smooth="yes"/>
      <point x="67" y="214"/>
      <point x="247" y="-19"/>
      <point x="551" y="-19" type="curve" smooth="yes"/>
      <point x="697" y="-19"/>
      <point x="776" y="52"/>
      <point x="851" y="139" type="curve"/>
      <point x="855" y="139" type="line"/>
    </contour>
    <contour>
      <point x="551" y="131" type="curve" smooth="yes"/>
      <point x="337" y="131"/>
      <point x="251" y="334"/>
      <point x="251" y="529" type="curve" smooth="yes"/>
      <point x="251" y="720"/>
      <point x="326" y="904"/>
      <point x="551" y="904" type="curve" smooth="yes"/>
      <point x="754" y="904"/>
      <point x="855" y="712"/>
      <point x="855" y="529" type="curve" smooth="yes"/>
      <point x="855" y="322"/>
      <point x="784" y="131"/>
    </contour>
    <contour>
      <point x="1031" y="707" type="line"/>
      <point x="1031" y="1065" type="line" smooth="yes"/>
      <point x="1031" y="1241"/>
      <point x="1069" y="1338"/>
      <point x="1169" y="1338" type="curve" smooth="yes"/>
      <point x="1250" y="1338"/>
      <point x="1317" y="1303"/>
      <point x="1337" y="1192" type="curve"/>
      <point x="1513" y="1192" type="line"/>
      <point x="1487" y="1363"/>
      <point x="1368" y="1485"/>
      <point x="1176" y="1485" type="curve" smooth="yes"/>
      <point x="936" y="1485"/>
      <point x="855" y="1331"/>
      <point x="855" y="1042" type="curve" smooth="yes"/>
      <point x="855" y="755" type="line"/>
    </contour>
  </outline>
</glyph>
<glyph name="uni02A2" format="2">
  <advance width="1124"/>
  <unicode hex="02A2"/>
  <outline>
    <contour>
      <point x="682" y="0" type="line"/>
      <point x="682" y="141" type="line"/>
      <point x="682" y="539"/>
      <point x="304" y="677"/>
      <point x="302" y="1026" type="curve" smooth="yes"/>
      <point x="301" y="1197"/>
      <point x="381" y="1319"/>
      <point x="565" y="1319" type="curve" smooth="yes"/>
      <point x="748" y="1319"/>
      <point x="842" y="1182"/>
      <point x="842" y="966" type="curve"/>
      <point x="1052" y="966" type="line"/>
      <point x="1052" y="1277"/>
      <point x="872" y="1485"/>
      <point x="565" y="1485" type="curve"/>
      <point x="222" y="1485"/>
      <point x="92" y="1253"/>
      <point x="92" y="1018" type="curve" smooth="yes"/>
      <point x="92" y="612"/>
      <point x="472" y="536"/>
      <point x="472" y="57" type="curve" smooth="yes"/>
      <point x="472" y="0" type="line"/>
    </contour>
    <contour>
      <point x="822" y="509" type="line"/>
      <point x="155" y="509" type="line"/>
      <point x="155" y="338" type="line"/>
      <point x="822" y="338" type="line"/>
    </contour>
  </outline>
</glyph>
<glyph name="uni02B2" format="2">
  <advance width="395"/>
  <unicode hex="02B2"/>
  <outline>
    <contour>
      <point x="139" y="1794" type="line"/>
      <point x="139" y="1655" type="line"/>
      <point x="263" y="1655" type="line"/>
      <point x="263" y="1794" type="line"/>
    </contour>
    <contour>
      <point x="139" y="1508" type="line"/>
      <point x="139" y="676" type="line" smooth="yes"/>
      <point x="139" y="623"/>
      <point x="118" y="578"/>
      <point x="71" y="578" type="curve" smooth="yes"/>
      <point x="55" y="578"/>
      <point x="37" y="586"/>
      <point x="23" y="589" type="curve"/>
      <point x="23" y="487" type="line"/>
      <point x="39" y="473"/>
      <point x="68" y="470"/>
      <point x="89" y="470" type="curve" smooth="yes"/>
      <point x="186" y="470"/>
      <point x="263" y="531"/>
      <point x="263" y="657" type="curve" smooth="yes"/>
      <point x="263" y="1508" type="line"/>
    </contour>
  </outline>
</glyph>
<glyph name="uni02B7" format="2">
  <advance width="1002"/>
  <unicode hex="02B7"/>
  <outline>
    <contour>
      <point x="10" y="1508" type="line"/>
      <point x="220" y="781" type="line"/>
      <point x="343" y="781" type="line"/>
      <point x="501" y="1382" type="line"/>
      <point x="659" y="781" type="line"/>
      <point x="782" y="781" type="line"/>
      <point x="992" y="1508" type="line"/>
      <point x="866" y="1508" type="line"/>
      <point x="719" y="962" type="line"/>
      <point x="569" y="1508" type="line"/>
      <point x="435" y="1508" type="line"/>
      <point x="285" y="962" type="line"/>
      <point x="138" y="1508" type="line"/>
    </contour>
  </outline>
</glyph>
<glyph name="uni02C0" format="2">
  <advance width="732"/>
  <unicode hex="02C0"/>
  <outline>
    <contour>
      <point x="436" y="780" type="line"/>
      <point x="436" y="819" type="line" smooth="yes"/>
      <point x="436" y="1155"/>
      <point x="702" y="1208"/>
      <point x="702" y="1492" type="curve" smooth="yes"/>
      <point x="702" y="1657"/>
      <point x="611" y="1819"/>
      <point x="371" y="1819" type="curve" smooth="yes"/>
      <point x="156" y="1819"/>
      <point x="30" y="1674"/>
      <point x="30" y="1456" type="curve"/>
      <point x="177" y="1456" type="line"/>
      <point x="177" y="1607"/>
      <point x="243" y="1703"/>
      <point x="371" y="1703" type="curve" smooth="yes"/>
      <point x="500" y="1703"/>
      <point x="556" y="1618"/>
      <point x="555" y="1498" type="curve" smooth="yes"/>
      <point x="554" y="1253"/>
      <point x="289" y="1157"/>
      <point x="289" y="878" type="curve" smooth="yes"/>
      <point x="289" y="780" type="line"/>
    </contour>
  </outline>
</glyph>
<glyph name="circumflex" format="2">
  <advance width="694"/>
  <unicode hex="02C6"/>
  <outline>
    <contour>
      <point x="247" y="1474" type="line"/>
      <point x="37" y="1121" type="line"/>
      <point x="71" y="1121" type="line"/>
      <point x="349" y="1346" type="line"/>
      <point x="626" y="1121" type="line"/>
      <point x="664" y="1121" type="line"/>
      <point x="450" y="1474" type="line"/>
    </contour>
  </outline>
</glyph>
<glyph name="uni02C8" format="2">
  <advance width="456"/>
  <unicode hex="02C8"/>
  <outline>
    <contour>
      <point x="152" y="912" type="line"/>
      <point x="304" y="912" type="line"/>
      <point x="304" y="1607" type="line"/>
      <point x="152" y="1607" type="line"/>
    </contour>
  </outline>
</glyph>
<glyph name="uni02D0" format="2">
  <advance width="361"/>
  <unicode hex="02D0"/>
  <outline>
    <contour>
      <point x="19" y="1007" type="line"/>
      <point x="114" y="684" type="line"/>
      <point x="247" y="684" type="line"/>
      <point x="342" y="1007" type="line"/>
    </contour>
    <contour>
      <point x="342" y="0" type="line"/>
      <point x="247" y="323" type="line"/>
      <point x="114" y="323" type="line"/>
      <point x="19" y="0" type="line"/>
    </contour>
  </outline>
</glyph>
<glyph name="uni02D8" format="2">
  <advance width="686"/>
  <unicode hex="02D8"/>
  <outline>
    <contour>
      <point x="622" y="1478" type="line"/>
      <point x="600" y="1422"/>
      <point x="495" y="1287"/>
      <point x="345" y="1287" type="curve" smooth="yes"/>
      <point x="196" y="1287"/>
      <point x="90" y="1422"/>
      <point x="68" y="1478" type="curve"/>
      <point x="30" y="1478" type="line"/>
      <point x="49" y="1384"/>
      <point x="140" y="1160"/>
      <point x="345" y="1160" type="curve" smooth="yes"/>
      <point x="551" y="1160"/>
      <point x="637" y="1384"/>
      <point x="656" y="1478" type="curve"/>
    </contour>
  </outline>
</glyph>
<glyph name="uni0303" format="2">
  <unicode hex="0303"/>
  <outline>
    <contour>
      <point x="-242" y="1493" type="line"/>
      <point x="-242" y="1374"/>
      <point x="-313" y="1288"/>
      <point x="-374" y="1288" type="curve" smooth="yes"/>
      <point x="-494" y="1288"/>
      <point x="-491" y="1524"/>
      <point x="-712" y="1524" type="curve" smooth="yes"/>
      <point x="-880" y="1524"/>
      <point x="-956" y="1367"/>
      <point x="-956" y="1204" type="curve"/>
      <point x="-859" y="1204" type="line"/>
      <point x="-859" y="1288"/>
      <point x="-833" y="1416"/>
      <point x="-731" y="1416" type="curve" smooth="yes"/>
      <point x="-557" y="1416"/>
      <point x="-581" y="1180"/>
      <point x="-382" y="1180" type="curve" smooth="yes"/>
      <point x="-239" y="1180"/>
      <point x="-145" y="1288"/>
      <point x="-145" y="1493" type="curve"/>
    </contour>
  </outline>
</glyph>
<glyph name="uni0306" format="2">
  <unicode hex="0306"/>
  <outline>
    <contour>
      <point x="-281" y="1459" type="line"/>
      <point x="-304" y="1402"/>
      <point x="-410" y="1265"/>
      <point x="-562" y="1265" type="curve" smooth="yes"/>
      <point x="-714" y="1265"/>
      <point x="-821" y="1402"/>
      <point x="-844" y="1459" type="curve"/>
      <point x="-882" y="1459" type="line"/>
      <point x="-863" y="1364"/>
      <point x="-771" y="1136"/>
      <point x="-562" y="1136" type="curve" smooth="yes"/>
      <point x="-353" y="1136"/>
      <point x="-266" y="1364"/>
      <point x="-247" y="1459" type="curve"/>
    </contour>
  </outline>
</glyph>
<glyph name="uni0307" format="2">
  <unicode hex="0307"/>
  <outline>
    <contour>
      <point x="-590" y="1447" type="line"/>
      <point x="-590" y="1249" type="line"/>
      <point x="-413" y="1249" type="line"/>
      <point x="-413" y="1447" type="line"/>
    </contour>
  </outline>
</glyph>
<glyph name="uni0308" format="2">
  <unicode hex="0308"/>
  <outline>
    <contour>
      <point x="-855" y="1395" type="curve" smooth="yes"/>
      <point x="-855" y="1338"/>
      <point x="-806" y="1288"/>
      <point x="-749" y="1288" type="curve" smooth="yes"/>
      <point x="-692" y="1288"/>
      <point x="-642" y="1338"/>
      <point x="-642" y="1395" type="curve" smooth="yes"/>
      <point x="-642" y="1452"/>
      <point x="-692" y="1501"/>
      <point x="-749" y="1501" type="curve" smooth="yes"/>
      <point x="-806" y="1501"/>
      <point x="-855" y="1452"/>
    </contour>
    <contour>
      <point x="-485" y="1395" type="curve" smooth="yes"/>
      <point x="-485" y="1338"/>
      <point x="-435" y="1288"/>
      <point x="-378" y="1288" type="curve" smooth="yes"/>
      <point x="-321" y="1288"/>
      <point x="-272" y="1338"/>
      <point x="-272" y="1395" type="curve" smooth="yes"/>
      <point x="-272" y="1452"/>
      <point x="-321" y="1501"/>
      <point x="-378" y="1501" type="curve" smooth="yes"/>
      <point x="-435" y="1501"/>
      <point x="-485" y="1452"/>
    </contour>
  </outline>
</glyph>
<glyph name="uni030B" format="2">
  <unicode hex="030B"/>
  <outline>
    <contour>
      <point x="-747" y="1111" type="line"/>
      <point x="-634" y="1065" type="line"/>
      <point x="-449" y="1524" type="line"/>
      <point x="-562" y="1570" type="line"/>
    </contour>
    <contour>
      <point x="-447" y="1111" type="line"/>
      <point x="-334" y="1065" type="line"/>
      <point x="-149" y="1524" type="line"/>
      <point x="-262" y="1570" type="line"/>
    </contour>
  </outline>
</glyph>
<glyph name="uni031C" format="2">
  <unicode hex="031C"/>
  <outline>
    <contour>
      <point x="-418" y="-152" type="line"/>
      <point x="-576" y="-152"/>
      <point x="-703" y="-279"/>
      <point x="-703" y="-437" type="curve" smooth="yes"/>
      <point x="-703" y="-595"/>
      <point x="-576" y="-722"/>
      <point x="-418" y="-722" type="curve"/>
      <point x="-418" y="-608" type="line"/>
      <point x="-513" y="-608"/>
      <point x="-589" y="-532"/>
      <point x="-589" y="-437" type="curve" smooth="yes"/>
      <point x="-589" y="-342"/>
      <point x="-513" y="-266"/>
      <point x="-418" y="-266" type="curve"/>
    </contour>
  </outline>
</glyph>
<glyph name="uni031E" format="2">
  <unicode hex="031E"/>
  <outline>
    <contour>
      <point x="-323" y="-266" type="line"/>
      <point x="-323" y="-152" type="line"/>
      <point x="-703" y="-152" type="line"/>
      <point x="-703" y="-266" type="line"/>
      <point x="-570" y="-266" type="line"/>
      <point x="-570" y="-494" type="line"/>
      <point x="-456" y="-494" type="line"/>
      <point x="-456" y="-266" type="line"/>
    </contour>
  </outline>
</glyph>
<glyph name="uni031F" format="2">
  <unicode hex="031F"/>
  <outline>
    <contour>
      <point x="-361" y="-399" type="line"/>
      <point x="-361" y="-285" type="line"/>
      <point x="-494" y="-285" type="line"/>
      <point x="-494" y="-152" type="line"/>
      <point x="-608" y="-152" type="line"/>
      <point x="-608" y="-285" type="line"/>
      <point x="-741" y="-285" type="line"/>
      <point x="-741" y="-399" type="line"/>
      <point x="-608" y="-399" type="line"/>
      <point x="-608" y="-532" type="line"/>
      <point x="-494" y="-532" type="line"/>
      <point x="-494" y="-399" type="line"/>
    </contour>
  </outline>
</glyph>
<glyph name="uni0334" format="2">
  <unicode hex="0334"/>
  <outline>
    <contour>
      <point x="-288" y="632" type="line"/>
      <point x="-288" y="531"/>
      <point x="-349" y="458"/>
      <point x="-401" y="458" type="curve" smooth="yes"/>
      <point x="-503" y="458"/>
      <point x="-500" y="658"/>
      <point x="-688" y="658" type="curve" smooth="yes"/>
      <point x="-831" y="658"/>
      <point x="-895" y="525"/>
      <point x="-895" y="386" type="curve"/>
      <point x="-813" y="386" type="line"/>
      <point x="-813" y="458"/>
      <point x="-791" y="566"/>
      <point x="-704" y="566" type="curve" smooth="yes"/>
      <point x="-556" y="566"/>
      <point x="-577" y="366"/>
      <point x="-407" y="366" type="curve" smooth="yes"/>
      <point x="-286" y="366"/>
      <point x="-206" y="458"/>
      <point x="-206" y="632" type="curve"/>
    </contour>
  </outline>
</glyph>
<glyph name="uni0337" format="2">
  <unicode hex="0337"/>
  <outline>
    <contour>
      <point x="-992" y="86" type="line"/>
      <point x="-890" y="1" type="line"/>
      <point x="-93" y="954" type="line"/>
      <point x="-195" y="1040" type="line"/>
    </contour>
  </outline>
</glyph>
<glyph name="uni0338" format="2">
  <unicode hex="0338"/>
  <outline>
    <contour>
      <point x="-1105" y="-313" type="line"/>
      <point x="-990" y="-379" type="line"/>
      <point x="10" y="1353" type="line"/>
      <point x="-105" y="1420" type="line"/>
    </contour>
  </outline>
</glyph>
<glyph name="uni033B" format="2">
  <unicode hex="033B"/>
  <outline>
    <contour>
      <point x="-817" y="-152" type="line"/>
      <point x="-817" y="-722" type="line"/>
      <point x="-247" y="-722" type="line"/>
      <point x="-247" y="-152" type="line"/>
    </contour>
    <contour>
      <point x="-703" y="-266" type="line"/>
      <point x="-361" y="-266" type="line"/>
      <point x="-361" y="-608" type="line"/>
      <point x="-703" y="-608" type="line"/>
    </contour>
  </outline>
</glyph>
<glyph name="uni033C" format="2">
  <unicode hex="033C"/>
  <outline>
    <contour>
      <point x="-817" y="-361" type="line"/>
      <point x="-794" y="-304"/>
      <point x="-760" y="-247"/>
      <point x="-684" y="-247" type="curve" smooth="yes"/>
      <point x="-627" y="-247"/>
      <point x="-574" y="-304"/>
      <point x="-551" y="-361" type="curve"/>
      <point x="-513" y="-361" type="line"/>
      <point x="-490" y="-304"/>
      <point x="-456" y="-247"/>
      <point x="-380" y="-247" type="curve" smooth="yes"/>
      <point x="-323" y="-247"/>
      <point x="-270" y="-304"/>
      <point x="-247" y="-361" type="curve"/>
      <point x="-209" y="-361" type="line"/>
      <point x="-228" y="-266"/>
      <point x="-285" y="-152"/>
      <point x="-380" y="-152" type="curve" smooth="yes"/>
      <point x="-466" y="-152"/>
      <point x="-509" y="-218"/>
      <point x="-533" y="-291" type="curve"/>
      <point x="-562" y="-218"/>
      <point x="-612" y="-152"/>
      <point x="-684" y="-152" type="curve" smooth="yes"/>
      <point x="-798" y="-152"/>
      <point x="-836" y="-266"/>
      <point x="-855" y="-361" type="curve"/>
    </contour>
  </outline>
</glyph>
<glyph name="uni033D" format="2">
  <unicode hex="033D"/>
  <outline>
    <contour>
      <point x="-610" y="1320" type="line"/>
      <point x="-809" y="1140" type="line"/>
      <point x="-695" y="1140" type="line"/>
      <point x="-553" y="1275" type="line"/>
      <point x="-429" y="1140" type="line"/>
      <point x="-315" y="1140" type="line"/>
      <point x="-496" y="1320" type="line"/>
      <point x="-315" y="1501" type="line"/>
      <point x="-428" y="1501" type="line"/>
      <point x="-555" y="1374" type="line"/>
      <point x="-695" y="1501" type="line"/>
      <point x="-809" y="1501" type="line"/>
    </contour>
  </outline>
</glyph>
<glyph name="uni0361" format="2">
  <unicode hex="0361"/>
  <outline>
    <contour>
      <point x="0" y="1851" type="curve" smooth="yes"/>
      <point x="213" y="1851"/>
      <point x="733" y="1718"/>
      <point x="844" y="1566" type="curve"/>
      <point x="855" y="1554"/>
      <point x="863" y="1547"/>
      <point x="870" y="1547" type="curve" smooth="yes"/>
      <point x="878" y="1547"/>
      <point x="882" y="1554"/>
      <point x="882" y="1566" type="curve"/>
      <point x="851" y="1680"/>
      <point x="399" y="2003"/>
      <point x="0" y="2003" type="curve" smooth="yes"/>
      <point x="-391" y="2003"/>
      <point x="-851" y="1680"/>
      <point x="-882" y="1566" type="curve"/>
      <point x="-882" y="1554"/>
      <point x="-878" y="1547"/>
      <point x="-870" y="1547" type="curve" smooth="yes"/>
      <point x="-863" y="1547"/>
      <point x="-855" y="1554"/>
      <point x="-844" y="1566" type="curve"/>
      <point x="-733" y="1718"/>
      <point x="-213" y="1851"/>
    </contour>
  </outline>
</glyph>
<glyph name="theta" format="2">
  <advance width="1094"/>
  <unicode hex="03B8"/>
  <outline>
    <contour>
      <point x="547" y="-34" type="curve" smooth="yes"/>
      <point x="840" y="-34"/>
      <point x="1037" y="259"/>
      <point x="1037" y="737" type="curve" smooth="yes"/>
      <point x="1037" y="1181"/>
      <point x="840" y="1493"/>
      <point x="547" y="1493" type="curve" smooth="yes"/>
      <point x="255" y="1493"/>
      <point x="57" y="1181"/>
      <point x="57" y="737" type="curve" smooth="yes"/>
      <point x="57" y="259"/>
      <point x="255" y="-34"/>
    </contour>
    <contour>
      <point x="547" y="120" type="curve" smooth="yes"/>
      <point x="380" y="120"/>
      <point x="253" y="327"/>
      <point x="242" y="665" type="curve"/>
      <point x="852" y="665" type="line"/>
      <point x="841" y="327"/>
      <point x="714" y="120"/>
    </contour>
    <contour>
      <point x="547" y="1339" type="curve" smooth="yes"/>
      <point x="714" y="1339"/>
      <point x="841" y="1144"/>
      <point x="852" y="806" type="curve"/>
      <point x="242" y="806" type="line"/>
      <point x="252" y="1144"/>
      <point x="380" y="1339"/>
    </contour>
  </outline>
</glyph>
<glyph name="uni1787" format="2">
  <advance width="1500"/>
  <unicode hex="1787"/>
  <anchor x="1387" y="0" name="L"/>
  <anchor x="1387" y="1665" name="U"/>
  <outline>
    <contour>
      <point x="1350" y="1376" type="curve" smooth="yes"/>
      <point x="1350" y="1459"/>
      <point x="1335" y="1511"/>
      <point x="1260" y="1609" type="curve"/>
      <point x="1189" y="1687"/>
      <point x="1088" y="1777"/>
      <point x="934" y="1777" type="curve" smooth="yes"/>
      <point x="810" y="1777"/>
      <point x="773" y="1725"/>
      <point x="773" y="1676" type="curve" smooth="yes"/>
      <point x="773" y="1616"/>
      <point x="810" y="1560"/>
      <point x="904" y="1533" type="curve" smooth="yes"/>
      <point x="968" y="1515"/>
      <point x="1144" y="1466"/>
      <point x="1144" y="1376" type="curve" smooth="yes"/>
      <point x="1144" y="1312"/>
      <point x="1092" y="1252"/>
      <point x="1002" y="1252" type="curve" smooth="yes"/>
      <point x="844" y="1252"/>
      <point x="720" y="1440"/>
      <point x="450" y="1440" type="curve" smooth="yes"/>
      <point x="263" y="1440"/>
      <point x="94" y="1350"/>
      <point x="94" y="1204" type="curve" smooth="yes"/>
      <point x="94" y="1099"/>
      <point x="162" y="1046"/>
      <point x="225" y="1027" type="curve"/>
      <point x="225" y="79" type="line" smooth="yes"/>
      <point x="225" y="37"/>
      <point x="315" y="0"/>
      <point x="405" y="0" type="curve" smooth="yes"/>
      <point x="525" y="0" type="line" smooth="yes"/>
      <point x="619" y="0"/>
      <point x="777" y="154"/>
      <point x="788" y="154" type="curve" smooth="yes"/>
      <point x="799" y="154"/>
      <point x="957" y="0"/>
      <point x="1050" y="0" type="curve" smooth="yes"/>
      <point x="1163" y="0" type="line" smooth="yes"/>
      <point x="1253" y="0"/>
      <point x="1350" y="37"/>
      <point x="1350" y="79" type="curve" smooth="yes"/>
      <point x="1350" y="930" type="line"/>
      <point x="975" y="930" type="line"/>
      <point x="975" y="266" type="line" smooth="yes"/>
      <point x="975" y="251"/>
      <point x="968" y="244"/>
      <point x="957" y="244" type="curve" smooth="yes"/>
      <point x="919" y="244"/>
      <point x="799" y="375"/>
      <point x="788" y="375" type="curve" smooth="yes"/>
      <point x="777" y="375"/>
      <point x="653" y="244"/>
      <point x="619" y="244" type="curve" smooth="yes"/>
      <point x="608" y="244"/>
      <point x="600" y="251"/>
      <point x="600" y="266" type="curve" smooth="yes"/>
      <point x="600" y="1027" type="line"/>
      <point x="469" y="1046"/>
      <point x="300" y="1102"/>
      <point x="300" y="1159" type="curve" smooth="yes"/>
      <point x="300" y="1185"/>
      <point x="357" y="1215"/>
      <point x="432" y="1215" type="curve" smooth="yes"/>
      <point x="582" y="1215"/>
      <point x="705" y="1027"/>
      <point x="994" y="1027" type="curve" smooth="yes"/>
      <point x="1242" y="1027"/>
      <point x="1350" y="1215"/>
    </contour>
  </outline>
</glyph>
<glyph name="uni1790" format="2">
  <advance width="1500"/>
  <unicode hex="1790"/>
  <anchor x="1387" y="0" name="L"/>
  <anchor x="1387" y="1665" name="U"/>
  <outline>
    <contour>
      <point x="1350" y="1376" type="curve" smooth="yes"/>
      <point x="1350" y="1459"/>
      <point x="1335" y="1511"/>
      <point x="1260" y="1609" type="curve"/>
      <point x="1189" y="1687"/>
      <point x="1088" y="1777"/>
      <point x="934" y="1777" type="curve" smooth="yes"/>
      <point x="810" y="1777"/>
      <point x="773" y="1725"/>
      <point x="773" y="1676" type="curve" smooth="yes"/>
      <point x="773" y="1616"/>
      <point x="810" y="1560"/>
      <point x="904" y="1533" type="curve" smooth="yes"/>
      <point x="968" y="1515"/>
      <point x="1144" y="1466"/>
      <point x="1144" y="1376" type="curve" smooth="yes"/>
      <point x="1144" y="1312"/>
      <point x="1092" y="1252"/>
      <point x="1002" y="1252" type="curve" smooth="yes"/>
      <point x="844" y="1252"/>
      <point x="720" y="1440"/>
      <point x="450" y="1440" type="curve" smooth="yes"/>
      <point x="263" y="1440"/>
      <point x="94" y="1350"/>
      <point x="94" y="1204" type="curve" smooth="yes"/>
      <point x="94" y="1099"/>
      <point x="162" y="1046"/>
      <point x="225" y="1027" type="curve"/>
      <point x="225" y="206" type="line" smooth="yes"/>
      <point x="225" y="97"/>
      <point x="555" y="0"/>
      <point x="788" y="0" type="curve" smooth="yes"/>
      <point x="1020" y="0"/>
      <point x="1350" y="97"/>
      <point x="1350" y="206" type="curve" smooth="yes"/>
      <point x="1350" y="862" type="line"/>
      <point x="1313" y="949"/>
      <point x="1167" y="975"/>
      <point x="1050" y="975" type="curve"/>
      <point x="840" y="934"/>
      <point x="769" y="795"/>
      <point x="769" y="716" type="curve" smooth="yes"/>
      <point x="769" y="611"/>
      <point x="844" y="544"/>
      <point x="975" y="517" type="curve"/>
      <point x="975" y="210" type="line" smooth="yes"/>
      <point x="975" y="154"/>
      <point x="840" y="131"/>
      <point x="788" y="131" type="curve" smooth="yes"/>
      <point x="735" y="131"/>
      <point x="600" y="154"/>
      <point x="600" y="210" type="curve" smooth="yes"/>
      <point x="600" y="1027" type="line"/>
      <point x="469" y="1046"/>
      <point x="300" y="1102"/>
      <point x="300" y="1159" type="curve" smooth="yes"/>
      <point x="300" y="1185"/>
      <point x="357" y="1215"/>
      <point x="432" y="1215" type="curve" smooth="yes"/>
      <point x="582" y="1215"/>
      <point x="705" y="1027"/>
      <point x="994" y="1027" type="curve" smooth="yes"/>
      <point x="1242" y="1027"/>
      <point x="1350" y="1215"/>
    </contour>
    <contour>
      <point x="893" y="694" type="curve" smooth="yes"/>
      <point x="893" y="750"/>
      <point x="942" y="780"/>
      <point x="975" y="791" type="curve"/>
      <point x="975" y="615" type="line"/>
      <point x="945" y="615"/>
      <point x="893" y="652"/>
    </contour>
  </outline>
</glyph>
<glyph name="uni1793" format="2">
  <advance width="1500"/>
  <unicode hex="1793"/>
  <anchor x="1350" y="0" name="L"/>
  <anchor x="1350" y="1440" name="U"/>
  <outline>
    <contour>
      <point x="225" y="1046" type="line"/>
      <point x="225" y="692"/>
      <point x="597" y="602"/>
      <point x="859" y="532" type="curve" smooth="yes"/>
      <point x="900" y="521"/>
      <point x="975" y="484"/>
      <point x="975" y="424" type="curve"/>
      <point x="975" y="184" type="line"/>
      <point x="847" y="202"/>
      <point x="701" y="266"/>
      <point x="600" y="356" type="curve"/>
      <point x="600" y="577" type="line"/>
      <point x="225" y="577" type="line"/>
      <point x="225" y="0" type="line"/>
      <point x="600" y="0" type="line"/>
      <point x="600" y="150" type="line"/>
      <point x="742" y="64"/>
      <point x="937" y="0"/>
      <point x="1080" y="0" type="curve" smooth="yes"/>
      <point x="1162" y="0" type="line" smooth="yes"/>
      <point x="1252" y="0"/>
      <point x="1350" y="37"/>
      <point x="1350" y="79" type="curve" smooth="yes"/>
      <point x="1350" y="559" type="line"/>
      <point x="1350" y="660"/>
      <point x="1110" y="739"/>
      <point x="1027" y="761" type="curve" smooth="yes"/>
      <point x="854" y="807"/>
      <point x="560" y="881"/>
      <point x="560" y="1072" type="curve" smooth="yes"/>
      <point x="560" y="1241"/>
      <point x="656" y="1309"/>
      <point x="799" y="1309" type="curve" smooth="yes"/>
      <point x="926" y="1309"/>
      <point x="994" y="1200"/>
      <point x="994" y="1136" type="curve"/>
      <point x="859" y="1136"/>
      <point x="799" y="1076"/>
      <point x="799" y="994" type="curve" smooth="yes"/>
      <point x="799" y="907"/>
      <point x="892" y="851"/>
      <point x="1020" y="851" type="curve" smooth="yes"/>
      <point x="1256" y="851"/>
      <point x="1350" y="952"/>
      <point x="1350" y="1117" type="curve" smooth="yes"/>
      <point x="1350" y="1339"/>
      <point x="1039" y="1440"/>
      <point x="799" y="1440" type="curve" smooth="yes"/>
      <point x="435" y="1440"/>
      <point x="225" y="1305"/>
      <point x="225" y="1050" type="curve"/>
    </contour>
  </outline>
</glyph>
<glyph name="uni1796" format="2">
  <advance width="1500"/>
  <unicode hex="1796"/>
  <anchor x="1350" y="0" name="L"/>
  <anchor x="1350" y="1440" name="U"/>
  <outline>
    <contour>
      <point x="600" y="1147" type="line"/>
      <point x="600" y="1162"/>
      <point x="600" y="1196"/>
      <point x="615" y="1196" type="curve"/>
      <point x="634" y="1196"/>
      <point x="765" y="1084"/>
      <point x="787" y="1084" type="curve" smooth="yes"/>
      <point x="809" y="1084"/>
      <point x="941" y="1196"/>
      <point x="960" y="1196" type="curve"/>
      <point x="975" y="1196"/>
      <point x="975" y="1159"/>
      <point x="975" y="1147" type="curve" smooth="yes"/>
      <point x="975" y="0" type="line"/>
      <point x="1350" y="0" type="line"/>
      <point x="1350" y="1185" type="line"/>
      <point x="1350" y="1282"/>
      <point x="1136" y="1440"/>
      <point x="994" y="1440" type="curve" smooth="yes"/>
      <point x="937" y="1440"/>
      <point x="814" y="1320"/>
      <point x="787" y="1309" type="curve"/>
      <point x="761" y="1320"/>
      <point x="637" y="1440"/>
      <point x="581" y="1440" type="curve" smooth="yes"/>
      <point x="439" y="1440"/>
      <point x="225" y="1282"/>
      <point x="225" y="1185" type="curve" smooth="yes"/>
      <point x="225" y="105" type="line"/>
      <point x="262" y="19"/>
      <point x="409" y="0"/>
      <point x="525" y="0" type="curve"/>
      <point x="735" y="41"/>
      <point x="806" y="180"/>
      <point x="806" y="259" type="curve"/>
      <point x="806" y="364"/>
      <point x="731" y="431"/>
      <point x="600" y="457" type="curve"/>
    </contour>
    <contour>
      <point x="682" y="277" type="curve" smooth="yes"/>
      <point x="682" y="221"/>
      <point x="634" y="191"/>
      <point x="600" y="180" type="curve"/>
      <point x="600" y="356" type="line"/>
      <point x="630" y="356"/>
      <point x="682" y="319"/>
    </contour>
  </outline>
</glyph>
<glyph name="uni179D" format="2">
  <advance width="1500"/>
  <unicode hex="179D"/>
  <anchor x="1387" y="0" name="L"/>
  <anchor x="1387" y="1440" name="U"/>
  <outline>
    <contour>
      <point x="600" y="0" type="line"/>
      <point x="657" y="127"/>
      <point x="698" y="172"/>
      <point x="728" y="191" type="curve" smooth="yes"/>
      <point x="807" y="240"/>
      <point x="852" y="289"/>
      <point x="852" y="337" type="curve" smooth="yes"/>
      <point x="852" y="366"/>
      <point x="846" y="392"/>
      <point x="831" y="412" type="curve"/>
      <point x="867" y="391"/>
      <point x="914" y="376"/>
      <point x="975" y="372" type="curve"/>
      <point x="975" y="0" type="line"/>
      <point x="1350" y="0" type="line"/>
      <point x="1350" y="445" type="line"/>
      <point x="1499" y="490"/>
      <point x="1575" y="670"/>
      <point x="1575" y="697" type="curve" smooth="yes"/>
      <point x="1575" y="701"/>
      <point x="1572" y="705"/>
      <point x="1568" y="705" type="curve" smooth="yes"/>
      <point x="1552" y="705"/>
      <point x="1445" y="640"/>
      <point x="1350" y="613" type="curve"/>
      <point x="1350" y="896" type="line" smooth="yes"/>
      <point x="1350" y="1005"/>
      <point x="1020" y="1102"/>
      <point x="788" y="1102" type="curve" smooth="yes"/>
      <point x="640" y="1102"/>
      <point x="453" y="1063"/>
      <point x="336" y="1006" type="curve"/>
      <point x="313" y="1027"/>
      <point x="297" y="1055"/>
      <point x="297" y="1099" type="curve" smooth="yes"/>
      <point x="297" y="1155"/>
      <point x="364" y="1192"/>
      <point x="439" y="1192" type="curve" smooth="yes"/>
      <point x="574" y="1192"/>
      <point x="698" y="1170"/>
      <point x="788" y="1114" type="curve"/>
      <point x="875" y="1169"/>
      <point x="934" y="1185"/>
      <point x="1029" y="1185" type="curve" smooth="yes"/>
      <point x="1139" y="1185"/>
      <point x="1208" y="1102"/>
      <point x="1283" y="1102" type="curve" smooth="yes"/>
      <point x="1407" y="1102"/>
      <point x="1493" y="1219"/>
      <point x="1500" y="1402" type="curve"/>
      <point x="1452" y="1354"/>
      <point x="1399" y="1346"/>
      <point x="1350" y="1346" type="curve" smooth="yes"/>
      <point x="1253" y="1346"/>
      <point x="1219" y="1440"/>
      <point x="1043" y="1440" type="curve"/>
      <point x="904" y="1440"/>
      <point x="837" y="1387"/>
      <point x="788" y="1335" type="curve"/>
      <point x="690" y="1391"/>
      <point x="567" y="1440"/>
      <point x="428" y="1440" type="curve" smooth="yes"/>
      <point x="207" y="1440"/>
      <point x="94" y="1305"/>
      <point x="94" y="1177" type="curve" smooth="yes"/>
      <point x="94" y="1086"/>
      <point x="158" y="965"/>
      <point x="225" y="904" type="curve"/>
      <point x="225" y="0" type="line"/>
    </contour>
    <contour>
      <point x="600" y="255" type="curve"/>
      <point x="600" y="900" type="line"/>
      <point x="600" y="956"/>
      <point x="735" y="971"/>
      <point x="788" y="971" type="curve" smooth="yes"/>
      <point x="840" y="971"/>
      <point x="975" y="956"/>
      <point x="975" y="900" type="curve" smooth="yes"/>
      <point x="975" y="561" type="line"/>
      <point x="924" y="572"/>
      <point x="912" y="596"/>
      <point x="912" y="615" type="curve" smooth="yes"/>
      <point x="912" y="652"/>
      <point x="938" y="679"/>
      <point x="957" y="690" type="curve"/>
      <point x="938" y="701"/>
      <point x="908" y="709"/>
      <point x="870" y="709" type="curve" smooth="yes"/>
      <point x="795" y="709"/>
      <point x="732" y="645"/>
      <point x="732" y="574" type="curve" smooth="yes"/>
      <point x="732" y="530"/>
      <point x="750" y="480"/>
      <point x="793" y="440" type="curve"/>
      <point x="782" y="444"/>
      <point x="769" y="446"/>
      <point x="754" y="446" type="curve" smooth="yes"/>
      <point x="668" y="446"/>
      <point x="630" y="356"/>
    </contour>
  </outline>
</glyph>
<glyph name="uni17A3" format="2">
  <advance width="1600"/>
  <unicode hex="17A3"/>
  <anchor x="1462" y="0" name="L"/>
  <anchor x="1462" y="1440" name="U"/>
  <outline>
    <contour>
      <point x="1450" y="915" type="line"/>
      <point x="1450" y="945"/>
      <point x="1383" y="986"/>
      <point x="1278" y="1039" type="curve" smooth="yes"/>
      <point x="1255" y="1050"/>
      <point x="1098" y="1106"/>
      <point x="1098" y="1144" type="curve" smooth="yes"/>
      <point x="1098" y="1170"/>
      <point x="1120" y="1181"/>
      <point x="1139" y="1181" type="curve" smooth="yes"/>
      <point x="1173" y="1181"/>
      <point x="1270" y="1087"/>
      <point x="1357" y="1087" type="curve" smooth="yes"/>
      <point x="1514" y="1087"/>
      <point x="1593" y="1215"/>
      <point x="1600" y="1402" type="curve"/>
      <point x="1552" y="1354"/>
      <point x="1499" y="1346"/>
      <point x="1450" y="1346" type="curve" smooth="yes"/>
      <point x="1368" y="1346"/>
      <point x="1293" y="1440"/>
      <point x="1165" y="1440" type="curve" smooth="yes"/>
      <point x="1008" y="1440"/>
      <point x="907" y="1297"/>
      <point x="907" y="1177" type="curve" smooth="yes"/>
      <point x="907" y="1121"/>
      <point x="922" y="1076"/>
      <point x="1042" y="1009" type="curve" smooth="yes"/>
      <point x="1064" y="997"/>
      <point x="1075" y="971"/>
      <point x="1075" y="915" type="curve" smooth="yes"/>
      <point x="1075" y="730" type="line"/>
      <point x="700" y="730" type="line"/>
      <point x="700" y="915" type="line" smooth="yes"/>
      <point x="700" y="945"/>
      <point x="633" y="986"/>
      <point x="528" y="1039" type="curve" smooth="yes"/>
      <point x="505" y="1050"/>
      <point x="348" y="1106"/>
      <point x="348" y="1144" type="curve" smooth="yes"/>
      <point x="348" y="1170"/>
      <point x="370" y="1181"/>
      <point x="389" y="1181" type="curve" smooth="yes"/>
      <point x="423" y="1181"/>
      <point x="520" y="1087"/>
      <point x="607" y="1087" type="curve" smooth="yes"/>
      <point x="764" y="1087"/>
      <point x="843" y="1215"/>
      <point x="850" y="1402" type="curve"/>
      <point x="802" y="1354"/>
      <point x="749" y="1346"/>
      <point x="700" y="1346" type="curve" smooth="yes"/>
      <point x="618" y="1346"/>
      <point x="543" y="1440"/>
      <point x="415" y="1440" type="curve" smooth="yes"/>
      <point x="258" y="1440"/>
      <point x="157" y="1297"/>
      <point x="157" y="1177" type="curve" smooth="yes"/>
      <point x="157" y="1121"/>
      <point x="172" y="1076"/>
      <point x="292" y="1009" type="curve" smooth="yes"/>
      <point x="314" y="997"/>
      <point x="325" y="971"/>
      <point x="325" y="915" type="curve" smooth="yes"/>
      <point x="325" y="457" type="line"/>
      <point x="194" y="431"/>
      <point x="119" y="364"/>
      <point x="119" y="259" type="curve"/>
      <point x="119" y="180"/>
      <point x="190" y="41"/>
      <point x="400" y="0" type="curve"/>
      <point x="517" y="0"/>
      <point x="663" y="19"/>
      <point x="700" y="105" type="curve"/>
      <point x="700" y="562" type="line"/>
      <point x="1075" y="562" type="line"/>
      <point x="1075" y="457" type="line"/>
      <point x="944" y="431"/>
      <point x="869" y="364"/>
      <point x="869" y="259" type="curve"/>
      <point x="869" y="180"/>
      <point x="940" y="41"/>
      <point x="1150" y="0" type="curve"/>
      <point x="1267" y="0"/>
      <point x="1413" y="19"/>
      <point x="1450" y="105" type="curve"/>
    </contour>
    <contour>
      <point x="325" y="180" type="line"/>
      <point x="292" y="191"/>
      <point x="243" y="221"/>
      <point x="243" y="277" type="curve"/>
      <point x="243" y="319"/>
      <point x="295" y="356"/>
      <point x="325" y="356" type="curve"/>
    </contour>
    <contour>
      <point x="1075" y="180" type="line"/>
      <point x="1042" y="191"/>
      <point x="993" y="221"/>
      <point x="993" y="277" type="curve"/>
      <point x="993" y="319"/>
      <point x="1045" y="356"/>
      <point x="1075" y="356" type="curve"/>
    </contour>
  </outline>
</glyph>
<glyph name="uni17A9" format="2">
  <advance width="1950"/>
  <unicode hex="17A9"/>
  <anchor x="1800" y="0" name="L"/>
  <anchor x="1312" y="1440" name="U"/>
  <outline>
    <contour>
      <point x="1445" y="0" type="line"/>
      <point x="1820" y="0" type="line"/>
      <point x="1820" y="487" type="line"/>
      <point x="1445" y="487" type="line"/>
    </contour>
    <contour>
      <point x="940" y="322" type="line"/>
      <point x="895" y="251"/>
      <point x="794" y="150"/>
      <point x="700" y="150" type="curve"/>
      <point x="610" y="150"/>
      <point x="502" y="236"/>
      <point x="502" y="300" type="curve" smooth="yes"/>
      <point x="502" y="311"/>
      <point x="513" y="322"/>
      <point x="524" y="326" type="curve"/>
      <point x="648" y="364"/>
      <point x="1315" y="727"/>
      <point x="1315" y="1065" type="curve" smooth="yes"/>
      <point x="1315" y="1301"/>
      <point x="1128" y="1440"/>
      <point x="723" y="1440" type="curve" smooth="yes"/>
      <point x="490" y="1440"/>
      <point x="190" y="1339"/>
      <point x="190" y="1121" type="curve" smooth="yes"/>
      <point x="190" y="1009"/>
      <point x="250" y="930"/>
      <point x="344" y="878" type="curve" smooth="yes"/>
      <point x="378" y="859"/>
      <point x="453" y="844"/>
      <point x="520" y="844" type="curve" smooth="yes"/>
      <point x="648" y="844"/>
      <point x="775" y="900"/>
      <point x="775" y="986" type="curve" smooth="yes"/>
      <point x="775" y="1046"/>
      <point x="757" y="1102"/>
      <point x="633" y="1102" type="curve" smooth="yes"/>
      <point x="610" y="1102"/>
      <point x="584" y="1076"/>
      <point x="562" y="1076" type="curve" smooth="yes"/>
      <point x="539" y="1076"/>
      <point x="528" y="1084"/>
      <point x="528" y="1129" type="curve" smooth="yes"/>
      <point x="528" y="1241"/>
      <point x="599" y="1327"/>
      <point x="742" y="1327" type="curve" smooth="yes"/>
      <point x="873" y="1327"/>
      <point x="940" y="1252"/>
      <point x="940" y="1065" type="curve" smooth="yes"/>
      <point x="940" y="776"/>
      <point x="307" y="424"/>
      <point x="190" y="390" type="curve"/>
      <point x="190" y="191"/>
      <point x="408" y="0"/>
      <point x="682" y="0" type="curve"/>
      <point x="790" y="0"/>
      <point x="880" y="45"/>
      <point x="940" y="112" type="curve"/>
      <point x="940" y="0" type="line"/>
      <point x="1315" y="0" type="line"/>
      <point x="1315" y="487" type="line"/>
      <point x="940" y="487" type="line"/>
    </contour>
  </outline>
</glyph>
<glyph name="uni17AE" format="2">
  <advance width="1500"/>
  <unicode hex="17AE"/>
  <anchor x="1350" y="-634" name="L"/>
  <anchor x="1350" y="1440" name="U"/>
  <outline>
    <contour>
      <point x="922" y="-248" type="curve" smooth="yes"/>
      <point x="922" y="-334"/>
      <point x="994" y="-353"/>
      <point x="1057" y="-360" type="curve"/>
      <point x="1057" y="-394"/>
      <point x="1024" y="-424"/>
      <point x="982" y="-424" type="curve" smooth="yes"/>
      <point x="922" y="-424"/>
      <point x="844" y="-353"/>
      <point x="817" y="-326" type="curve"/>
      <point x="727" y="-225"/>
      <point x="630" y="-161"/>
      <point x="454" y="-161" type="curve" smooth="yes"/>
      <point x="255" y="-161"/>
      <point x="169" y="-375"/>
      <point x="165" y="-443" type="curve"/>
      <point x="214" y="-371"/>
      <point x="349" y="-338"/>
      <point x="401" y="-338" type="curve" smooth="yes"/>
      <point x="502" y="-338"/>
      <point x="555" y="-386"/>
      <point x="620" y="-449" type="curve" smooth="yes"/>
      <point x="746" y="-574"/>
      <point x="832" y="-600"/>
      <point x="956" y="-600" type="curve" smooth="yes"/>
      <point x="1012" y="-600"/>
      <point x="1069" y="-585"/>
      <point x="1106" y="-566" type="curve"/>
      <point x="1136" y="-596"/>
      <point x="1207" y="-634"/>
      <point x="1290" y="-634" type="curve" smooth="yes"/>
      <point x="1425" y="-634"/>
      <point x="1474" y="-563"/>
      <point x="1504" y="-465" type="curve"/>
      <point x="1492" y="-476"/>
      <point x="1421" y="-499"/>
      <point x="1350" y="-499" type="curve" smooth="yes"/>
      <point x="1316" y="-499"/>
      <point x="1282" y="-491"/>
      <point x="1271" y="-480" type="curve"/>
      <point x="1320" y="-446"/>
      <point x="1350" y="-394"/>
      <point x="1350" y="-296" type="curve" smooth="yes"/>
      <point x="1350" y="-191"/>
      <point x="1282" y="-131"/>
      <point x="1117" y="-131" type="curve" smooth="yes"/>
      <point x="1012" y="-131"/>
      <point x="922" y="-180"/>
    </contour>
    <contour>
      <point x="600" y="1147" type="line"/>
      <point x="600" y="1162"/>
      <point x="600" y="1196"/>
      <point x="615" y="1196" type="curve"/>
      <point x="634" y="1196"/>
      <point x="765" y="1084"/>
      <point x="787" y="1084" type="curve" smooth="yes"/>
      <point x="809" y="1084"/>
      <point x="941" y="1196"/>
      <point x="960" y="1196" type="curve"/>
      <point x="975" y="1196"/>
      <point x="975" y="1159"/>
      <point x="975" y="1147" type="curve" smooth="yes"/>
      <point x="975" y="0" type="line"/>
      <point x="1350" y="0" type="line"/>
      <point x="1350" y="1185" type="line"/>
      <point x="1350" y="1282"/>
      <point x="1136" y="1440"/>
      <point x="994" y="1440" type="curve" smooth="yes"/>
      <point x="937" y="1440"/>
      <point x="814" y="1320"/>
      <point x="787" y="1309" type="curve"/>
      <point x="761" y="1320"/>
      <point x="637" y="1440"/>
      <point x="581" y="1440" type="curve" smooth="yes"/>
      <point x="439" y="1440"/>
      <point x="225" y="1282"/>
      <point x="225" y="1185" type="curve" smooth="yes"/>
      <point x="225" y="105" type="line"/>
      <point x="262" y="19"/>
      <point x="409" y="0"/>
      <point x="525" y="0" type="curve"/>
      <point x="735" y="41"/>
      <point x="806" y="180"/>
      <point x="806" y="259" type="curve"/>
      <point x="806" y="364"/>
      <point x="731" y="431"/>
      <point x="600" y="457" type="curve"/>
    </contour>
    <contour>
      <point x="682" y="277" type="curve" smooth="yes"/>
      <point x="682" y="221"/>
      <point x="634" y="191"/>
      <point x="600" y="180" type="curve"/>
      <point x="600" y="356" type="line"/>
      <point x="630" y="356"/>
      <point x="682" y="319"/>
    </contour>
  </outline>
</glyph>
<glyph name="uni17BA" format="2">
  <unicode hex="17BA"/>
  <anchor x="-150" y="2197" name="U"/>
  <anchor x="-150" y="1440" name="_U"/>
  <outline>
    <contour>
      <point x="-173" y="1590" type="line" smooth="yes"/>
      <point x="-154" y="1590"/>
      <point x="-135" y="1594"/>
      <point x="-116" y="1605" type="curve"/>
      <point x="-8" y="1684"/>
      <point x="15" y="1856"/>
      <point x="15" y="1942" type="curve" smooth="yes"/>
      <point x="15" y="1991"/>
      <point x="4" y="2066"/>
      <point x="-56" y="2126" type="curve" smooth="yes"/>
      <point x="-86" y="2156"/>
      <point x="-146" y="2164"/>
      <point x="-176" y="2164" type="curve" smooth="yes"/>
      <point x="-218" y="2164"/>
      <point x="-278" y="2145"/>
      <point x="-278" y="2089" type="curve" smooth="yes"/>
      <point x="-278" y="2062"/>
      <point x="-270" y="2044"/>
      <point x="-259" y="2025" type="curve"/>
      <point x="-218" y="1976"/>
      <point x="-210" y="1916"/>
      <point x="-210" y="1871" type="curve"/>
      <point x="-252" y="1911"/>
      <point x="-304" y="1949"/>
      <point x="-362" y="1982" type="curve"/>
      <point x="-349" y="2036"/>
      <point x="-345" y="2089"/>
      <point x="-345" y="2126" type="curve" smooth="yes"/>
      <point x="-345" y="2175"/>
      <point x="-356" y="2250"/>
      <point x="-416" y="2310" type="curve" smooth="yes"/>
      <point x="-446" y="2340"/>
      <point x="-506" y="2347"/>
      <point x="-536" y="2347" type="curve" smooth="yes"/>
      <point x="-578" y="2347"/>
      <point x="-638" y="2329"/>
      <point x="-638" y="2272" type="curve" smooth="yes"/>
      <point x="-638" y="2246"/>
      <point x="-630" y="2227"/>
      <point x="-619" y="2209" type="curve"/>
      <point x="-582" y="2165"/>
      <point x="-572" y="2113"/>
      <point x="-570" y="2071" type="curve"/>
      <point x="-627" y="2086"/>
      <point x="-686" y="2096"/>
      <point x="-743" y="2096" type="curve" smooth="yes"/>
      <point x="-990" y="2096"/>
      <point x="-1238" y="1957"/>
      <point x="-1238" y="1819" type="curve" smooth="yes"/>
      <point x="-1238" y="1706"/>
      <point x="-1133" y="1665"/>
      <point x="-986" y="1665" type="curve" smooth="yes"/>
      <point x="-938" y="1665"/>
      <point x="-893" y="1669"/>
      <point x="-848" y="1673" type="curve" smooth="yes"/>
      <point x="-814" y="1676"/>
      <point x="-784" y="1676"/>
      <point x="-773" y="1676" type="curve" smooth="yes"/>
      <point x="-653" y="1676"/>
      <point x="-529" y="1650"/>
      <point x="-428" y="1627" type="curve" smooth="yes"/>
      <point x="-353" y="1609"/>
      <point x="-259" y="1590"/>
      <point x="-206" y="1590" type="curve" smooth="yes"/>
    </contour>
    <contour>
      <point x="-765" y="1845" type="curve" smooth="yes"/>
      <point x="-791" y="1845"/>
      <point x="-844" y="1841"/>
      <point x="-863" y="1841" type="curve" smooth="yes"/>
      <point x="-900" y="1841"/>
      <point x="-919" y="1845"/>
      <point x="-919" y="1871" type="curve" smooth="yes"/>
      <point x="-919" y="1901"/>
      <point x="-866" y="1927"/>
      <point x="-769" y="1927" type="curve" smooth="yes"/>
      <point x="-585" y="1927"/>
      <point x="-450" y="1852"/>
      <point x="-383" y="1789" type="curve"/>
      <point x="-458" y="1811"/>
      <point x="-656" y="1845"/>
    </contour>
  </outline>
</glyph>
<glyph name="uni17C1" format="2">
  <advance width="825"/>
  <unicode hex="17C1"/>
  <outline>
    <contour>
      <point x="600" y="457" type="curve"/>
      <point x="600" y="915" type="line"/>
      <point x="600" y="945"/>
      <point x="533" y="986"/>
      <point x="428" y="1039" type="curve"/>
      <point x="405" y="1050"/>
      <point x="248" y="1106"/>
      <point x="248" y="1144" type="curve"/>
      <point x="248" y="1170"/>
      <point x="270" y="1181"/>
      <point x="289" y="1181" type="curve" smooth="yes"/>
      <point x="323" y="1181"/>
      <point x="420" y="1087"/>
      <point x="507" y="1087" type="curve"/>
      <point x="664" y="1087"/>
      <point x="743" y="1215"/>
      <point x="750" y="1402" type="curve"/>
      <point x="702" y="1354"/>
      <point x="649" y="1346"/>
      <point x="600" y="1346" type="curve" smooth="yes"/>
      <point x="518" y="1346"/>
      <point x="443" y="1440"/>
      <point x="315" y="1440" type="curve"/>
      <point x="158" y="1440"/>
      <point x="57" y="1297"/>
      <point x="57" y="1177" type="curve"/>
      <point x="57" y="1121"/>
      <point x="72" y="1076"/>
      <point x="192" y="1009" type="curve"/>
      <point x="214" y="997"/>
      <point x="225" y="971"/>
      <point x="225" y="915" type="curve"/>
      <point x="225" y="105" type="line"/>
      <point x="263" y="19"/>
      <point x="409" y="0"/>
      <point x="525" y="0" type="curve"/>
      <point x="728" y="41"/>
      <point x="825" y="184"/>
      <point x="825" y="255" type="curve"/>
      <point x="825" y="360"/>
      <point x="732" y="431"/>
    </contour>
    <contour>
      <point x="702" y="277" type="curve" smooth="yes"/>
      <point x="702" y="221"/>
      <point x="634" y="172"/>
      <point x="600" y="161" type="curve"/>
      <point x="600" y="356" type="line"/>
      <point x="630" y="356"/>
      <point x="702" y="319"/>
    </contour>
  </outline>
</glyph>
<glyph name="uni17C2" format="2">
  <advance width="825"/>
  <unicode hex="17C2"/>
  <outline>
    <contour>
      <point x="450" y="1920" type="curve" smooth="yes"/>
      <point x="450" y="1999"/>
      <point x="345" y="2029"/>
      <point x="259" y="2029" type="curve" smooth="yes"/>
      <point x="109" y="2029"/>
      <point x="0" y="1965"/>
      <point x="0" y="1852" type="curve" smooth="yes"/>
      <point x="0" y="1729"/>
      <point x="132" y="1590"/>
      <point x="383" y="1590" type="curve" smooth="yes"/>
      <point x="638" y="1590"/>
      <point x="863" y="1687"/>
      <point x="863" y="1946" type="curve" smooth="yes"/>
      <point x="863" y="2017"/>
      <point x="852" y="2092"/>
      <point x="788" y="2149" type="curve" smooth="yes"/>
      <point x="735" y="2197"/>
      <point x="675" y="2224"/>
      <point x="559" y="2224" type="curve" smooth="yes"/>
      <point x="477" y="2224"/>
      <point x="428" y="2167"/>
      <point x="428" y="2137" type="curve" smooth="yes"/>
      <point x="428" y="2092"/>
      <point x="443" y="2074"/>
      <point x="492" y="2032" type="curve" smooth="yes"/>
      <point x="522" y="2006"/>
      <point x="525" y="1961"/>
      <point x="525" y="1916" type="curve" smooth="yes"/>
      <point x="525" y="1830"/>
      <point x="477" y="1721"/>
      <point x="405" y="1721" type="curve" smooth="yes"/>
      <point x="364" y="1721"/>
      <point x="338" y="1774"/>
      <point x="338" y="1819" type="curve"/>
      <point x="390" y="1834"/>
      <point x="450" y="1871"/>
    </contour>
    <contour>
      <point x="600" y="457" type="curve"/>
      <point x="600" y="915" type="line"/>
      <point x="600" y="945"/>
      <point x="533" y="986"/>
      <point x="428" y="1039" type="curve"/>
      <point x="405" y="1050"/>
      <point x="248" y="1106"/>
      <point x="248" y="1144" type="curve"/>
      <point x="248" y="1170"/>
      <point x="270" y="1181"/>
      <point x="289" y="1181" type="curve" smooth="yes"/>
      <point x="323" y="1181"/>
      <point x="420" y="1087"/>
      <point x="507" y="1087" type="curve"/>
      <point x="664" y="1087"/>
      <point x="743" y="1215"/>
      <point x="750" y="1402" type="curve"/>
      <point x="702" y="1354"/>
      <point x="649" y="1346"/>
      <point x="600" y="1346" type="curve" smooth="yes"/>
      <point x="518" y="1346"/>
      <point x="443" y="1440"/>
      <point x="315" y="1440" type="curve"/>
      <point x="158" y="1440"/>
      <point x="57" y="1297"/>
      <point x="57" y="1177" type="curve"/>
      <point x="57" y="1121"/>
      <point x="72" y="1076"/>
      <point x="192" y="1009" type="curve"/>
      <point x="214" y="997"/>
      <point x="225" y="971"/>
      <point x="225" y="915" type="curve"/>
      <point x="225" y="105" type="line"/>
      <point x="263" y="19"/>
      <point x="409" y="0"/>
      <point x="525" y="0" type="curve"/>
      <point x="728" y="41"/>
      <point x="825" y="184"/>
      <point x="825" y="255" type="curve"/>
      <point x="825" y="360"/>
      <point x="732" y="431"/>
    </contour>
    <contour>
      <point x="702" y="277" type="curve" smooth="yes"/>
      <point x="702" y="221"/>
      <point x="634" y="172"/>
      <point x="600" y="161" type="curve"/>
      <point x="600" y="356" type="line"/>
      <point x="630" y="356"/>
      <point x="702" y="319"/>
    </contour>
  </outline>
</glyph>
<glyph name="uni17C8" format="2">
  <advance width="848"/>
  <unicode hex="17C8"/>
  <outline>
    <contour>
      <point x="180" y="975" type="curve" smooth="yes"/>
      <point x="180" y="870"/>
      <point x="278" y="787"/>
      <point x="394" y="787" type="curve" smooth="yes"/>
      <point x="510" y="787"/>
      <point x="608" y="870"/>
      <point x="608" y="975" type="curve" smooth="yes"/>
      <point x="608" y="1080"/>
      <point x="510" y="1162"/>
      <point x="394" y="1162" type="curve" smooth="yes"/>
      <point x="278" y="1162"/>
      <point x="180" y="1080"/>
    </contour>
    <contour>
      <point x="180" y="319" type="curve" smooth="yes"/>
      <point x="180" y="214"/>
      <point x="278" y="131"/>
      <point x="394" y="131" type="curve" smooth="yes"/>
      <point x="510" y="131"/>
      <point x="608" y="214"/>
      <point x="608" y="319" type="curve" smooth="yes"/>
      <point x="608" y="424"/>
      <point x="510" y="506"/>
      <point x="394" y="506" type="curve" smooth="yes"/>
      <point x="278" y="506"/>
      <point x="180" y="424"/>
    </contour>
  </outline>
</glyph>
<glyph name="uni17CC" format="2">
  <unicode hex="17CC"/>
  <anchor x="-150" y="2036" name="U"/>
  <anchor x="-150" y="1440" name="_U"/>
  <anchor x="-713" y="1440" name="_UM"/>
  <outline>
    <contour>
      <point x="-888" y="1480" type="curve"/>
      <point x="-757" y="1552" type="line"/>
      <point x="-787" y="1705"/>
      <point x="-985" y="1705"/>
      <point x="-985" y="1758" type="curve" smooth="yes"/>
      <point x="-985" y="1799"/>
      <point x="-940" y="1867"/>
      <point x="-850" y="1867" type="curve" smooth="yes"/>
      <point x="-745" y="1867"/>
      <point x="-637" y="1713"/>
      <point x="-475" y="1713" type="curve" smooth="yes"/>
      <point x="-307" y="1713"/>
      <point x="-205" y="1885"/>
      <point x="-205" y="2005" type="curve" smooth="yes"/>
      <point x="-205" y="2043"/>
      <point x="-273" y="2080"/>
      <point x="-318" y="2080" type="curve" smooth="yes"/>
      <point x="-359" y="2080"/>
      <point x="-427" y="2050"/>
      <point x="-427" y="2017" type="curve" smooth="yes"/>
      <point x="-427" y="1983"/>
      <point x="-449" y="1927"/>
      <point x="-505" y="1927" type="curve" smooth="yes"/>
      <point x="-577" y="1927"/>
      <point x="-663" y="2043"/>
      <point x="-820" y="2043" type="curve" smooth="yes"/>
      <point x="-1087" y="2043"/>
      <point x="-1229" y="1870"/>
      <point x="-1229" y="1754" type="curve" smooth="yes"/>
      <point x="-1229" y="1544"/>
      <point x="-937" y="1630"/>
    </contour>
  </outline>
</glyph>
<glyph name="uni17D3" format="2">
  <unicode hex="17D3"/>
  <anchor x="-150" y="1961" name="U"/>
  <anchor x="-150" y="1440" name="_U"/>
  <anchor x="-713" y="1440" name="_UM"/>
  <outline>
    <contour>
      <point x="-866" y="1815" type="curve" smooth="yes"/>
      <point x="-866" y="1856"/>
      <point x="-825" y="1909"/>
      <point x="-773" y="1909" type="curve" smooth="yes"/>
      <point x="-660" y="1909" type="line"/>
      <point x="-608" y="1909"/>
      <point x="-566" y="1867"/>
      <point x="-566" y="1815" type="curve" smooth="yes"/>
      <point x="-566" y="1762"/>
      <point x="-608" y="1721"/>
      <point x="-660" y="1721" type="curve" smooth="yes"/>
      <point x="-773" y="1721" type="line"/>
      <point x="-825" y="1721"/>
      <point x="-866" y="1770"/>
    </contour>
    <contour>
      <point x="-1129" y="1815" type="curve" smooth="yes"/>
      <point x="-1129" y="1702"/>
      <point x="-1013" y="1590"/>
      <point x="-825" y="1590" type="curve"/>
      <point x="-600" y="1590" type="line"/>
      <point x="-413" y="1590"/>
      <point x="-296" y="1691"/>
      <point x="-296" y="1815" type="curve"/>
      <point x="-296" y="1939"/>
      <point x="-413" y="2040"/>
      <point x="-600" y="2040" type="curve"/>
      <point x="-825" y="2040" type="line"/>
      <point x="-1013" y="2040"/>
      <point x="-1129" y="1927"/>
    </contour>
  </outline>
</glyph>
<glyph name="uni17D4" format="2">
  <advance width="1725"/>
  <unicode hex="17D4"/>
  <outline>
    <contour>
      <point x="1575" y="0" type="line"/>
      <point x="1575" y="1440" type="line"/>
      <point x="1200" y="1440" type="line"/>
      <point x="1200" y="1264"/>
      <point x="1095" y="1114"/>
      <point x="1002" y="1114" type="curve" smooth="yes"/>
      <point x="966" y="1114"/>
      <point x="931" y="1155"/>
      <point x="931" y="1193" type="curve" smooth="yes"/>
      <point x="931" y="1199"/>
      <point x="932" y="1205"/>
      <point x="938" y="1215" type="curve"/>
      <point x="1017" y="1222"/>
      <point x="1092" y="1282"/>
      <point x="1092" y="1357" type="curve"/>
      <point x="1092" y="1410"/>
      <point x="1032" y="1477"/>
      <point x="863" y="1477" type="curve"/>
      <point x="698" y="1477"/>
      <point x="600" y="1372"/>
      <point x="600" y="1226" type="curve"/>
      <point x="600" y="1095"/>
      <point x="732" y="971"/>
      <point x="968" y="971" type="curve"/>
      <point x="1035" y="971"/>
      <point x="1152" y="1009"/>
      <point x="1200" y="1061" type="curve"/>
      <point x="1200" y="0" type="line"/>
    </contour>
  </outline>
</glyph>
<glyph name="uni17D7" format="2">
  <advance width="1837"/>
  <unicode hex="17D7"/>
  <outline>
    <contour>
      <point x="1069" y="146" type="line"/>
      <point x="1069" y="-75"/>
      <point x="1020" y="-128"/>
      <point x="937" y="-128" type="curve" smooth="yes"/>
      <point x="877" y="-128"/>
      <point x="832" y="-94"/>
      <point x="817" y="-26" type="curve" smooth="yes"/>
      <point x="806" y="22"/>
      <point x="712" y="45"/>
      <point x="645" y="45" type="curve" smooth="yes"/>
      <point x="532" y="45"/>
      <point x="469" y="-8"/>
      <point x="469" y="-53" type="curve"/>
      <point x="469" y="-158"/>
      <point x="637" y="-278"/>
      <point x="937" y="-278" type="curve" smooth="yes"/>
      <point x="1237" y="-278"/>
      <point x="1444" y="-188"/>
      <point x="1444" y="131" type="curve" smooth="yes"/>
      <point x="1444" y="1147" type="line"/>
      <point x="1429" y="1279"/>
      <point x="1241" y="1440"/>
      <point x="1091" y="1440" type="curve"/>
      <point x="896" y="1440"/>
      <point x="810" y="1324"/>
      <point x="791" y="1286" type="curve"/>
      <point x="772" y="1324"/>
      <point x="686" y="1440"/>
      <point x="491" y="1440" type="curve"/>
      <point x="341" y="1440"/>
      <point x="225" y="1279"/>
      <point x="225" y="1110" type="curve" smooth="yes"/>
      <point x="225" y="859"/>
      <point x="356" y="705"/>
      <point x="592" y="705" type="curve" smooth="yes"/>
      <point x="761" y="705"/>
      <point x="892" y="784"/>
      <point x="892" y="892" type="curve" smooth="yes"/>
      <point x="892" y="979"/>
      <point x="791" y="1046"/>
      <point x="709" y="1046" type="curve" smooth="yes"/>
      <point x="649" y="1046"/>
      <point x="577" y="1012"/>
      <point x="547" y="982" type="curve"/>
      <point x="525" y="994"/>
      <point x="510" y="1020"/>
      <point x="510" y="1072" type="curve"/>
      <point x="510" y="1087"/>
      <point x="514" y="1106"/>
      <point x="521" y="1125" type="curve"/>
      <point x="547" y="1177"/>
      <point x="577" y="1196"/>
      <point x="619" y="1196" type="curve" smooth="yes"/>
      <point x="686" y="1196"/>
      <point x="776" y="1084"/>
      <point x="791" y="1084" type="curve" smooth="yes"/>
      <point x="806" y="1084"/>
      <point x="866" y="1196"/>
      <point x="956" y="1196" type="curve" smooth="yes"/>
      <point x="1009" y="1196"/>
      <point x="1069" y="1132"/>
      <point x="1069" y="1072" type="curve" smooth="yes"/>
    </contour>
  </outline>
</glyph>
<glyph name="uni17E0" format="2">
  <advance width="1425"/>
  <unicode hex="17E0"/>
  <outline>
    <contour>
      <point x="150" y="720" type="curve" smooth="yes"/>
      <point x="150" y="379"/>
      <point x="337" y="0"/>
      <point x="712" y="0" type="curve"/>
      <point x="1087" y="0"/>
      <point x="1275" y="379"/>
      <point x="1275" y="720" type="curve"/>
      <point x="1275" y="1061"/>
      <point x="1087" y="1440"/>
      <point x="712" y="1440" type="curve"/>
      <point x="337" y="1440"/>
      <point x="150" y="1061"/>
    </contour>
    <contour>
      <point x="525" y="720" type="curve" smooth="yes"/>
      <point x="525" y="994"/>
      <point x="581" y="1309"/>
      <point x="712" y="1309" type="curve"/>
      <point x="844" y="1309"/>
      <point x="900" y="994"/>
      <point x="900" y="720" type="curve"/>
      <point x="900" y="446"/>
      <point x="844" y="131"/>
      <point x="712" y="131" type="curve"/>
      <point x="581" y="131"/>
      <point x="525" y="446"/>
    </contour>
  </outline>
</glyph>
<glyph name="uni17E1" format="2">
  <advance width="1462"/>
  <unicode hex="17E1"/>
  <outline>
    <contour>
      <point x="600" y="555" type="curve" smooth="yes"/>
      <point x="720" y="555"/>
      <point x="881" y="577"/>
      <point x="881" y="787" type="curve" smooth="yes"/>
      <point x="881" y="892"/>
      <point x="791" y="960"/>
      <point x="712" y="960" type="curve" smooth="yes"/>
      <point x="626" y="960"/>
      <point x="581" y="900"/>
      <point x="581" y="844" type="curve" smooth="yes"/>
      <point x="581" y="795"/>
      <point x="615" y="742"/>
      <point x="671" y="739" type="curve"/>
      <point x="671" y="716"/>
      <point x="664" y="705"/>
      <point x="626" y="705" type="curve" smooth="yes"/>
      <point x="570" y="705"/>
      <point x="525" y="814"/>
      <point x="525" y="919" type="curve"/>
      <point x="525" y="1140"/>
      <point x="630" y="1271"/>
      <point x="712" y="1271" type="curve"/>
      <point x="802" y="1271"/>
      <point x="937" y="1207"/>
      <point x="937" y="799" type="curve" smooth="yes"/>
      <point x="937" y="499"/>
      <point x="694" y="94"/>
      <point x="416" y="94" type="curve"/>
      <point x="341" y="94"/>
      <point x="316" y="95"/>
      <point x="255" y="112" type="curve"/>
      <point x="304" y="34"/>
      <point x="461" y="0"/>
      <point x="596" y="0" type="curve"/>
      <point x="915" y="0"/>
      <point x="1275" y="251"/>
      <point x="1275" y="757" type="curve"/>
      <point x="1275" y="1282"/>
      <point x="1009" y="1440"/>
      <point x="705" y="1440" type="curve" smooth="yes"/>
      <point x="405" y="1440"/>
      <point x="150" y="1271"/>
      <point x="150" y="956" type="curve"/>
      <point x="150" y="724"/>
      <point x="315" y="555"/>
    </contour>
  </outline>
</glyph>
<glyph name="uni17E2" format="2">
  <advance width="2025"/>
  <unicode hex="17E2"/>
  <outline>
    <contour>
      <point x="1425" y="289" type="line"/>
      <point x="1425" y="240"/>
      <point x="1072" y="206"/>
      <point x="975" y="206" type="curve" smooth="yes"/>
      <point x="877" y="206"/>
      <point x="600" y="240"/>
      <point x="600" y="289" type="curve" smooth="yes"/>
      <point x="600" y="1406" type="line"/>
      <point x="600" y="1641"/>
      <point x="510" y="1770"/>
      <point x="238" y="1770" type="curve" smooth="yes"/>
      <point x="99" y="1770"/>
      <point x="-2" y="1716"/>
      <point x="-75" y="1590" type="curve"/>
      <point x="-24" y="1633"/>
      <point x="17" y="1646"/>
      <point x="66" y="1646" type="curve" smooth="yes"/>
      <point x="159" y="1646"/>
      <point x="225" y="1590"/>
      <point x="225" y="1387" type="curve" smooth="yes"/>
      <point x="225" y="176" type="line" smooth="yes"/>
      <point x="225" y="71"/>
      <point x="694" y="0"/>
      <point x="975" y="0" type="curve" smooth="yes"/>
      <point x="1256" y="0"/>
      <point x="1800" y="71"/>
      <point x="1800" y="176" type="curve" smooth="yes"/>
      <point x="1800" y="1185" type="line"/>
      <point x="1800" y="1282"/>
      <point x="1586" y="1440"/>
      <point x="1444" y="1440" type="curve" smooth="yes"/>
      <point x="1387" y="1440"/>
      <point x="1264" y="1320"/>
      <point x="1237" y="1309" type="curve"/>
      <point x="1211" y="1320"/>
      <point x="1087" y="1440"/>
      <point x="1031" y="1440" type="curve" smooth="yes"/>
      <point x="889" y="1440"/>
      <point x="675" y="1282"/>
      <point x="675" y="1185" type="curve" smooth="yes"/>
      <point x="675" y="630" type="line"/>
      <point x="712" y="544"/>
      <point x="859" y="525"/>
      <point x="975" y="525" type="curve"/>
      <point x="1185" y="566"/>
      <point x="1256" y="705"/>
      <point x="1256" y="784" type="curve"/>
      <point x="1256" y="889"/>
      <point x="1181" y="956"/>
      <point x="1050" y="982" type="curve"/>
      <point x="1050" y="1147" type="line" smooth="yes"/>
      <point x="1050" y="1162"/>
      <point x="1050" y="1196"/>
      <point x="1065" y="1196" type="curve"/>
      <point x="1084" y="1196"/>
      <point x="1215" y="1084"/>
      <point x="1237" y="1084" type="curve" smooth="yes"/>
      <point x="1259" y="1084"/>
      <point x="1391" y="1196"/>
      <point x="1410" y="1196" type="curve"/>
      <point x="1425" y="1196"/>
      <point x="1425" y="1159"/>
      <point x="1425" y="1147" type="curve" smooth="yes"/>
    </contour>
    <contour>
      <point x="1132" y="802" type="curve" smooth="yes"/>
      <point x="1132" y="746"/>
      <point x="1084" y="716"/>
      <point x="1050" y="705" type="curve"/>
      <point x="1050" y="881" type="line"/>
      <point x="1080" y="881"/>
      <point x="1132" y="844"/>
    </contour>
  </outline>
</glyph>
<glyph name="uni17E3" format="2">
  <advance width="2025"/>
  <unicode hex="17E3"/>
  <outline>
    <contour>
      <point x="600" y="1207" type="line"/>
      <point x="600" y="1256"/>
      <point x="671" y="1271"/>
      <point x="709" y="1271" type="curve" smooth="yes"/>
      <point x="742" y="1271"/>
      <point x="825" y="1256"/>
      <point x="825" y="1207" type="curve" smooth="yes"/>
      <point x="825" y="0" type="line"/>
      <point x="1200" y="0" type="line"/>
      <point x="1200" y="1181" type="line" smooth="yes"/>
      <point x="1200" y="1249"/>
      <point x="1275" y="1271"/>
      <point x="1312" y="1271" type="curve" smooth="yes"/>
      <point x="1350" y="1271"/>
      <point x="1425" y="1256"/>
      <point x="1425" y="1207" type="curve" smooth="yes"/>
      <point x="1425" y="0" type="line"/>
      <point x="1800" y="0" type="line"/>
      <point x="1800" y="1260" type="line" smooth="yes"/>
      <point x="1800" y="1365"/>
      <point x="1560" y="1440"/>
      <point x="1312" y="1440" type="curve" smooth="yes"/>
      <point x="1204" y="1440"/>
      <point x="1099" y="1425"/>
      <point x="1012" y="1399" type="curve"/>
      <point x="926" y="1425"/>
      <point x="814" y="1440"/>
      <point x="709" y="1440" type="curve" smooth="yes"/>
      <point x="461" y="1440"/>
      <point x="225" y="1365"/>
      <point x="225" y="1260" type="curve" smooth="yes"/>
      <point x="225" y="105" type="line"/>
      <point x="263" y="19"/>
      <point x="409" y="0"/>
      <point x="525" y="0" type="curve"/>
      <point x="735" y="41"/>
      <point x="807" y="180"/>
      <point x="807" y="259" type="curve" smooth="yes"/>
      <point x="807" y="364"/>
      <point x="732" y="431"/>
      <point x="600" y="457" type="curve"/>
    </contour>
    <contour>
      <point x="683" y="277" type="curve" smooth="yes"/>
      <point x="683" y="221"/>
      <point x="634" y="191"/>
      <point x="600" y="180" type="curve"/>
      <point x="600" y="356" type="line"/>
      <point x="630" y="356"/>
      <point x="683" y="319"/>
    </contour>
  </outline>
</glyph>
<glyph name="uni17E5" format="2">
  <advance width="1500"/>
  <unicode hex="17E5"/>
  <outline>
    <contour>
      <point x="514" y="1312" type="curve" smooth="yes"/>
      <point x="551" y="1312"/>
      <point x="581" y="1237"/>
      <point x="581" y="1181" type="curve" smooth="yes"/>
      <point x="581" y="1125"/>
      <point x="551" y="1080"/>
      <point x="514" y="1061" type="curve"/>
      <point x="480" y="1061"/>
      <point x="450" y="1125"/>
      <point x="450" y="1181" type="curve" smooth="yes"/>
      <point x="450" y="1237"/>
      <point x="476" y="1312"/>
    </contour>
    <contour>
      <point x="521" y="1440" type="curve" smooth="yes"/>
      <point x="289" y="1440"/>
      <point x="187" y="1275"/>
      <point x="187" y="1170" type="curve" smooth="yes"/>
      <point x="187" y="1099"/>
      <point x="244" y="1005"/>
      <point x="352" y="945" type="curve"/>
      <point x="334" y="926"/>
      <point x="319" y="907"/>
      <point x="296" y="885" type="curve"/>
      <point x="255" y="829"/>
      <point x="150" y="686"/>
      <point x="150" y="499" type="curve" smooth="yes"/>
      <point x="150" y="139"/>
      <point x="345" y="0"/>
      <point x="502" y="0" type="curve" smooth="yes"/>
      <point x="596" y="0"/>
      <point x="664" y="30"/>
      <point x="742" y="30" type="curve" smooth="yes"/>
      <point x="791" y="30"/>
      <point x="885" y="19"/>
      <point x="941" y="10" type="curve" smooth="yes"/>
      <point x="982" y="4"/>
      <point x="1024" y="0"/>
      <point x="1057" y="0" type="curve" smooth="yes"/>
      <point x="1189" y="0"/>
      <point x="1222" y="30"/>
      <point x="1222" y="60" type="curve" smooth="yes"/>
      <point x="1222" y="94"/>
      <point x="1159" y="172"/>
      <point x="1083" y="243" type="curve" smooth="yes"/>
      <point x="1046" y="277"/>
      <point x="967" y="367"/>
      <point x="956" y="431" type="curve"/>
      <point x="997" y="390"/>
      <point x="1069" y="371"/>
      <point x="1117" y="371" type="curve" smooth="yes"/>
      <point x="1234" y="371"/>
      <point x="1312" y="412"/>
      <point x="1312" y="521" type="curve" smooth="yes"/>
      <point x="1312" y="630"/>
      <point x="1170" y="712"/>
      <point x="1001" y="712" type="curve" smooth="yes"/>
      <point x="765" y="712"/>
      <point x="656" y="600"/>
      <point x="656" y="442" type="curve"/>
      <point x="656" y="367"/>
      <point x="716" y="266"/>
      <point x="821" y="169" type="curve"/>
      <point x="769" y="180"/>
      <point x="724" y="180"/>
      <point x="697" y="180" type="curve" smooth="yes"/>
      <point x="671" y="180"/>
      <point x="652" y="176"/>
      <point x="607" y="165" type="curve"/>
      <point x="547" y="221"/>
      <point x="525" y="371"/>
      <point x="525" y="517" type="curve" smooth="yes"/>
      <point x="525" y="690"/>
      <point x="645" y="825"/>
      <point x="731" y="907" type="curve"/>
      <point x="1080" y="911"/>
      <point x="1241" y="997"/>
      <point x="1241" y="1196" type="curve" smooth="yes"/>
      <point x="1241" y="1271"/>
      <point x="1181" y="1432"/>
      <point x="1181" y="1519" type="curve" smooth="yes"/>
      <point x="1181" y="1601"/>
      <point x="1211" y="1676"/>
      <point x="1286" y="1676" type="curve"/>
      <point x="1237" y="1732"/>
      <point x="1200" y="1770"/>
      <point x="1065" y="1770" type="curve" smooth="yes"/>
      <point x="911" y="1770"/>
      <point x="825" y="1620"/>
      <point x="825" y="1500" type="curve" smooth="yes"/>
      <point x="825" y="1399"/>
      <point x="885" y="1297"/>
      <point x="885" y="1200" type="curve" smooth="yes"/>
      <point x="885" y="1162"/>
      <point x="851" y="1095"/>
      <point x="829" y="1087" type="curve"/>
      <point x="836" y="1102"/>
      <point x="844" y="1144"/>
      <point x="844" y="1170" type="curve" smooth="yes"/>
      <point x="844" y="1275"/>
      <point x="754" y="1440"/>
    </contour>
  </outline>
</glyph>
<glyph name="uni17E6" format="2">
  <advance width="1425"/>
  <unicode hex="17E6"/>
  <outline>
    <contour>
      <point x="1275" y="724" type="curve" smooth="yes"/>
      <point x="1275" y="1177"/>
      <point x="1016" y="1440"/>
      <point x="742" y="1440" type="curve"/>
      <point x="705" y="1440"/>
      <point x="679" y="1440"/>
      <point x="656" y="1436" type="curve"/>
      <point x="686" y="1492"/>
      <point x="705" y="1534"/>
      <point x="705" y="1601" type="curve"/>
      <point x="705" y="1710"/>
      <point x="626" y="1770"/>
      <point x="469" y="1770" type="curve"/>
      <point x="274" y="1770"/>
      <point x="180" y="1635"/>
      <point x="112" y="1541" type="curve"/>
      <point x="157" y="1571"/>
      <point x="218" y="1587"/>
      <point x="272" y="1587" type="curve" smooth="yes"/>
      <point x="342" y="1587"/>
      <point x="401" y="1560"/>
      <point x="401" y="1496" type="curve" smooth="yes"/>
      <point x="401" y="1387"/>
      <point x="375" y="1301"/>
      <point x="330" y="1252" type="curve"/>
      <point x="390" y="1282"/>
      <point x="450" y="1297"/>
      <point x="544" y="1297" type="curve" smooth="yes"/>
      <point x="802" y="1297"/>
      <point x="900" y="945"/>
      <point x="900" y="724" type="curve"/>
      <point x="900" y="397"/>
      <point x="795" y="131"/>
      <point x="682" y="131" type="curve"/>
      <point x="566" y="131"/>
      <point x="487" y="326"/>
      <point x="487" y="446" type="curve"/>
      <point x="487" y="596"/>
      <point x="529" y="604"/>
      <point x="544" y="604" type="curve"/>
      <point x="544" y="544"/>
      <point x="592" y="465"/>
      <point x="667" y="465" type="curve" smooth="yes"/>
      <point x="750" y="465"/>
      <point x="825" y="495"/>
      <point x="825" y="604" type="curve"/>
      <point x="825" y="727"/>
      <point x="701" y="795"/>
      <point x="521" y="795" type="curve"/>
      <point x="232" y="795"/>
      <point x="150" y="570"/>
      <point x="150" y="442" type="curve"/>
      <point x="150" y="150"/>
      <point x="394" y="0"/>
      <point x="682" y="0" type="curve"/>
      <point x="994" y="0"/>
      <point x="1275" y="221"/>
    </contour>
  </outline>
</glyph>
<glyph name="uni17F0" format="2">
  <advance width="1350"/>
  <unicode hex="17F0"/>
  <outline>
    <contour>
      <point x="225" y="757" type="curve" smooth="yes"/>
      <point x="225" y="495"/>
      <point x="435" y="300"/>
      <point x="712" y="300" type="curve"/>
      <point x="990" y="300"/>
      <point x="1200" y="495"/>
      <point x="1200" y="757" type="curve"/>
      <point x="1200" y="1020"/>
      <point x="990" y="1215"/>
      <point x="712" y="1215" type="curve"/>
      <point x="435" y="1215"/>
      <point x="225" y="1020"/>
    </contour>
    <contour>
      <point x="600" y="757" type="curve" smooth="yes"/>
      <point x="600" y="964"/>
      <point x="637" y="1102"/>
      <point x="712" y="1102" type="curve"/>
      <point x="787" y="1102"/>
      <point x="825" y="964"/>
      <point x="825" y="757" type="curve"/>
      <point x="825" y="551"/>
      <point x="787" y="412"/>
      <point x="712" y="412" type="curve"/>
      <point x="637" y="412"/>
      <point x="600" y="551"/>
    </contour>
  </outline>
</glyph>
<glyph name="uni17F4" format="2">
  <advance width="1500"/>
  <unicode hex="17F4"/>
  <outline>
    <contour>
      <point x="225" y="1215" type="line"/>
      <point x="600" y="300" type="line"/>
      <point x="975" y="300" type="line"/>
      <point x="1350" y="1215" type="line"/>
      <point x="975" y="1215" type="line"/>
      <point x="787" y="765" type="line"/>
      <point x="600" y="1215" type="line"/>
    </contour>
  </outline>
</glyph>
<glyph name="uni19E0" format="2">
  <advance width="1612"/>
  <unicode hex="19E0"/>
  <outline>
    <component base="uni17E8" yOffset="-1200"/>
    <contour>
      <point x="337" y="1215" type="curve" smooth="yes"/>
      <point x="337" y="986"/>
      <point x="532" y="802"/>
      <point x="825" y="802" type="curve"/>
      <point x="1117" y="802"/>
      <point x="1312" y="986"/>
      <point x="1312" y="1215" type="curve"/>
      <point x="1312" y="1444"/>
      <point x="1117" y="1627"/>
      <point x="825" y="1627" type="curve"/>
      <point x="532" y="1627"/>
      <point x="337" y="1444"/>
    </contour>
    <contour>
      <point x="675" y="1215" type="curve" smooth="yes"/>
      <point x="675" y="1369"/>
      <point x="735" y="1496"/>
      <point x="825" y="1496" type="curve"/>
      <point x="915" y="1496"/>
      <point x="975" y="1369"/>
      <point x="975" y="1215" type="curve"/>
      <point x="975" y="1061"/>
      <point x="915" y="934"/>
      <point x="825" y="934" type="curve"/>
      <point x="735" y="934"/>
      <point x="675" y="1061"/>
    </contour>
  </outline>
</glyph>
<glyph name="quoteleft" format="2">
  <advance width="352"/>
  <unicode hex="2018"/>
  <outline>
    <contour>
      <point x="274" y="930" type="line"/>
      <point x="274" y="1147" type="line"/>
      <point x="180" y="1147" type="line"/>
      <point x="180" y="1189" type="line" smooth="yes"/>
      <point x="180" y="1275"/>
      <point x="195" y="1327"/>
      <point x="274" y="1350" type="curve"/>
      <point x="274" y="1447" type="line"/>
      <point x="154" y="1421"/>
      <point x="79" y="1327"/>
      <point x="79" y="1189" type="curve" smooth="yes"/>
      <point x="79" y="930" type="line"/>
    </contour>
  </outline>
</glyph>
<glyph name="quotedblleft" format="2">
  <advance width="1037"/>
  <unicode hex="201C"/>
  <outline>
    <contour>
      <point x="960" y="1712" type="curve" smooth="yes"/>
      <point x="960" y="1789"/>
      <point x="906" y="1858"/>
      <point x="791" y="1858" type="curve" smooth="yes"/>
      <point x="675" y="1858"/>
      <point x="615" y="1781"/>
      <point x="615" y="1697" type="curve" smooth="yes"/>
      <point x="615" y="1474"/>
      <point x="741" y="1341"/>
      <point x="846" y="1341" type="curve" smooth="yes"/>
      <point x="864" y="1341"/>
      <point x="876" y="1344"/>
      <point x="876" y="1352" type="curve" smooth="yes"/>
      <point x="876" y="1371"/>
      <point x="821" y="1436"/>
      <point x="821" y="1547" type="curve" smooth="yes"/>
      <point x="821" y="1564"/>
      <point x="821" y="1582"/>
      <point x="842" y="1582" type="curve"/>
      <point x="872" y="1586"/>
      <point x="960" y="1620"/>
    </contour>
    <contour>
      <point x="538" y="1712" type="curve" smooth="yes"/>
      <point x="538" y="1789"/>
      <point x="484" y="1858"/>
      <point x="369" y="1858" type="curve" smooth="yes"/>
      <point x="253" y="1858"/>
      <point x="191" y="1781"/>
      <point x="191" y="1697" type="curve" smooth="yes"/>
      <point x="191" y="1474"/>
      <point x="319" y="1341"/>
      <point x="422" y="1341" type="curve" smooth="yes"/>
      <point x="442" y="1341"/>
      <point x="454" y="1344"/>
      <point x="454" y="1352" type="curve" smooth="yes"/>
      <point x="454" y="1371"/>
      <point x="399" y="1436"/>
      <point x="399" y="1547" type="curve" smooth="yes"/>
      <point x="399" y="1564"/>
      <point x="399" y="1582"/>
      <point x="418" y="1582" type="curve"/>
      <point x="450" y="1586"/>
      <point x="538" y="1620"/>
    </contour>
  </outline>
</glyph>
<glyph name="quotedblright" format="2">
  <advance width="1114"/>
  <unicode hex="201D"/>
  <outline>
    <contour>
      <point x="576" y="1712" type="curve" smooth="yes"/>
      <point x="576" y="1620"/>
      <point x="664" y="1586"/>
      <point x="696" y="1582" type="curve"/>
      <point x="714" y="1582"/>
      <point x="714" y="1564"/>
      <point x="714" y="1547" type="curve" smooth="yes"/>
      <point x="714" y="1436"/>
      <point x="660" y="1371"/>
      <point x="660" y="1352" type="curve" smooth="yes"/>
      <point x="660" y="1344"/>
      <point x="671" y="1341"/>
      <point x="692" y="1341" type="curve" smooth="yes"/>
      <point x="795" y="1341"/>
      <point x="922" y="1474"/>
      <point x="922" y="1697" type="curve" smooth="yes"/>
      <point x="922" y="1781"/>
      <point x="861" y="1858"/>
      <point x="744" y="1858" type="curve" smooth="yes"/>
      <point x="630" y="1858"/>
      <point x="576" y="1789"/>
    </contour>
    <contour>
      <point x="154" y="1712" type="curve" smooth="yes"/>
      <point x="154" y="1620"/>
      <point x="242" y="1586"/>
      <point x="272" y="1582" type="curve"/>
      <point x="292" y="1582"/>
      <point x="292" y="1564"/>
      <point x="292" y="1547" type="curve" smooth="yes"/>
      <point x="292" y="1436"/>
      <point x="238" y="1371"/>
      <point x="238" y="1352" type="curve" smooth="yes"/>
      <point x="238" y="1344"/>
      <point x="249" y="1341"/>
      <point x="268" y="1341" type="curve" smooth="yes"/>
      <point x="373" y="1341"/>
      <point x="499" y="1474"/>
      <point x="499" y="1697" type="curve" smooth="yes"/>
      <point x="499" y="1781"/>
      <point x="437" y="1858"/>
      <point x="322" y="1858" type="curve" smooth="yes"/>
      <point x="208" y="1858"/>
      <point x="154" y="1789"/>
    </contour>
  </outline>
</glyph>
<glyph name="quotedblbase" format="2">
  <advance width="675"/>
  <unicode hex="201E"/>
  <outline>
    <contour>
      <point x="79" y="217" type="line"/>
      <point x="79" y="0" type="line"/>
      <point x="176" y="0" type="line"/>
      <point x="176" y="-41" type="line" smooth="yes"/>
      <point x="176" y="-124"/>
      <point x="157" y="-176"/>
      <point x="79" y="-203" type="curve"/>
      <point x="79" y="-300" type="line"/>
      <point x="199" y="-274"/>
      <point x="274" y="-176"/>
      <point x="274" y="-41" type="curve" smooth="yes"/>
      <point x="274" y="217" type="line"/>
    </contour>
    <contour>
      <point x="401" y="217" type="line"/>
      <point x="401" y="0" type="line"/>
      <point x="495" y="0" type="line"/>
      <point x="495" y="-41" type="line" smooth="yes"/>
      <point x="495" y="-124"/>
      <point x="480" y="-176"/>
      <point x="401" y="-203" type="curve"/>
      <point x="401" y="-300" type="line"/>
      <point x="521" y="-274"/>
      <point x="596" y="-176"/>
      <point x="596" y="-41" type="curve" smooth="yes"/>
      <point x="596" y="217" type="line"/>
    </contour>
  </outline>
</glyph>
<glyph name="daggerdbl" format="2">
  <advance width="870"/>
  <unicode hex="2021"/>
  <outline>
    <contour>
      <point x="364" y="1489" type="line"/>
      <point x="364" y="1039" type="line"/>
      <point x="79" y="1039" type="line"/>
      <point x="79" y="900" type="line"/>
      <point x="364" y="900" type="line"/>
      <point x="364" y="615" type="line"/>
      <point x="79" y="615" type="line"/>
      <point x="79" y="476" type="line"/>
      <point x="364" y="476" type="line"/>
      <point x="364" y="-281" type="line"/>
      <point x="506" y="-281" type="line"/>
      <point x="506" y="476" type="line"/>
      <point x="787" y="476" type="line"/>
      <point x="787" y="615" type="line"/>
      <point x="506" y="615" type="line"/>
      <point x="506" y="900" type="line"/>
      <point x="787" y="900" type="line"/>
      <point x="787" y="1039" type="line"/>
      <point x="506" y="1039" type="line"/>
      <point x="506" y="1489" type="line"/>
    </contour>
  </outline>
</glyph>
<glyph name="Omega" format="2">
  <advance width="1569"/>
  <unicode hex="2126"/>
  <outline>
    <contour>
      <point x="1502" y="856" type="curve" smooth="yes"/>
      <point x="1502" y="1213"/>
      <point x="1235" y="1485"/>
      <point x="784" y="1485" type="curve"/>
      <point x="335" y="1485"/>
      <point x="67" y="1213"/>
      <point x="67" y="856" type="curve" smooth="yes"/>
      <point x="67" y="491"/>
      <point x="331" y="289"/>
      <point x="579" y="245" type="curve"/>
      <point x="579" y="165" type="line"/>
      <point x="170" y="165" type="line"/>
      <point x="170" y="0" type="line"/>
      <point x="676" y="0" type="line"/>
      <point x="676" y="408" type="line"/>
      <point x="441" y="447"/>
      <point x="277" y="610"/>
      <point x="277" y="854" type="curve"/>
      <point x="276" y="1126"/>
      <point x="487" y="1308"/>
      <point x="784" y="1309" type="curve" smooth="yes"/>
      <point x="1081" y="1308"/>
      <point x="1293" y="1126"/>
      <point x="1292" y="854" type="curve"/>
      <point x="1292" y="610"/>
      <point x="1128" y="447"/>
      <point x="893" y="408" type="curve"/>
      <point x="893" y="0" type="line"/>
      <point x="1399" y="0" type="line"/>
      <point x="1399" y="165" type="line"/>
      <point x="991" y="165" type="line"/>
      <point x="991" y="245" type="line"/>
      <point x="1239" y="289"/>
      <point x="1502" y="491"/>
    </contour>
  </outline>
</glyph>
<glyph name="greaterequal" format="2">
  <advance width="1271"/>
  <unicode hex="2265"/>
  <outline>
    <contour>
      <point x="1170" y="761" type="line"/>
      <point x="79" y="1234" type="line"/>
      <point x="79" y="1136" type="line"/>
      <point x="1001" y="731" type="line"/>
      <point x="79" y="349" type="line"/>
      <point x="79" y="247" type="line"/>
      <point x="1170" y="701" type="line"/>
    </contour>
    <contour>
      <point x="79" y="116" type="line"/>
      <point x="1170" y="116" type="line"/>
      <point x="1170" y="206" type="line"/>
      <point x="79" y="206" type="line"/>
    </contour>
  </outline>
</glyph>
<glyph name="uniEF02" format="2">
  <advance width="2640"/>
  <unicode hex="EF02"/>
  <anchor x="1172" y="0" name="L"/>
  <anchor x="1172" y="1407" name="U"/>
  <outline>
    <contour>
      <point x="1885" y="96" type="line"/>
      <point x="1866" y="96"/>
      <point x="1845" y="106"/>
      <point x="1840" y="136" type="curve"/>
      <point x="1808" y="112"/>
      <point x="1776" y="96"/>
      <point x="1696" y="96" type="curve" smooth="yes"/>
      <point x="1536" y="96"/>
      <point x="1432" y="136"/>
      <point x="1320" y="136" type="curve" smooth="yes"/>
      <point x="1208" y="136"/>
      <point x="1104" y="96"/>
      <point x="944" y="96" type="curve" smooth="yes"/>
      <point x="864" y="96"/>
      <point x="832" y="112"/>
      <point x="800" y="136" type="curve"/>
      <point x="795" y="106"/>
      <point x="774" y="97"/>
      <point x="755" y="96" type="curve" smooth="yes"/>
      <point x="40" y="72" type="line"/>
      <point x="755" y="56" type="line" smooth="yes"/>
      <point x="774" y="56"/>
      <point x="795" y="38"/>
      <point x="800" y="8" type="curve"/>
      <point x="832" y="32"/>
      <point x="864" y="43"/>
      <point x="944" y="43" type="curve" smooth="yes"/>
      <point x="1104" y="43"/>
      <point x="1208" y="8"/>
      <point x="1320" y="8" type="curve" smooth="yes"/>
      <point x="1432" y="8"/>
      <point x="1536" y="43"/>
      <point x="1696" y="43" type="curve" smooth="yes"/>
      <point x="1776" y="43"/>
      <point x="1808" y="32"/>
      <point x="1840" y="8" type="curve"/>
      <point x="1845" y="38"/>
      <point x="1866" y="56"/>
      <point x="1885" y="56" type="curve" smooth="yes"/>
      <point x="2600" y="72" type="line"/>
    </contour>
  </outline>
</glyph>
<glyph name=".notdef" format="2">
  <advance width="1725"/>
  <outline>
    <contour>
      <point x="1575" y="1440" type="line"/>
      <point x="225" y="1440" type="line"/>
      <point x="225" y="0" type="line"/>
      <point x="1575" y="0" type="line"/>
    </contour>
    <contour>
      <point x="655" y="1264" type="line"/>
      <point x="1145" y="1264" type="line"/>
      <point x="1145" y="172" type="line"/>
      <point x="655" y="172" type="line"/>
    </contour>
    <contour>
      <point x="855" y="386" type="curve" smooth="yes"/>
      <point x="855" y="367"/>
      <point x="874" y="345"/>
      <point x="896" y="345" type="curve" smooth="yes"/>
      <point x="915" y="345"/>
      <point x="934" y="367"/>
      <point x="934" y="386" type="curve" smooth="yes"/>
      <point x="934" y="409"/>
      <point x="915" y="427"/>
      <point x="896" y="427" type="curve" smooth="yes"/>
      <point x="874" y="427"/>
      <point x="855" y="409"/>
    </contour>
    <contour>
      <point x="791" y="911" type="curve" smooth="yes"/>
      <point x="791" y="937"/>
      <point x="810" y="971"/>
      <point x="896" y="971" type="curve" smooth="yes"/>
      <point x="982" y="971"/>
      <point x="1016" y="915"/>
      <point x="1016" y="877" type="curve" smooth="yes"/>
      <point x="1016" y="806"/>
      <point x="840" y="645"/>
      <point x="840" y="536" type="curve" smooth="yes"/>
      <point x="840" y="506"/>
      <point x="844" y="487"/>
      <point x="855" y="472" type="curve"/>
      <point x="926" y="472" type="line"/>
      <point x="915" y="487"/>
      <point x="915" y="510"/>
      <point x="915" y="536" type="curve" smooth="yes"/>
      <point x="915" y="626"/>
      <point x="1091" y="761"/>
      <point x="1091" y="881" type="curve" smooth="yes"/>
      <point x="1091" y="945"/>
      <point x="1035" y="1042"/>
      <point x="896" y="1042" type="curve" smooth="yes"/>
      <point x="757" y="1042"/>
      <point x="716" y="952"/>
      <point x="716" y="896" type="curve" smooth="yes"/>
      <point x="716" y="851"/>
      <point x="727" y="821"/>
      <point x="750" y="799" type="curve" smooth="yes"/>
      <point x="765" y="784"/>
      <point x="791" y="776"/>
      <point x="817" y="776" type="curve" smooth="yes"/>
      <point x="847" y="776"/>
      <point x="885" y="795"/>
      <point x="885" y="832" type="curve" smooth="yes"/>
      <point x="885" y="859"/>
      <point x="866" y="881"/>
      <point x="840" y="881" type="curve" smooth="yes"/>
      <point x="825" y="881"/>
      <point x="810" y="877"/>
      <point x="802" y="866" type="curve"/>
      <point x="791" y="870"/>
      <point x="791" y="892"/>
    </contour>
  </outline>
</glyph>
<glyph name="hyphen.demo" format="2">
  <advance width="1537"/>
  <outline>
    <contour>
      <point x="1163" y="470" type="line"/>
      <point x="1163" y="690" type="line"/>
      <point x="412" y="690" type="line"/>
      <point x="412" y="470" type="line"/>
    </contour>
  </outline>
</glyph>
<glyph name="uni0020.showinv" format="2">
  <advance width="1537"/>
  <outline>
    <contour>
      <point x="0" y="-76" type="line"/>
      <point x="1537" y="-76" type="line"/>
      <point x="1537" y="190" type="line"/>
      <point x="1461" y="190" type="line"/>
      <point x="1461" y="0" type="line"/>
      <point x="76" y="0" type="line"/>
      <point x="76" y="190" type="line"/>
      <point x="0" y="190" type="line"/>
    </contour>
  </outline>
</glyph>
<glyph name="uni01A00306" format="2">
  <advance width="1602"/>
  <outline>
    <component base="uni01A0"/>
    <contour>
      <point x="924" y="1850" type="line"/>
      <point x="924" y="1756"/>
      <point x="844" y="1700"/>
      <point x="754" y="1700" type="curve" smooth="yes"/>
      <point x="664" y="1700"/>
      <point x="584" y="1756"/>
      <point x="584" y="1850" type="curve"/>
      <point x="434" y="1850" type="line"/>
      <point x="434" y="1632"/>
      <point x="629" y="1550"/>
      <point x="754" y="1550" type="curve" smooth="yes"/>
      <point x="879" y="1550"/>
      <point x="1074" y="1632"/>
      <point x="1074" y="1850" type="curve"/>
    </contour>
  </outline>
</glyph>
<glyph name="uni01A10306" format="2">
  <advance width="1228"/>
  <outline>
    <component base="uni01A1"/>
    <contour>
      <point x="724" y="1520" type="line"/>
      <point x="724" y="1426"/>
      <point x="644" y="1370"/>
      <point x="554" y="1370" type="curve" smooth="yes"/>
      <point x="464" y="1370"/>
      <point x="384" y="1426"/>
      <point x="384" y="1520" type="curve"/>
      <point x="234" y="1520" type="line"/>
      <point x="234" y="1302"/>
      <point x="429" y="1220"/>
      <point x="554" y="1220" type="curve" smooth="yes"/>
      <point x="679" y="1220"/>
      <point x="874" y="1302"/>
      <point x="874" y="1520" type="curve"/>
    </contour>
  </outline>
</glyph>
<glyph name="uni01B00306" format="2">
  <advance width="1288"/>
  <outline>
    <component base="uni01B0"/>
    <contour>
      <point x="723" y="1520" type="line"/>
      <point x="723" y="1426"/>
      <point x="643" y="1370"/>
      <point x="553" y="1370" type="curve" smooth="yes"/>
      <point x="463" y="1370"/>
      <point x="383" y="1426"/>
      <point x="383" y="1520" type="curve"/>
      <point x="233" y="1520" type="line"/>
      <point x="233" y="1302"/>
      <point x="428" y="1220"/>
      <point x="553" y="1220" type="curve" smooth="yes"/>
      <point x="678" y="1220"/>
      <point x="873" y="1302"/>
      <point x="873" y="1520" type="curve"/>
    </contour>
  </outline>
</glyph>
<glyph name="uni0268.dotless" format="2">
  <advance width="431"/>
  <outline>
    <contour>
      <point x="27" y="637" type="line"/>
      <point x="27" y="439" type="line"/>
      <point x="404" y="439" type="line"/>
      <point x="404" y="637" type="line"/>
    </contour>
    <contour>
      <point x="127" y="1039" type="line"/>
      <point x="127" y="0" type="line"/>
      <point x="304" y="0" type="line"/>
      <point x="304" y="1039" type="line"/>
    </contour>
  </outline>
</glyph>
<glyph name="uni0306.high" format="2">
  <outline>
    <contour>
      <point x="-583" y="1850" type="line"/>
      <point x="-583" y="1756"/>
      <point x="-663" y="1700"/>
      <point x="-753" y="1700" type="curve" smooth="yes"/>
      <point x="-843" y="1700"/>
      <point x="-923" y="1756"/>
      <point x="-923" y="1850" type="curve"/>
      <point x="-1073" y="1850" type="line"/>
      <point x="-1073" y="1632"/>
      <point x="-878" y="1550"/>
      <point x="-753" y="1550" type="curve" smooth="yes"/>
      <point x="-628" y="1550"/>
      <point x="-433" y="1632"/>
      <point x="-433" y="1850" type="curve"/>
    </contour>
  </outline>
</glyph>
<glyph name="uni1780.alt" format="2">
  <advance width="1950"/>
  <anchor x="1200" y="0" name="L"/>
  <anchor x="750" y="1440" name="MA"/>
  <anchor x="1200" y="1440" name="U"/>
  <outline>
    <contour>
      <point x="600" y="888" type="line"/>
      <point x="600" y="937"/>
      <point x="671" y="952"/>
      <point x="709" y="952" type="curve" smooth="yes"/>
      <point x="742" y="952"/>
      <point x="825" y="937"/>
      <point x="825" y="888" type="curve" smooth="yes"/>
      <point x="825" y="0" type="line"/>
      <point x="1200" y="0" type="line"/>
      <point x="1200" y="862" type="line" smooth="yes"/>
      <point x="1200" y="930"/>
      <point x="1275" y="952"/>
      <point x="1312" y="952" type="curve" smooth="yes"/>
      <point x="1350" y="952"/>
      <point x="1425" y="937"/>
      <point x="1425" y="888" type="curve" smooth="yes"/>
      <point x="1425" y="0" type="line"/>
      <point x="1800" y="0" type="line"/>
      <point x="1800" y="941" type="line" smooth="yes"/>
      <point x="1800" y="1046"/>
      <point x="1560" y="1121"/>
      <point x="1312" y="1121" type="curve" smooth="yes"/>
      <point x="1204" y="1121"/>
      <point x="1099" y="1106"/>
      <point x="1012" y="1080" type="curve"/>
      <point x="926" y="1106"/>
      <point x="814" y="1121"/>
      <point x="709" y="1121" type="curve" smooth="yes"/>
      <point x="461" y="1121"/>
      <point x="225" y="1046"/>
      <point x="225" y="941" type="curve" smooth="yes"/>
      <point x="225" y="105" type="line"/>
      <point x="263" y="19"/>
      <point x="409" y="0"/>
      <point x="525" y="0" type="curve"/>
      <point x="735" y="41"/>
      <point x="807" y="180"/>
      <point x="807" y="259" type="curve" smooth="yes"/>
      <point x="807" y="364"/>
      <point x="732" y="431"/>
      <point x="600" y="457" type="curve"/>
    </contour>
    <contour>
      <point x="683" y="277" type="curve" smooth="yes"/>
      <point x="683" y="221"/>
      <point x="634" y="191"/>
      <point x="600" y="180" type="curve"/>
      <point x="600" y="356" type="line"/>
      <point x="630" y="356"/>
      <point x="683" y="319"/>
    </contour>
    <contour>
      <point x="385" y="997" type="line"/>
      <point x="356" y="1018"/>
      <point x="334" y="1049"/>
      <point x="334" y="1099" type="curve" smooth="yes"/>
      <point x="334" y="1155"/>
      <point x="400" y="1192"/>
      <point x="526" y="1192" type="curve" smooth="yes"/>
      <point x="662" y="1192"/>
      <point x="861" y="1170"/>
      <point x="1012" y="1114" type="curve"/>
      <point x="1139" y="1164"/>
      <point x="1274" y="1185"/>
      <point x="1429" y="1185" type="curve" smooth="yes"/>
      <point x="1569" y="1185"/>
      <point x="1638" y="1102"/>
      <point x="1733" y="1102" type="curve" smooth="yes"/>
      <point x="1858" y="1102"/>
      <point x="1942" y="1218"/>
      <point x="1950" y="1402" type="curve"/>
      <point x="1902" y="1354"/>
      <point x="1849" y="1346"/>
      <point x="1800" y="1346" type="curve" smooth="yes"/>
      <point x="1703" y="1346"/>
      <point x="1659" y="1440"/>
      <point x="1433" y="1440" type="curve"/>
      <point x="1274" y="1440"/>
      <point x="1121" y="1387"/>
      <point x="1012" y="1335" type="curve"/>
      <point x="853" y="1391"/>
      <point x="651" y="1440"/>
      <point x="515" y="1440" type="curve" smooth="yes"/>
      <point x="244" y="1440"/>
      <point x="131" y="1305"/>
      <point x="131" y="1140" type="curve" smooth="yes"/>
      <point x="131" y="1048"/>
      <point x="197" y="947"/>
      <point x="264" y="897" type="curve"/>
    </contour>
  </outline>
</glyph>
<glyph name="uni178217B6" format="2">
  <advance width="2250"/>
  <anchor x="1387" y="0" name="L"/>
  <anchor x="1387" y="1440" name="U"/>
  <outline>
    <contour>
      <point x="600" y="255" type="curve"/>
      <point x="600" y="885" type="line" smooth="yes"/>
      <point x="600" y="941"/>
      <point x="735" y="956"/>
      <point x="788" y="956" type="curve" smooth="yes"/>
      <point x="840" y="956"/>
      <point x="975" y="941"/>
      <point x="975" y="885" type="curve" smooth="yes"/>
      <point x="975" y="0" type="line"/>
      <point x="1350" y="0" type="line"/>
      <point x="1350" y="881" type="line" smooth="yes"/>
      <point x="1350" y="990"/>
      <point x="1020" y="1087"/>
      <point x="788" y="1087" type="curve" smooth="yes"/>
      <point x="645" y="1087"/>
      <point x="465" y="1050"/>
      <point x="348" y="997" type="curve"/>
      <point x="319" y="1016"/>
      <point x="297" y="1043"/>
      <point x="297" y="1080" type="curve" smooth="yes"/>
      <point x="297" y="1147"/>
      <point x="372" y="1189"/>
      <point x="529" y="1189" type="curve" smooth="yes"/>
      <point x="728" y="1189"/>
      <point x="1005" y="1129"/>
      <point x="1069" y="1065" type="curve"/>
      <point x="1125" y="1125"/>
      <point x="1298" y="1189"/>
      <point x="1482" y="1189" type="curve" smooth="yes"/>
      <point x="1602" y="1189"/>
      <point x="1725" y="1151"/>
      <point x="1725" y="1065" type="curve" smooth="yes"/>
      <point x="1725" y="0" type="line"/>
      <point x="2100" y="0" type="line"/>
      <point x="2100" y="1129" type="line" smooth="yes"/>
      <point x="2100" y="1226"/>
      <point x="1860" y="1440"/>
      <point x="1500" y="1440" type="curve" smooth="yes"/>
      <point x="1339" y="1440"/>
      <point x="1125" y="1357"/>
      <point x="1054" y="1297" type="curve"/>
      <point x="934" y="1357"/>
      <point x="698" y="1440"/>
      <point x="465" y="1440" type="curve" smooth="yes"/>
      <point x="207" y="1440"/>
      <point x="94" y="1305"/>
      <point x="94" y="1177" type="curve" smooth="yes"/>
      <point x="94" y="1084"/>
      <point x="161" y="961"/>
      <point x="229" y="901" type="curve"/>
      <point x="226" y="894"/>
      <point x="225" y="887"/>
      <point x="225" y="881" type="curve" smooth="yes"/>
      <point x="225" y="0" type="line"/>
      <point x="600" y="0" type="line"/>
      <point x="657" y="127"/>
      <point x="698" y="172"/>
      <point x="728" y="191" type="curve" smooth="yes"/>
      <point x="807" y="240"/>
      <point x="852" y="289"/>
      <point x="852" y="337" type="curve" smooth="yes"/>
      <point x="852" y="397"/>
      <point x="825" y="446"/>
      <point x="754" y="446" type="curve" smooth="yes"/>
      <point x="668" y="446"/>
      <point x="630" y="356"/>
    </contour>
  </outline>
</glyph>
<glyph name="uni178717C5.right" format="2">
  <advance width="2250"/>
  <anchor x="1387" y="0" name="L"/>
  <anchor x="1387" y="1440" name="U"/>
  <outline>
    <contour>
      <point x="1183" y="801" type="curve" smooth="yes"/>
      <point x="1183" y="951"/>
      <point x="1510" y="1309"/>
      <point x="1615" y="1309" type="curve" smooth="yes"/>
      <point x="1685" y="1309"/>
      <point x="1725" y="1234"/>
      <point x="1725" y="1147" type="curve" smooth="yes"/>
      <point x="1725" y="0" type="line"/>
      <point x="2100" y="0" type="line"/>
      <point x="2100" y="1166" type="line" smooth="yes"/>
      <point x="2100" y="1264"/>
      <point x="1955" y="1440"/>
      <point x="1665" y="1440" type="curve" smooth="yes"/>
      <point x="1391" y="1440"/>
      <point x="975" y="774"/>
      <point x="975" y="671" type="curve"/>
      <point x="975" y="266" type="line" smooth="yes"/>
      <point x="975" y="251"/>
      <point x="968" y="244"/>
      <point x="957" y="244" type="curve" smooth="yes"/>
      <point x="919" y="244"/>
      <point x="799" y="375"/>
      <point x="788" y="375" type="curve" smooth="yes"/>
      <point x="777" y="375"/>
      <point x="653" y="244"/>
      <point x="619" y="244" type="curve" smooth="yes"/>
      <point x="608" y="244"/>
      <point x="600" y="251"/>
      <point x="600" y="266" type="curve" smooth="yes"/>
      <point x="600" y="1027" type="line"/>
      <point x="469" y="1046"/>
      <point x="300" y="1102"/>
      <point x="300" y="1159" type="curve" smooth="yes"/>
      <point x="300" y="1185"/>
      <point x="357" y="1215"/>
      <point x="432" y="1215" type="curve" smooth="yes"/>
      <point x="582" y="1215"/>
      <point x="705" y="1027"/>
      <point x="944" y="1027" type="curve" smooth="yes"/>
      <point x="1152" y="1027"/>
      <point x="1300" y="1255"/>
      <point x="1300" y="1376" type="curve" smooth="yes"/>
      <point x="1300" y="1459"/>
      <point x="1285" y="1511"/>
      <point x="1210" y="1609" type="curve"/>
      <point x="1139" y="1687"/>
      <point x="1038" y="1777"/>
      <point x="884" y="1777" type="curve" smooth="yes"/>
      <point x="760" y="1777"/>
      <point x="723" y="1725"/>
      <point x="723" y="1676" type="curve" smooth="yes"/>
      <point x="723" y="1616"/>
      <point x="760" y="1560"/>
      <point x="854" y="1533" type="curve" smooth="yes"/>
      <point x="918" y="1515"/>
      <point x="1094" y="1466"/>
      <point x="1094" y="1376" type="curve" smooth="yes"/>
      <point x="1094" y="1312"/>
      <point x="1042" y="1252"/>
      <point x="952" y="1252" type="curve" smooth="yes"/>
      <point x="844" y="1252"/>
      <point x="720" y="1440"/>
      <point x="450" y="1440" type="curve" smooth="yes"/>
      <point x="263" y="1440"/>
      <point x="94" y="1350"/>
      <point x="94" y="1204" type="curve" smooth="yes"/>
      <point x="94" y="1099"/>
      <point x="162" y="1046"/>
      <point x="225" y="1027" type="curve"/>
      <point x="225" y="79" type="line" smooth="yes"/>
      <point x="225" y="37"/>
      <point x="315" y="0"/>
      <point x="405" y="0" type="curve" smooth="yes"/>
      <point x="525" y="0" type="line" smooth="yes"/>
      <point x="619" y="0"/>
      <point x="777" y="154"/>
      <point x="788" y="154" type="curve" smooth="yes"/>
      <point x="799" y="154"/>
      <point x="957" y="0"/>
      <point x="1050" y="0" type="curve" smooth="yes"/>
      <point x="1163" y="0" type="line" smooth="yes"/>
      <point x="1253" y="0"/>
      <point x="1350" y="37"/>
      <point x="1350" y="79" type="curve" smooth="yes"/>
      <point x="1350" y="620" type="line" smooth="yes"/>
      <point x="1350" y="662"/>
      <point x="1341" y="695"/>
      <point x="1250" y="720" type="curve" smooth="yes"/>
      <point x="1215" y="730"/>
      <point x="1183" y="748"/>
    </contour>
    <contour>
      <point x="2035" y="1284" type="line"/>
      <point x="2097" y="1357"/>
      <point x="2138" y="1459"/>
      <point x="2138" y="1590" type="curve" smooth="yes"/>
      <point x="2138" y="1725"/>
      <point x="2055" y="1935"/>
      <point x="1819" y="1935" type="curve" smooth="yes"/>
      <point x="1729" y="1935"/>
      <point x="1650" y="1912"/>
      <point x="1650" y="1826" type="curve" smooth="yes"/>
      <point x="1650" y="1762"/>
      <point x="1693" y="1725"/>
      <point x="1766" y="1703" type="curve" smooth="yes"/>
      <point x="1849" y="1678"/>
      <point x="1905" y="1624"/>
      <point x="1905" y="1507" type="curve" smooth="yes"/>
      <point x="1905" y="1459"/>
      <point x="1893" y="1419"/>
      <point x="1867" y="1387" type="curve"/>
    </contour>
  </outline>
</glyph>
